<?xml version="1.0" encoding="utf-8"?>
<!-- Generator: Adobe Illustrator 17.0.0, SVG Export Plug-In . SVG Version: 6.00 Build 0)  -->
<!DOCTYPE svg PUBLIC "-//W3C//DTD SVG 1.1//EN" "http://www.w3.org/Graphics/SVG/1.1/DTD/svg11.dtd">
<svg version="1.1" id="Layer_1" xmlns="http://www.w3.org/2000/svg" xmlns:xlink="http://www.w3.org/1999/xlink" x="0px" y="0px"
	 width="110.949px" height="284.702px" viewBox="0 0 110.949 284.702" enable-background="new 0 0 110.949 284.702"
	 xml:space="preserve">
<g>
	<path fill="#F5D2B9" d="M78.292,102.209c-4.518-8.276-8.823-16.95-10.203-26.277c-0.462-3.122-0.743-6.288-1.622-9.318
		c-0.88-3.031-2.432-5.977-4.954-7.875c-2.522-1.897-6.134-2.538-8.895-1.009c3.501,11.698,8.015,23.103,11.516,34.801
		c2.582,8.629,5.421,16.529,10.323,24.085c4.902,7.556,10.298,14.977,13.082,23.543c0.644,1.982,1.196,3.974,1.649,6.009
		c1.608,2.984,7.031,6.404,11.095,8.851c0.436-0.324,0.395-0.961,0.193-1.466c-0.423-1.058-1.607-1.371-2.49-2.093
		s-1.67-1.746-1.574-2.882c2.888-0.706,5.961-0.025,8.416,1.652c1.174,0.802,3.226,3.051,5.834,2.668
		c0.069-0.288,0.219-0.587,0.288-0.875c-1.781-1.065-3.377-2.44-4.635-4.09c-0.932-1.222-1.278-2.73-1.972-4.101
		c-2.287-0.952-4.412-2.01-6.699-2.962c-1.316-0.548-2.674-1.124-3.652-2.161c-6.704-7.11-7.07-18.425-10.411-27.609
		C82.368,107.767,79.991,105.322,78.292,102.209z"/>
	<path fill="none" stroke="#E5C697" stroke-width="1.1029" stroke-miterlimit="10" d="M5.812,138.76
		c1.674-18.316,11.89-52.226,17.511-69.738"/>
	<path fill="#734B34" d="M25.189,128.24c10.947-5.156,40.433-7.614,52.454-6.227c-11.288-20.78-11.652-67.967-34.568-67.274
		c-9.477,9.025-14.762,21.662-16.919,34.57C23.999,102.217,24.546,115.169,25.189,128.24z"/>
	<path fill="#A75B26" d="M43.485,39.24c-2.599,3.559-2.579,8.63-0.549,12.542c2.03,3.912,5.808,6.72,9.93,8.28
		c4.122,1.56,8.59,1.978,12.997,2.024c2.984,0.032,6.092-0.076,8.801,1.176c2.709,1.251,4.831,4.391,3.815,7.197
		c2.075-2.524,2.383-5.513,1.137-8.534c-1.673-4.058-5.998-6.346-10.196-7.628c-4.198-1.282-8.678-1.932-12.429-4.212
		c-3.751-2.28-6.605-6.916-5.065-11.026C49.145,37.24,45.446,36.556,43.485,39.24z"/>
	<path fill="#DF8446" d="M48.943,38.338c-0.563,3.477,0.351,7.168,2.471,9.981s5.416,4.708,8.913,5.126
		c2.934,0.35,5.89-0.297,8.845-0.326c2.955-0.029,6.204,0.751,7.906,3.167c-0.88-2.522-3.694-3.814-6.309-4.356
		c-2.615-0.542-5.326-0.343-7.979-0.647c-2.654-0.304-5.44-1.254-6.962-3.448c-1.202-1.733-1.42-3.944-2.184-5.91
		C52.879,39.958,51.019,37.968,48.943,38.338z"/>
	<path fill="#BC6628" d="M46.52,43.613c-1.005,2.899,0.467,6.215,2.83,8.173c2.363,1.958,5.437,2.812,8.45,3.395
		c3.013,0.583,6.104,0.957,8.929,2.156c2.825,1.199,5.421,3.408,6.174,6.383c0.753,2.975-0.969,6.616-3.985,7.182
		c3.223,0.553,6.448-2.48,6.582-5.747c0.134-3.267-1.985-6.29-4.668-8.159c-2.683-1.869-5.886-2.805-9.008-3.776
		c-3.122-0.971-6.304-2.05-8.824-4.133c-2.52-2.084-4.27-5.408-3.601-8.609C48.502,41.613,46.994,42.247,46.52,43.613z"/>
	<g>
		<path fill="none" stroke="#8A6147" stroke-width="1.1029" stroke-miterlimit="10" d="M85.857,233.736
			c0.679-2.595-0.627-5.264-2.001-7.568c-2.611-4.381-5.615-8.527-8.964-12.372c5.775,5.7,8.253,14.382,8.089,22.495"/>
		<g>
			<circle fill="#F04B4B" cx="85.896" cy="233.696" r="1.018"/>
			<circle fill="#DA92BF" cx="85.528" cy="235.536" r="1.018"/>
		</g>
		<g>
			<circle fill="#F04B4B" cx="82.994" cy="235.896" r="1.018"/>
			<circle fill="#DA92BF" cx="83.28" cy="237.75" r="1.018"/>
		</g>
		<circle fill="#8A6147" cx="75.142" cy="214.115" r="1.332"/>
	</g>
	<path fill="#8A6147" d="M74.406,263.09c-1.197-0.02-5.561,1.549-5.15,2.673c0.411,1.124,1.478,1.85,2.483,2.5
		c3.511,2.272,6.183,2.878,10.534,6.817c2.319,2.099,5.341,3.803,8.418,4.362c3.077,0.56,9.011-1.302,8.322-3.721
		c-0.554-1.946-2.436-2.267-2.69-2.257C86.162,271.869,82.268,269.723,74.406,263.09z"/>
	<path fill="#A75B26" d="M55.701,34.149c-0.346,4.463,3.605,8.214,7.807,9.756c4.202,1.542,8.803,1.595,13.119,2.784
		c4.316,1.188,8.704,4.071,9.47,8.482c-1.795-3.038-4.971-4.544-8.453-5.12c-3.482-0.575-7.04-0.252-10.568-0.299
		c-3.529-0.047-7.202-0.52-10.142-2.47C52.558,44.379,53.638,38.976,55.701,34.149z"/>
	<path fill="#DDB886" d="M15.828,37.918c6.674,4.742,25.142-2.557,36.508-7.307c6.754-2.823,20.536-11.037,17.194-16.745
		c-0.903-1.543-3.295-1.758-5.266-1.746c-8.581,0.052-16.94,2.035-24.652,5.646c-2.225,1.042-4.45,2.084-6.676,3.126
		c-3.776,1.768-7.346,5.305-10.593,7.829c-1.468,1.141-3.405,2.526-4.385,4.045C16.958,34.318,16.484,36.24,15.828,37.918z"/>
	<path fill="#A75B26" d="M30.159,21.124c-3.368,4.318-6.9,9.1-6.835,14.576c0.046,3.867,1.957,7.537,4.597,10.363
		c2.64,2.825,5.973,4.903,9.357,6.774C39.124,42.51,30.92,32.178,30.159,21.124z"/>
	<path fill="#BC6628" d="M30.065,21.506c-3.01,4.227-3.26,9.873-2.27,14.967c0.99,5.094,3.078,9.906,4.39,14.926
		c1.312,5.02,1.797,10.534-0.355,15.255c2.99-3.119,3.935-7.457,4.154-11.773c0.219-4.315-0.588-8.609-1.392-12.855
		c-1.32-6.972-2.64-13.945-3.96-20.917C30.019,21.024,30.678,21.59,30.065,21.506z"/>
	<g>
		<path fill="#E5C3B0" d="M44.997,43.962c1.336,0.463,2.712,0.785,4.105,1.024c0.409-0.931,0.867-1.819,1.335-2.602l-10.644-7.641
			c0.411,1.821,0.029,3.889-0.588,5.788C40.824,42.091,42.862,43.222,44.997,43.962z"/>
		<path fill="#F5D2B9" d="M75.34,127.177c-1.558-6.748-3.619-12.25-6.234-15.506c-2.223-2.768-6.444-7.425-8.218-14.812
			c-1.318-3.954-1.196-7.639-0.941-11.225c1.197-2.887,1.779-6.03,1.68-9.155c-0.099-3.139-0.783-6.171-1.852-9.098
			c-1.355-3.707-3.332-7.244-5.542-10.608c-0.67-0.187-1.339-0.359-1.994-0.52c-0.285-0.07-0.567-0.138-0.846-0.205
			c-2.081-0.497-3.664-2.253-3.831-4.386c-0.151-1.927,0.551-4.43,1.539-6.676c-1.394-0.239-2.769-0.561-4.105-1.024
			c-2.136-0.74-4.173-1.871-5.792-3.431c-0.615,1.891-1.462,3.614-1.99,4.756c-1.705,3.687-5.104,7.86-9.159,8.111
			c-4.382,0.27-5.552,8.189-5.371,12.554c0.469,11.309,4.173,21.001,9.408,28.995c3.21,4.902,3.573,11.14,0.952,16.381
			c-3.092,6.182-6.499,12.781-7.305,18.513c-1.893,13.475-5.153,23.871-5.761,35.548c-0.607,11.651,2.111,27.434-1.809,38.718
			c-2.953,8.499-7.955,17.175-7.555,26.164c0.345,7.739,1.793,16.582,2.137,24.322c0.4,8.99-4.253,15.507-4.089,24.504
			c0.024,1.303,1.76,2.471,2.848,3.188c1.089,0.717,2.44,0.965,3.74,0.879c1.301-0.085,5.254-1.14,5.242-2.444
			c-0.048-5.276-2.72-11.143-1.838-18.462c0.209-1.739,0.168-3.091,0.191-4.842l0.157-0.625c-0.347-6.428,1.914-13.897,3.429-20.153
			c2.202-9.094,4.036-21.13,6.238-30.224c7.901-16.554,9.344-25.919,14.05-38.315c3.422-9.014,5.021-20.179,7.459-26.574
			c0.462-0.254,0.847-0.46,1.197-0.609C54.368,131.741,65.278,127.033,75.34,127.177z"/>
	</g>
	<g>
		<path fill="none" d="M61.291,73.061c0.057,0.35,0.109,0.701,0.152,1.053C61.399,73.762,61.348,73.411,61.291,73.061z"/>
		<path fill="none" d="M61.631,77.714c-0.009,0.344-0.026,0.687-0.051,1.03C61.605,78.401,61.622,78.057,61.631,77.714z"/>
		<path fill="none" d="M60.806,70.72c0.091,0.363,0.174,0.728,0.251,1.094C60.981,71.448,60.897,71.083,60.806,70.72z"/>
		<path fill="none" d="M61.08,71.927c0.065,0.316,0.124,0.633,0.179,0.95C61.205,72.56,61.145,72.243,61.08,71.927z"/>
		<path fill="none" d="M61.571,75.431c0.025,0.348,0.046,0.698,0.058,1.049C61.617,76.128,61.596,75.779,61.571,75.431z"/>
		<path fill="none" d="M61.457,74.244c0.036,0.304,0.066,0.609,0.092,0.915C61.524,74.853,61.493,74.548,61.457,74.244z"/>
		<path fill="none" d="M60.511,69.628c0.104,0.361,0.203,0.723,0.294,1.087C60.714,70.351,60.615,69.989,60.511,69.628z"/>
		<path fill="none" d="M54.234,56.774c0.261,0.398,0.519,0.799,0.773,1.201C54.753,57.573,54.496,57.172,54.234,56.774z"/>
		<path fill="none" d="M30.496,49.688c0.115,0.986,0.194,1.976,0.238,2.967c0.208-0.102,0.413-0.213,0.615-0.333
			C30.939,51.5,30.641,50.629,30.496,49.688z"/>
		<path fill="none" d="M59.776,67.381c0.265,0.724,0.505,1.455,0.72,2.192C60.282,68.836,60.041,68.105,59.776,67.381z"/>
		<path fill="none" d="M30.496,49.688c-0.025-0.213-0.048-0.427-0.076-0.639C30.437,49.265,30.464,49.477,30.496,49.688z"/>
		<path fill="none" d="M55.072,58.077c0.247,0.393,0.49,0.788,0.729,1.186C55.562,58.865,55.319,58.469,55.072,58.077z"/>
		<path fill="none" d="M56.625,60.673c1.228,2.17,2.31,4.406,3.151,6.708C58.935,65.079,57.854,62.843,56.625,60.673z"/>
		<path fill="none" d="M55.871,59.378c0.241,0.402,0.477,0.807,0.708,1.214C56.348,60.185,56.112,59.781,55.871,59.378z"/>
		<path fill="none" d="M61.628,76.479c0.011,0.356,0.011,0.712,0.005,1.068C61.639,77.191,61.64,76.835,61.628,76.479z"/>
		<path fill="none" d="M61.45,80.023c-0.049,0.37-0.106,0.739-0.173,1.106C61.344,80.762,61.402,80.394,61.45,80.023z"/>
		<path fill="none" d="M61.023,82.329c-0.088,0.366-0.185,0.73-0.291,1.091C60.838,83.058,60.935,82.695,61.023,82.329z"/>
		<path fill="none" d="M61.273,81.152c-0.068,0.368-0.146,0.733-0.232,1.097C61.127,81.885,61.206,81.52,61.273,81.152z"/>
		<path fill="none" d="M61.567,78.914c-0.028,0.354-0.064,0.707-0.109,1.059C61.503,79.621,61.538,79.268,61.567,78.914z"/>
		<path fill="none" d="M59.948,85.634c0.298-0.719,0.558-1.454,0.779-2.2C60.506,84.18,60.246,84.915,59.948,85.634L59.948,85.634z"
			/>
		<path fill="#9D1F60" d="M59.788,89.064c0.013-1.156,0.08-2.298,0.16-3.429c-0.201,0.485-0.418,0.965-0.654,1.434
			c0.236-0.47,0.453-0.949,0.654-1.434v0c0.298-0.719,0.558-1.454,0.779-2.2c0.001-0.005,0.003-0.01,0.004-0.014
			c0.107-0.361,0.203-0.725,0.291-1.091c0.006-0.026,0.013-0.053,0.019-0.079c0.086-0.364,0.164-0.73,0.232-1.097
			c0.001-0.007,0.003-0.015,0.004-0.022c0.067-0.367,0.125-0.736,0.173-1.106c0.002-0.017,0.005-0.034,0.007-0.05
			c0.045-0.352,0.081-0.705,0.109-1.059c0.005-0.057,0.009-0.113,0.013-0.17c0.025-0.343,0.042-0.686,0.051-1.03
			c0.001-0.056,0.002-0.111,0.003-0.167c0.006-0.356,0.006-0.712-0.005-1.068c-0.011-0.351-0.032-0.7-0.058-1.049
			c-0.007-0.091-0.014-0.181-0.022-0.272c-0.026-0.306-0.056-0.611-0.092-0.915c-0.005-0.043-0.009-0.086-0.014-0.129
			c-0.044-0.353-0.095-0.704-0.152-1.053c-0.01-0.061-0.021-0.122-0.031-0.183c-0.054-0.318-0.113-0.635-0.179-0.95
			c-0.008-0.038-0.015-0.076-0.023-0.113c-0.077-0.366-0.16-0.731-0.251-1.094c0-0.002-0.001-0.003-0.001-0.005
			c-0.091-0.364-0.189-0.726-0.294-1.087c-0.005-0.018-0.01-0.036-0.016-0.055c-0.214-0.737-0.455-1.468-0.72-2.192l0,0
			c-0.841-2.302-1.923-4.538-3.151-6.708c-0.015-0.027-0.03-0.054-0.046-0.081c-0.231-0.407-0.468-0.812-0.708-1.214
			c-0.023-0.039-0.046-0.077-0.07-0.116c-0.239-0.397-0.482-0.793-0.729-1.186c-0.021-0.034-0.043-0.067-0.064-0.101
			c-0.254-0.403-0.512-0.803-0.773-1.201l0,0c-0.67-0.187-1.339-0.359-1.995-0.521c-0.062-0.015-0.123-0.03-0.185-0.045
			c0.719,6.25-0.809,12.278-4.114,17.895c-2.243-4.683-5.81-8.573-8.959-12.702c-2.424-3.179-5.956-5.717-7.633-9.079
			c-0.202,0.12-0.407,0.23-0.615,0.333c0.376,8.586-1.905,17.277-6.429,24.584c1.229,4.942,3.079,9.496,5.359,13.651
			C39.53,88.728,49.732,88.111,59.788,89.064z"/>
		<g>
			<defs>
				<path id="SVGID_1_" d="M59.788,89.064c0.013-1.156,0.08-2.298,0.16-3.429c-0.201,0.485-0.418,0.965-0.654,1.434
					c0.236-0.47,0.453-0.949,0.654-1.434v0c0.298-0.719,0.558-1.454,0.779-2.2c0.001-0.005,0.003-0.01,0.004-0.014
					c0.107-0.361,0.203-0.725,0.291-1.091c0.006-0.026,0.013-0.053,0.019-0.079c0.086-0.364,0.164-0.73,0.232-1.097
					c0.001-0.007,0.003-0.015,0.004-0.022c0.067-0.367,0.125-0.736,0.173-1.106c0.002-0.017,0.005-0.034,0.007-0.05
					c0.045-0.352,0.081-0.705,0.109-1.059c0.005-0.057,0.009-0.113,0.013-0.17c0.025-0.343,0.042-0.686,0.051-1.03
					c0.001-0.056,0.002-0.111,0.003-0.167c0.006-0.356,0.006-0.712-0.005-1.068c-0.011-0.351-0.032-0.7-0.058-1.049
					c-0.007-0.091-0.014-0.181-0.022-0.272c-0.026-0.306-0.056-0.611-0.092-0.915c-0.005-0.043-0.009-0.086-0.014-0.129
					c-0.044-0.353-0.095-0.704-0.152-1.053c-0.01-0.061-0.021-0.122-0.031-0.183c-0.054-0.318-0.113-0.635-0.179-0.95
					c-0.008-0.038-0.015-0.076-0.023-0.113c-0.077-0.366-0.16-0.731-0.251-1.094c0-0.002-0.001-0.003-0.001-0.005
					c-0.091-0.364-0.189-0.726-0.294-1.087c-0.005-0.018-0.01-0.036-0.016-0.055c-0.214-0.737-0.455-1.468-0.72-2.192l0,0
					c-0.841-2.302-1.923-4.538-3.151-6.708c-0.015-0.027-0.03-0.054-0.046-0.081c-0.231-0.407-0.468-0.812-0.708-1.214
					c-0.023-0.039-0.046-0.077-0.07-0.116c-0.239-0.397-0.482-0.793-0.729-1.186c-0.021-0.034-0.043-0.067-0.064-0.101
					c-0.254-0.403-0.512-0.803-0.773-1.201l0,0c-0.67-0.187-1.339-0.359-1.995-0.521c-0.062-0.015-0.123-0.03-0.185-0.045
					c0.719,6.25-0.809,12.278-4.114,17.895c-2.243-4.683-5.81-8.573-8.959-12.702c-2.424-3.179-5.956-5.717-7.633-9.079
					c-0.202,0.12-0.407,0.23-0.615,0.333c0.376,8.586-1.905,17.277-6.429,24.584c1.229,4.942,3.079,9.496,5.359,13.651
					C39.53,88.728,49.732,88.111,59.788,89.064z"/>
			</defs>
			<clipPath id="SVGID_2_">
				<use xlink:href="#SVGID_1_"  overflow="visible"/>
			</clipPath>
			<g clip-path="url(#SVGID_2_)">
				<polyline fill="none" stroke="#DD4C4C" stroke-width="1.1029" stroke-miterlimit="10" points="25.72,70.326 28.812,73.356 
					30.265,69.278 33.204,72.457 34.857,68.455 37.636,71.775 39.482,67.859 42.096,71.311 44.131,67.489 46.574,71.064 
					48.792,67.346 51.058,71.035 53.454,67.429 55.539,71.223 58.107,67.738 60.004,71.63 62.74,68.274 64.444,72.254 
					67.342,69.036 68.848,73.096 71.901,70.026 				"/>
			</g>
			<g clip-path="url(#SVGID_2_)">
				<polyline fill="none" stroke="#DD4C4C" stroke-width="1.1029" stroke-miterlimit="10" points="25.72,62.969 28.812,65.999 
					30.265,61.92 33.204,65.1 34.857,61.098 37.636,64.418 39.482,60.502 42.096,63.954 44.131,60.132 46.574,63.707 48.792,59.989 
					51.058,63.678 53.454,60.072 55.539,63.866 58.107,60.381 60.004,64.272 62.74,60.917 64.444,64.897 67.342,61.679 
					68.848,65.738 71.901,62.669 				"/>
			</g>
			<g clip-path="url(#SVGID_2_)">
				<polyline fill="none" stroke="#DD4C4C" stroke-width="1.1029" stroke-miterlimit="10" points="25.845,78.024 28.745,81.238 
					30.383,77.23 33.219,80.5 34.944,76.53 37.696,79.871 39.531,75.951 42.173,79.379 44.149,75.527 46.655,79.056 48.793,75.293 
					51.132,78.933 53.451,75.281 55.596,79.038 58.109,75.516 60.042,79.386 62.748,76.011 64.463,79.983 67.349,76.761 
					68.85,80.82 71.901,77.751 				"/>
			</g>
			<g clip-path="url(#SVGID_2_)">
				<polyline fill="none" stroke="#DD4C4C" stroke-width="1.1029" stroke-miterlimit="10" points="25.884,85.374 28.727,88.639 
					30.405,84.645 33.244,87.915 34.938,83.929 37.752,87.22 39.485,83.252 42.244,86.585 44.056,82.654 46.731,86.057 
					48.675,82.189 51.205,85.7 53.335,81.933 55.654,85.584 58.021,81.963 60.079,85.767 62.701,82.327 64.479,86.271 
					67.332,83.023 68.852,87.076 71.901,84.004 				"/>
			</g>
		</g>
	</g>
	<g>
		<path fill="#AA8676" d="M52.24,56.253c10.448,12.668,10.359,18.246,10.965,29.994c1.299,25.168,3.864,53.936,5.556,65.737
			c1.21-2.754,12.587-4.735,15.561-5.18c-3.604-17.09-15.523-52.4-20.032-69.219c-3.541-13.207-5.794-17.6-8.899-21.166
			C54.367,55.589,53.092,55.723,52.24,56.253z"/>
		
			<line fill="none" stroke="#AA8676" stroke-width="0.3676" stroke-miterlimit="10" x1="75.776" y1="148.334" x2="77.753" y2="162.724"/>
		
			<line fill="none" stroke="#AA8676" stroke-width="0.3676" stroke-miterlimit="10" x1="83.33" y1="144.617" x2="86.733" y2="160.293"/>
		
			<line fill="none" stroke="#AA8676" stroke-width="0.3676" stroke-miterlimit="10" x1="81.814" y1="144.57" x2="85.217" y2="160.245"/>
		
			<line fill="none" stroke="#AA8676" stroke-width="0.3676" stroke-miterlimit="10" x1="80.735" y1="144.804" x2="84.139" y2="160.48"/>
		
			<line fill="none" stroke="#AA8676" stroke-width="0.3676" stroke-miterlimit="10" x1="77.285" y1="146.682" x2="79.472" y2="161.974"/>
		
			<line fill="none" stroke="#AA8676" stroke-width="0.3676" stroke-miterlimit="10" x1="79.241" y1="146.856" x2="81.082" y2="161.143"/>
		
			<line fill="none" stroke="#AA8676" stroke-width="0.3676" stroke-miterlimit="10" x1="80.071" y1="146.649" x2="83.128" y2="160.726"/>
	</g>
	<path fill="#F5D2B9" d="M94.121,272.402c-1.775-0.619-4.006-2.433-4.967-4.048c-3.739-6.277-6.903-7.189-8.108-14.584
		c-2.715-16.659,1.954-34.245-2.038-50.644c-0.995-4.085-0.209-8.967-1.232-13.045c2.312-16.713,1.822-44.464-2.434-62.904
		c-10.062-0.143-20.972,4.564-23.961,13.738c0.976-0.416,1.668-0.379,2.937,0.37l0.621,0.26c0.932,3.745,0.853,6.88,1.02,10.735
		c0.45,10.383,6.111,23.885,7.532,34.18c0.488,3.538,3.796,11.671,4.586,15.153c1.388,6.114-2.522,11.484-2.105,19.997
		c0.524,10.702,6.46,23.073,8.718,33.547c0,0-4.936,6.343-4.153,10.513c2.476,1.851,7.347,2.892,9.275,5.309
		c6.909,8.659,15.26,7.47,18.058,4.783C97.133,273.791,96.263,273.15,94.121,272.402z"/>
	<path fill="#C2CBCE" d="M76.338,132.031c-0.098-0.539-0.2-1.072-0.304-1.6c-0.013-0.067-0.027-0.133-0.04-0.2
		c-0.088-0.442-0.178-0.878-0.269-1.311c-0.022-0.104-0.044-0.209-0.067-0.313c-0.097-0.45-0.196-0.896-0.297-1.336
		c-0.01-0.042-0.019-0.084-0.028-0.126c-0.114-0.494-0.231-0.98-0.351-1.46c-0.015-0.06-0.03-0.118-0.045-0.177
		c-0.101-0.403-0.205-0.801-0.31-1.193c-0.029-0.108-0.058-0.216-0.088-0.324c-0.103-0.378-0.208-0.751-0.315-1.119
		c-0.021-0.071-0.041-0.143-0.061-0.213c-0.129-0.439-0.261-0.871-0.395-1.295c-0.017-0.054-0.035-0.106-0.052-0.16
		c-0.115-0.358-0.231-0.709-0.35-1.055c-0.037-0.107-0.074-0.214-0.111-0.32c-0.109-0.311-0.22-0.617-0.332-0.919
		c-0.032-0.086-0.064-0.174-0.096-0.26c-0.144-0.379-0.29-0.751-0.439-1.112c-0.018-0.044-0.037-0.086-0.055-0.129
		c-0.13-0.311-0.262-0.615-0.395-0.913c-0.045-0.1-0.09-0.197-0.135-0.295c-0.116-0.251-0.233-0.497-0.352-0.738
		c-0.043-0.088-0.086-0.176-0.13-0.263c-0.159-0.315-0.321-0.623-0.485-0.919c-0.015-0.026-0.03-0.051-0.044-0.077
		c-0.15-0.267-0.302-0.524-0.456-0.775c-0.052-0.084-0.104-0.165-0.156-0.247c-0.125-0.197-0.252-0.388-0.38-0.574
		c-0.052-0.076-0.104-0.153-0.157-0.226c-0.176-0.247-0.354-0.488-0.536-0.714c-0.101-0.126-0.207-0.256-0.315-0.389
		c-0.234-0.288-0.486-0.595-0.751-0.921c-0.002-0.002-0.003-0.004-0.005-0.006c-0.122-0.151-0.247-0.306-0.375-0.465
		c-0.013-0.016-0.026-0.032-0.039-0.049c-0.118-0.148-0.238-0.299-0.36-0.454c-0.02-0.025-0.039-0.049-0.059-0.074
		c-0.117-0.149-0.235-0.301-0.354-0.457c-0.024-0.031-0.048-0.062-0.072-0.094c-0.117-0.153-0.234-0.309-0.352-0.468
		c-0.027-0.036-0.053-0.07-0.08-0.106c-0.117-0.158-0.235-0.321-0.353-0.485c-0.98-1.364-1.257-3.682-2.163-5.514
		c-9.22,2.78-20.374,4.016-29.997,3.652c-0.262,1.629-0.027,3.967-0.786,5.485c-0.133,0.265-0.267,0.533-0.4,0.799
		c-0.159,0.318-0.319,0.637-0.478,0.956c-0.098,0.195-0.195,0.39-0.293,0.586c-0.105,0.211-0.21,0.423-0.315,0.635
		c-0.09,0.182-0.181,0.363-0.271,0.545c-0.106,0.214-0.21,0.428-0.315,0.642c-0.088,0.18-0.177,0.359-0.264,0.539
		c-0.104,0.215-0.207,0.43-0.31,0.645c-0.086,0.18-0.174,0.359-0.259,0.539c-0.096,0.203-0.19,0.406-0.286,0.609
		c-0.09,0.192-0.181,0.384-0.27,0.576c-0.097,0.21-0.191,0.42-0.286,0.63c-0.083,0.184-0.168,0.368-0.25,0.551
		c-0.1,0.225-0.196,0.449-0.294,0.673c-0.073,0.168-0.149,0.337-0.22,0.505c-0.098,0.229-0.191,0.458-0.285,0.686
		c-0.067,0.162-0.137,0.325-0.202,0.487c-0.085,0.21-0.164,0.419-0.246,0.629c-0.07,0.18-0.143,0.36-0.211,0.539
		c-0.072,0.19-0.138,0.379-0.207,0.568c-0.072,0.196-0.146,0.393-0.214,0.589c-0.071,0.203-0.135,0.404-0.202,0.606
		c-0.06,0.18-0.123,0.36-0.179,0.539c-0.071,0.223-0.133,0.445-0.199,0.667c-0.046,0.155-0.096,0.312-0.139,0.467
		c-0.06,0.216-0.112,0.429-0.167,0.643c-0.041,0.159-0.086,0.319-0.123,0.476c-0.048,0.203-0.087,0.404-0.13,0.606
		c-0.035,0.165-0.075,0.332-0.107,0.497c-0.07,0.364-0.13,0.726-0.181,1.084c-0.113,0.808-0.232,1.603-0.355,2.389
		c-0.07,0.448-0.143,0.886-0.215,1.327c-0.052,0.318-0.103,0.64-0.156,0.955c-0.103,0.613-0.21,1.216-0.317,1.817
		c-0.022,0.121-0.043,0.245-0.064,0.366c-0.127,0.706-0.256,1.404-0.386,2.097c0,0.001,0,0.002-0.001,0.003
		c2.973-0.829,6.118-1.041,9.166-0.554c5.672,0.905,10.697,4.013,15.517,7.171c0.095-0.336,0.19-0.665,0.286-0.988
		c0.009-0.03,0.018-0.06,0.027-0.09c0.098-0.326,0.196-0.646,0.296-0.957c0.004-0.013,0.008-0.026,0.013-0.039
		c0.089-0.276,0.178-0.544,0.269-0.807c0.023-0.067,0.046-0.134,0.069-0.2c0.097-0.275,0.194-0.546,0.293-0.806
		c1.754-0.964,2.41-1.256,4.133-0.238l0.621,0.26c0.1,0.402,0.186,0.796,0.265,1.185c0.004,0.02,0.008,0.04,0.012,0.06
		c0.078,0.395,0.146,0.784,0.206,1.17C61.413,138.523,68.608,134.419,76.338,132.031C76.338,132.032,76.338,132.031,76.338,132.031z
		"/>
	<path fill="#A75B26" d="M51.616,14.144c3.516-0.164,6.951,2.498,7.67,5.944c0.928,4.449-2.224,9.287-0.4,13.45
		c-0.905-1.353-0.961-3.166-0.223-4.616c0.738-1.45,1.835-2.703,2.496-4.19c1.342-3.015,0.576-6.838-1.823-9.104
		C56.937,13.363,54.549,12.632,51.616,14.144z"/>
	<g>
		<g>
			<path fill="#C2CBCE" d="M59.671,46.889c-2.044-1.986-4.433-3.564-7.035-4.509c-0.902,1.791-0.005,4.034,1.436,5.429
				c0.689,0.667,1.483,1.2,2.307,1.693c1.207,0.06,2.415,0.119,3.622,0.179C59.85,48.742,59.76,47.815,59.671,46.889z"/>
			<path fill="#FFFAEE" d="M60.002,49.68c-1.207-0.06-2.415-0.119-3.622-0.179c0.898,0.537,1.834,1.027,2.718,1.586
				c3.435,2.174,6.115,5.517,7.49,9.343c-0.631-4.985-3.205-9.937-6.916-13.541C59.76,47.815,59.85,48.742,60.002,49.68z"/>
		</g>
		<g>
			<circle fill="none" stroke="#FDB734" stroke-width="0.3616" stroke-miterlimit="10" cx="49.487" cy="38.459" r="3.486"/>
			<circle fill="#DA92BF" cx="52.689" cy="42.284" r="0.804"/>
		</g>
	</g>
	<g>
		<path fill="#F5D2B9" d="M41.799,37.453c1.06,4.379,11.468,6.815,12.537,6.9c1.069,0.086,1.829-0.245,2.493-1.087
			c0.465-0.59,0.481-1.212,0.393-2.207c-0.044-0.497,0.577-1.346,1.024-1.569c0.028-0.014,1.267-1.263-0.398-2.146
			c0.771-0.388,1.651-0.165,1.479-1.585c-0.312-0.381-0.261-1.857-0.261-1.857c1.407-0.22,2.197-0.864,2.197-1.967
			c-2.437-1.802-4.784-4.189-3.83-7.065c1.304-3.931,0.625-8.591-2.284-11.539c-3.56,0.794-7.557,1.455-9.758,4.363
			c-2.201,2.908-1.745,6.951-3.485,10.968c0.024-1.226-3.835-4.843-4.892-1.17c-0.339,1.179-0.131,3.58,0.637,4.536
			c0.768,0.956,1.959,1.884,3.178,2.021C40.828,34.05,41.143,34.746,41.799,37.453z"/>
	</g>
	<g>
		<path fill="#F5D2B9" d="M24.247,138.793c0-0.001,0-0.002,0.001-0.003c-1.774,9.423-3.801,17.635-4.268,26.597
			c-0.607,11.651,2.111,27.434-1.809,38.718c-2.953,8.499-7.955,17.175-7.555,26.164c0.345,7.739,1.793,16.582,2.137,24.322
			c0.4,8.99-4.253,15.507-4.089,24.504c0.024,1.303,1.76,2.471,2.848,3.188c1.089,0.717,2.44,0.965,3.74,0.879
			c1.301-0.085,5.254-1.14,5.242-2.444c-0.048-5.276-2.72-11.143-1.838-18.462c0.209-1.739,0.168-3.091,0.191-4.842l0.157-0.625
			c-0.347-6.428,1.914-13.897,3.429-20.153c2.202-9.094,4.036-21.13,6.238-30.224c7.901-16.554,9.344-25.919,14.05-38.315
			c2.805-7.388,4.385-16.22,6.206-22.688c-4.82-3.158-9.845-6.265-15.517-7.171C30.365,137.753,27.22,137.965,24.247,138.793z"/>
	</g>
	<g>
		<g>
			<path fill="#C2CBCE" d="M24.4,138.805c0,0-0.066,0.105-0.197,0.261c-0.121,0.162-0.357,0.343-0.578,0.571
				c-0.119,0.105-0.244,0.222-0.397,0.319c-0.163,0.094-0.336,0.192-0.514,0.295c-0.395,0.176-0.665,0.541-0.869,0.932
				c-0.089,0.207-0.17,0.414-0.278,0.595c-0.113,0.178-0.196,0.37-0.283,0.551c-0.189,0.352-0.367,0.674-0.546,0.947
				c-0.192,0.266-0.323,0.507-0.446,0.667c-0.121,0.161-0.204,0.253-0.204,0.253l-0.071-0.021c0,0-0.01-0.118-0.004-0.324
				c0.022-0.199,0.014-0.507,0.123-0.836c0.052-0.165,0.109-0.346,0.185-0.53c0.063-0.191,0.189-0.362,0.307-0.544
				c0.234-0.365,0.543-0.716,0.903-1.009c0.185-0.143,0.37-0.279,0.513-0.447c0.143-0.169,0.285-0.333,0.399-0.522
				c0.129-0.174,0.223-0.376,0.378-0.506c0.149-0.136,0.311-0.239,0.455-0.337c0.295-0.196,0.566-0.256,0.764-0.315
				c0.198-0.049,0.321-0.061,0.321-0.061L24.4,138.805z"/>
		</g>
		<g>
			<path fill="#C2CBCE" d="M26.854,138.45c0,0-0.063,0.117-0.193,0.295c-0.109,0.188-0.377,0.392-0.555,0.675
				c-0.104,0.131-0.211,0.274-0.352,0.402c-0.147,0.121-0.29,0.282-0.454,0.434c-0.165,0.154-0.334,0.324-0.411,0.547
				c-0.098,0.212-0.149,0.449-0.201,0.677c-0.013,0.243-0.017,0.48-0.057,0.701c-0.053,0.22-0.041,0.444-0.046,0.656
				c0.004,0.212-0.045,0.415-0.037,0.608c0.005,0.193-0.007,0.377-0.018,0.55c-0.049,0.349,0.007,0.634-0.014,0.852
				c-0.01,0.216-0.026,0.35-0.026,0.35l-0.069,0.024c0,0-0.075-0.101-0.187-0.294c-0.06-0.096-0.113-0.22-0.185-0.362
				c-0.08-0.141-0.14-0.308-0.171-0.497c-0.035-0.189-0.074-0.396-0.097-0.617c-0.042-0.221,0.018-0.454,0.046-0.692
				c0.045-0.237,0.068-0.485,0.169-0.719c0.081-0.238,0.201-0.468,0.311-0.692c0.142-0.214,0.286-0.419,0.38-0.642
				c0.087-0.227,0.203-0.433,0.279-0.662c0.099-0.215,0.141-0.462,0.292-0.633c0.14-0.178,0.297-0.325,0.438-0.461
				c0.143-0.14,0.283-0.232,0.421-0.291c0.133-0.069,0.254-0.121,0.358-0.159c0.206-0.078,0.335-0.108,0.335-0.108L26.854,138.45z"
				/>
		</g>
		<g>
			<path fill="#C2CBCE" d="M29.519,137.503c0,0-0.03,0.149-0.109,0.394c-0.063,0.246-0.254,0.574-0.363,0.962
				c-0.131,0.383-0.354,0.789-0.61,1.264c-0.137,0.231-0.253,0.483-0.294,0.759c-0.06,0.271-0.07,0.556-0.08,0.836
				c0.02,0.286,0.048,0.568,0.037,0.839c-0.018,0.272,0.003,0.54,0.021,0.797c0.019,0.257,0.007,0.506,0.009,0.741
				c0.016,0.234,0.014,0.457,0.013,0.665c-0.029,0.421,0.015,0.762,0.004,1.017c-0.006,0.253-0.02,0.406-0.02,0.406l-0.07,0.021
				c0,0-0.078-0.124-0.194-0.356c-0.062-0.115-0.117-0.261-0.191-0.428c-0.085-0.166-0.133-0.362-0.18-0.577
				c-0.045-0.216-0.093-0.452-0.128-0.704c-0.037-0.251-0.017-0.519-0.006-0.794c0.012-0.551,0.133-1.131,0.305-1.69
				c0.1-0.277,0.207-0.548,0.259-0.825c0.05-0.278,0.104-0.55,0.134-0.825c0.044-0.271,0.048-0.547,0.131-0.789
				c0.091-0.242,0.207-0.459,0.309-0.658c0.2-0.412,0.472-0.639,0.65-0.827c0.186-0.177,0.307-0.268,0.307-0.268L29.519,137.503z"/>
		</g>
		<g>
			<path fill="#C2CBCE" d="M33.853,137.953c0,0,0.041,0.122,0.08,0.331c0.033,0.212,0.085,0.499,0.041,0.861
				c-0.023,0.179-0.043,0.375-0.098,0.575c-0.052,0.201-0.18,0.39-0.275,0.593c-0.112,0.199-0.195,0.41-0.27,0.628
				c-0.077,0.217-0.105,0.455-0.139,0.694c-0.07,0.478-0.214,0.938-0.4,1.348c-0.091,0.206-0.176,0.407-0.298,0.576
				c-0.116,0.172-0.239,0.326-0.352,0.467c-0.22,0.286-0.487,0.463-0.646,0.6c-0.173,0.127-0.28,0.189-0.28,0.189l-0.056-0.047
				c0,0,0.033-0.124,0.104-0.322c0.07-0.199,0.203-0.452,0.326-0.775c0.14-0.312,0.315-0.66,0.521-1.029
				c0.112-0.18,0.229-0.366,0.328-0.567c0.102-0.199,0.242-0.387,0.375-0.581c0.244-0.397,0.427-0.832,0.403-1.283
				c0.002-0.446,0.032-0.834,0.138-1.157c0.106-0.32,0.177-0.617,0.271-0.807c0.086-0.195,0.153-0.304,0.153-0.304L33.853,137.953z"
				/>
		</g>
		<g>
			<path fill="#C2CBCE" d="M35.019,142.69c0,0-0.063-0.362,0.078-0.783c0.04-0.103,0.077-0.217,0.147-0.322
				c0.068-0.106,0.184-0.194,0.284-0.297c0.229-0.189,0.345-0.458,0.376-0.772c0.021-0.321,0.133-0.596,0.223-0.861
				c0.095-0.263,0.241-0.478,0.38-0.652c0.287-0.344,0.575-0.511,0.575-0.511l0.063,0.038c0,0,0.03,0.358-0.07,0.8
				c-0.054,0.219-0.135,0.463-0.281,0.692c-0.151,0.226-0.296,0.476-0.534,0.68c-0.227,0.211-0.369,0.466-0.382,0.769
				c-0.021,0.144-0.021,0.293-0.064,0.412c-0.041,0.12-0.108,0.219-0.165,0.313c-0.246,0.366-0.566,0.528-0.566,0.528L35.019,142.69
				z"/>
		</g>
		<g>
			<path fill="#C2CBCE" d="M39.443,139.406c0,0,0.009,0.093-0.002,0.239c-0.006,0.145-0.069,0.346-0.099,0.547
				c-0.038,0.2-0.154,0.406-0.34,0.646c-0.206,0.229-0.227,0.541-0.179,0.844c0.032,0.154,0.072,0.305,0.074,0.449
				c0.001,0.144,0.012,0.284,0.027,0.42c0.013,0.271-0.015,0.517-0.047,0.735c-0.082,0.431-0.179,0.757-0.196,0.762l-0.072,0.016
				c0,0-0.059-0.064-0.141-0.188c-0.072-0.124-0.192-0.312-0.246-0.546c-0.066-0.235-0.109-0.516-0.06-0.811
				c0.035-0.296,0.11-0.606,0.262-0.897c0.072-0.146,0.15-0.287,0.174-0.435c0.028-0.148,0.034-0.298,0.021-0.453
				c-0.003-0.152-0.027-0.308-0.001-0.444c0.038-0.139,0.105-0.26,0.161-0.371c0.119-0.229,0.274-0.341,0.393-0.428
				c0.12-0.083,0.205-0.121,0.205-0.121L39.443,139.406z"/>
		</g>
		<g>
			<path fill="#C2CBCE" d="M42.435,141.029c0,0,0.213,0.387,0.268,0.966c0.009,0.145,0.024,0.302,0.006,0.467
				c-0.016,0.166-0.083,0.34-0.129,0.52c-0.125,0.361-0.113,0.746-0.006,1.133c0.12,0.387,0.138,0.772,0.17,1.134
				c0.028,0.362-0.011,0.699-0.061,0.988c-0.111,0.578-0.299,0.962-0.299,0.962l-0.074-0.001c0,0-0.182-0.387-0.283-0.966
				c-0.046-0.29-0.078-0.627-0.045-0.989c0.039-0.361,0.062-0.747,0.189-1.131c0.114-0.385,0.132-0.77,0.012-1.133
				c-0.043-0.181-0.107-0.356-0.12-0.522c-0.015-0.166,0.003-0.322,0.014-0.467c0.064-0.578,0.283-0.962,0.283-0.962L42.435,141.029
				z"/>
		</g>
		<g>
			<path fill="#C2CBCE" d="M45.619,143.078c0,0,0.142,0.361,0.098,0.835c-0.016,0.117-0.027,0.246-0.072,0.374
				c-0.043,0.128-0.137,0.25-0.211,0.383c-0.182,0.256-0.234,0.566-0.194,0.901c0.052,0.337,0.005,0.649-0.024,0.945
				c-0.034,0.295-0.127,0.554-0.224,0.772c-0.204,0.433-0.45,0.692-0.45,0.692l-0.071-0.019c0,0-0.112-0.353-0.114-0.839
				c0.004-0.242,0.029-0.519,0.121-0.798c0.098-0.278,0.185-0.579,0.371-0.855c0.174-0.278,0.256-0.581,0.201-0.899
				c-0.012-0.155-0.044-0.31-0.029-0.445c0.013-0.136,0.056-0.256,0.091-0.368c0.158-0.445,0.435-0.696,0.435-0.696L45.619,143.078z
				"/>
		</g>
		<g>
			<path fill="#C2CBCE" d="M45.389,152.594c0.157-0.334,0.332-0.659,0.51-0.974c0.137-0.329,0.261-0.653,0.403-0.965
				c0.1-0.339,0.224-0.666,0.333-0.997c0.08-0.341,0.173-0.678,0.291-1.013l0.245-1.039c0.05-0.352,0.075-0.712,0.084-1.07
				c-0.028-0.357-0.09-0.711-0.14-1.063c-0.107-0.342-0.224-0.678-0.34-1.009l-0.341-0.973l0.746,0.748
				c0.481,0.482,0.904,1.019,1.284,1.582l0.542,0.866c0.148,0.308,0.31,0.609,0.445,0.923c0.124,0.319,0.237,0.645,0.337,0.973
				c0.096,0.329,0.145,0.677,0.218,1.011c0.045,0.165,0.028,0.346,0.036,0.519l0.008,0.518c0.018,0.17-0.057,0.345-0.082,0.513
				c-0.036,0.169-0.074,0.335-0.118,0.496l-0.072-0.015l-0.04-0.498c-0.02-0.163-0.003-0.32-0.049-0.479
				c-0.082-0.317-0.126-0.63-0.233-0.934c-0.11-0.304-0.192-0.612-0.322-0.906c-0.143-0.291-0.255-0.591-0.39-0.883
				c-0.288-0.578-0.567-1.159-0.884-1.728c-0.161-0.282-0.345-0.549-0.504-0.834c-0.174-0.274-0.365-0.536-0.536-0.817l0.405-0.225
				l0.17,1.107l0.087,1.101c-0.002,0.367,0.019,0.734,0.051,1.106l-0.035,1.12c-0.054,0.37-0.139,0.737-0.233,1.1
				c-0.135,0.351-0.278,0.699-0.433,1.04c-0.18,0.337-0.413,0.646-0.613,0.96c-0.235,0.28-0.501,0.533-0.77,0.786L45.389,152.594z"
				/>
		</g>
		<g>
			<path fill="#C2CBCE" d="M56.201,142.982c0,0,0.044,0.432-0.132,0.973c-0.048,0.133-0.096,0.28-0.177,0.421
				c-0.079,0.142-0.208,0.272-0.321,0.415c-0.256,0.273-0.395,0.624-0.448,1.013c-0.041,0.395-0.175,0.748-0.287,1.085
				c-0.116,0.335-0.283,0.622-0.441,0.861c-0.327,0.473-0.65,0.743-0.65,0.743l-0.067-0.03c0,0-0.015-0.42,0.118-0.98
				c0.071-0.278,0.173-0.594,0.345-0.904c0.176-0.308,0.349-0.645,0.615-0.939c0.254-0.299,0.422-0.638,0.454-1.011
				c0.031-0.18,0.041-0.362,0.094-0.516c0.051-0.155,0.128-0.288,0.195-0.413c0.284-0.493,0.635-0.749,0.635-0.749L56.201,142.982z"
				/>
		</g>
		<g>
			<path fill="#C2CBCE" d="M57.91,141.061c0,0,0.35,0.303,0.629,0.855c0.065,0.14,0.141,0.289,0.19,0.459
				c0.058,0.165,0.022,0.389,0.031,0.59c-0.025,0.421,0.082,0.81,0.288,1.201c0.161,0.396,0.222,0.817,0.294,1.209
				c0.026,0.197,0.072,0.388,0.038,0.57c-0.017,0.182-0.049,0.354-0.078,0.511c-0.136,0.631-0.339,1.019-0.339,1.019l-0.073-0.009
				c0,0-0.165-0.431-0.244-1.029c-0.015-0.15-0.032-0.311-0.032-0.481c0-0.17-0.037-0.348-0.032-0.534
				c0-0.373-0.016-0.769,0.069-1.19c0.017-0.406-0.065-0.816-0.267-1.143c-0.179-0.326-0.356-0.64-0.427-0.945
				c-0.168-0.595-0.116-1.055-0.116-1.055L57.91,141.061z"/>
		</g>
		<g>
			<path fill="#C2CBCE" d="M60.576,139.863c0,0,0.324,0.251,0.561,0.719c0.055,0.119,0.119,0.245,0.156,0.391
				c0.038,0.145,0.032,0.316,0.047,0.484c-0.001,0.348,0.134,0.669,0.359,0.957c0.237,0.283,0.377,0.602,0.524,0.895
				c0.142,0.295,0.215,0.593,0.261,0.854c0.082,0.526,0.03,0.916,0.03,0.916l-0.069,0.026c0,0-0.294-0.262-0.576-0.714
				c-0.136-0.228-0.275-0.501-0.36-0.817c-0.08-0.318-0.182-0.651-0.187-1.02c-0.017-0.365-0.124-0.696-0.353-0.959
				c-0.099-0.137-0.215-0.262-0.28-0.397c-0.067-0.134-0.101-0.273-0.137-0.398c-0.126-0.51-0.044-0.911-0.044-0.911L60.576,139.863
				z"/>
		</g>
		<g>
			<path fill="#C2CBCE" d="M62.471,138.102c0,0,0.255,0.189,0.378,0.521c0.026,0.084,0.06,0.174,0.062,0.275
				c0.004,0.101-0.041,0.216-0.064,0.332c-0.08,0.237-0.022,0.463,0.129,0.671c0.164,0.206,0.227,0.431,0.302,0.638
				c0.07,0.209,0.073,0.415,0.058,0.595c-0.04,0.362-0.179,0.625-0.179,0.625l-0.072,0.014c0,0-0.225-0.194-0.393-0.518
				c-0.079-0.163-0.152-0.356-0.162-0.576c-0.005-0.221-0.028-0.453,0.051-0.704c0.066-0.249,0.038-0.48-0.123-0.672
				c-0.064-0.099-0.148-0.19-0.18-0.286c-0.035-0.095-0.036-0.191-0.042-0.279c-0.006-0.354,0.164-0.622,0.164-0.622L62.471,138.102
				z"/>
		</g>
		<g>
			<path fill="#C2CBCE" d="M64.298,137.182c0,0,0.289,0.171,0.474,0.515c0.042,0.088,0.092,0.181,0.113,0.291
				c0.023,0.109,0,0.241-0.001,0.37c-0.035,0.268,0.065,0.506,0.255,0.712c0.202,0.202,0.307,0.438,0.421,0.654
				c0.109,0.218,0.151,0.442,0.17,0.64c0.028,0.4-0.06,0.704-0.06,0.704l-0.069,0.024c0,0-0.26-0.181-0.489-0.51
				c-0.109-0.166-0.218-0.367-0.269-0.605c-0.047-0.24-0.113-0.489-0.082-0.773c0.019-0.28-0.053-0.528-0.249-0.714
				c-0.082-0.099-0.183-0.187-0.233-0.287c-0.052-0.099-0.072-0.203-0.094-0.297c-0.073-0.384,0.046-0.699,0.046-0.699
				L64.298,137.182z"/>
		</g>
		<g>
			<path fill="#C2CBCE" d="M66.06,136.533c0,0,0.326,0.072,0.603,0.341c0.065,0.07,0.141,0.142,0.194,0.24
				c0.054,0.096,0.072,0.227,0.108,0.349c0.046,0.264,0.212,0.458,0.453,0.594c0.252,0.128,0.422,0.319,0.594,0.487
				c0.168,0.172,0.274,0.371,0.351,0.552c0.145,0.368,0.151,0.683,0.151,0.683l-0.059,0.044c0,0-0.301-0.091-0.616-0.331
				c-0.153-0.123-0.316-0.279-0.435-0.488c-0.115-0.212-0.252-0.427-0.307-0.704c-0.065-0.27-0.207-0.481-0.448-0.598
				c-0.107-0.068-0.229-0.121-0.307-0.199c-0.079-0.077-0.128-0.17-0.178-0.252c-0.183-0.34-0.164-0.673-0.164-0.673L66.06,136.533z
				"/>
		</g>
		<g>
			<path fill="#C2CBCE" d="M69.328,134.683c0,0,0.201,0.215,0.239,0.52c0.005,0.076,0.015,0.158-0.007,0.243
				c-0.021,0.085-0.092,0.171-0.143,0.261c-0.135,0.179-0.135,0.38-0.039,0.588c0.109,0.209,0.115,0.41,0.137,0.6
				c0.017,0.19-0.031,0.362-0.089,0.509c-0.127,0.292-0.326,0.479-0.326,0.479l-0.073-0.005c0,0-0.17-0.213-0.255-0.521
				c-0.037-0.153-0.06-0.331-0.016-0.516c0.049-0.185,0.084-0.383,0.221-0.575c0.125-0.192,0.154-0.391,0.045-0.587
				c-0.038-0.097-0.096-0.192-0.105-0.279c-0.01-0.087,0.012-0.167,0.027-0.241c0.081-0.296,0.311-0.48,0.311-0.48L69.328,134.683z"
				/>
		</g>
		<g>
			<path fill="#C2CBCE" d="M71.101,133.808c0,0,0.1-0.001,0.257,0.025c0.157,0.039,0.368,0.053,0.594,0.227
				c0.11,0.084,0.235,0.175,0.343,0.295c0.115,0.116,0.148,0.296,0.222,0.447c0.056,0.165,0.142,0.305,0.221,0.455
				c0.081,0.148,0.209,0.271,0.337,0.403c0.236,0.274,0.417,0.599,0.506,0.928c0.046,0.164,0.108,0.322,0.096,0.482
				c0.003,0.158-0.012,0.307-0.025,0.443c-0.012,0.136-0.044,0.258-0.096,0.364c-0.046,0.105-0.076,0.196-0.118,0.267
				c-0.076,0.143-0.132,0.217-0.132,0.217l-0.072-0.014c0,0-0.039-0.092-0.087-0.24c-0.053-0.148-0.07-0.347-0.151-0.576
				c-0.03-0.115-0.063-0.236-0.08-0.365c-0.018-0.129-0.066-0.26-0.077-0.404c-0.016-0.143-0.022-0.296-0.068-0.442
				c-0.039-0.147-0.044-0.314-0.058-0.485c-0.04-0.157-0.08-0.323-0.164-0.46c-0.068-0.147-0.204-0.246-0.342-0.328
				c-0.127-0.082-0.25-0.161-0.366-0.236c-0.106-0.072-0.182-0.165-0.257-0.249c-0.128-0.186-0.318-0.333-0.392-0.471
				c-0.089-0.132-0.13-0.223-0.13-0.223L71.101,133.808z"/>
		</g>
		<g>
			<path fill="#C2CBCE" d="M73.389,133.586c0,0,0.086-0.019,0.223-0.023c0.139,0.005,0.315-0.008,0.527,0.099
				c0.102,0.054,0.217,0.11,0.319,0.197c0.107,0.083,0.156,0.231,0.233,0.35c0.064,0.133,0.151,0.24,0.242,0.347
				c0.09,0.107,0.222,0.18,0.354,0.261c0.26,0.165,0.468,0.393,0.616,0.634c0.075,0.12,0.156,0.235,0.181,0.366
				c0.037,0.126,0.057,0.249,0.074,0.362c0.038,0.224-0.023,0.43-0.042,0.56c-0.033,0.135-0.066,0.209-0.066,0.209l-0.073,0.011
				c0,0-0.063-0.061-0.148-0.163c-0.087-0.102-0.17-0.251-0.294-0.412c-0.112-0.166-0.211-0.358-0.305-0.577
				c-0.04-0.113-0.076-0.235-0.137-0.347c-0.057-0.113-0.085-0.252-0.122-0.392c-0.093-0.262-0.261-0.5-0.54-0.559
				c-0.12-0.043-0.237-0.085-0.347-0.124c-0.097-0.044-0.171-0.112-0.243-0.173c-0.127-0.138-0.291-0.255-0.362-0.37
				c-0.082-0.109-0.121-0.189-0.121-0.189L73.389,133.586z"/>
		</g>
		<g>
			<path fill="#C2CBCE" d="M75.288,132.501c0,0,0.304-0.102,0.652-0.013c0.085,0.027,0.18,0.051,0.266,0.107
				c0.087,0.054,0.159,0.157,0.242,0.243c0.153,0.202,0.375,0.283,0.636,0.278c0.266-0.017,0.491,0.06,0.708,0.117
				c0.215,0.062,0.39,0.178,0.533,0.294c0.281,0.241,0.423,0.505,0.423,0.505l-0.03,0.067c0,0-0.291,0.073-0.658,0.027
				c-0.182-0.028-0.385-0.079-0.575-0.197c-0.188-0.122-0.396-0.237-0.562-0.445c-0.171-0.197-0.382-0.306-0.634-0.284
				c-0.119-0.004-0.244,0.012-0.343-0.016c-0.1-0.026-0.181-0.08-0.258-0.125c-0.3-0.198-0.429-0.491-0.429-0.491L75.288,132.501z"
				/>
		</g>
	</g>
	<path fill="#AA8676" d="M32.708,51.03c-2.331,17.407-5.668,88.811-4.414,106.329c-1.766-2.434-6.115-3.518-9.116-3.321
		c-0.104-17.466,2.989-55.46,6.248-72.565c3.225-4.443,2.452-19.217,4.394-28.636C30.645,51.808,32.708,51.03,32.708,51.03z"/>
	<g>
		<path fill="#F5D2B9" d="M28.957,53.771c-2.778-1.498-11.844,0.218-15.032,8.542c-0.364,0.951-1.899,4.9-3.77,9.923
			c3.111,1.334,6.119,2.907,8.989,4.702C23.034,68.43,27.261,59.676,28.957,53.771z"/>
		<path fill="#AA8676" d="M19.145,76.937c-2.87-1.795-5.878-3.368-8.989-4.702c-0.827,2.22-1.718,4.649-2.604,7.124
			c2.979,1.193,5.857,2.638,8.587,4.325C17.08,81.492,18.099,79.225,19.145,76.937z"/>
	</g>
	<path fill="#A75B26" d="M33.063,19.196c-3.262,3.397-3.87,8.607-3.151,13.262s2.56,9.061,3.552,13.665
		c0.992,4.604,1.028,9.737-1.583,13.657c3.302-3.608,4.411-8.018,4.523-12.907c0.112-4.889-0.767-9.742-1.113-14.621
		c-0.346-4.879-0.115-9.968,2.056-14.35C35.242,17.606,34.535,17.663,33.063,19.196z"/>
	<path fill="#A75B26" d="M35.751,17.999c-2.312,3.03-2.836,7.098-2.455,10.891s1.571,7.45,2.362,11.179
		c2.051,9.671,5.254,17.415-1.962,29.217c5.811-5.146,13.687-18.023,11.015-26.902c-3.443-11.44-4.305-17.438-5.671-26.609
		C37.28,15.618,36.824,16.593,35.751,17.999z"/>
	<path fill="#BC6628" d="M39.171,16.846c-0.368,5.203,1.493,10.267,2.557,15.373c1.063,5.107,1.166,10.935-2.141,14.969
		c3.145-3.466,4.466-7.556,4.923-12.214c0.457-4.658-0.082-9.349-0.62-13.999c-0.258-2.233-0.517-4.466-0.775-6.698
		C41.031,14.144,39.319,14.762,39.171,16.846z"/>
	<path fill="#BC6628" d="M55.937,13.022c1.755,0.328,0.117,2.976-1.164,5.318c-1.282,2.342-5.222,2.432-4.609,8.047
		c0.277,2.537,0.948,5.533,1.643,7.988c0.695,2.456,0.556,5.492-1.459,7.058c1.129-2.938,0.258-6.076-0.789-9.044
		c-1.048-2.968-2.555-5.777-3.339-8.826s-0.744-6.524,1.109-9.069C49.181,11.95,53.597,10.916,55.937,13.022z"/>
	<path fill="#DF8446" d="M50.304,15.115c-1.495-0.136-2.904,0.978-3.475,2.366c-0.571,1.388-0.441,2.973-0.045,4.42
		c0.395,1.448,1.041,2.815,1.497,4.244c1.22,3.819,1.459,8.822-1.606,11.767c1.094-2.915,1.097-4.882,0.339-7.216
		c-0.759-2.334-2.87-3.679-3.96-5.879c-1.089-2.199-1.895-4.693-1.365-7.089C42.473,14.183,46.794,14.187,50.304,15.115z"/>
	<path fill="#DF8446" d="M38.551,15.039c-0.131,4.635,1.105,9.187,1.681,13.789c0.576,4.601,0.397,9.593-2.222,13.419
		c3.364-5.09,4.735-10.572,4.036-16.633C41.625,21.959,39.728,18.526,38.551,15.039z"/>
	<g>
		<path fill="#F5D2B9" d="M40.232,28.828c-0.108-0.866-0.24-1.731-0.382-2.594c-1.09-0.591-2.311-0.569-2.837,1.259
			c-0.339,1.179-0.131,3.58,0.637,4.536c0.694,0.864,1.733,1.699,2.826,1.953C40.552,32.263,40.444,30.519,40.232,28.828z"/>
	</g>
	<path fill="#BC6628" d="M39.182,67.417c2.555-5.015,2.056-11.061,0.55-16.484c-1.506-5.423-3.942-10.572-5.159-16.068
		c-1.217-5.495-1.048-11.671,2.268-16.219c-0.657-1.063-2.194-1.401-2.962-0.415c-3.434,4.409-3.521,10.643-2.035,16.03
		s4.33,10.289,6.361,15.495c2.031,5.206,3.226,11.098,1.292,16.342"/>
	<g>
		<g>
			<g>
				
					<line fill="none" stroke="#DA92BF" stroke-width="1.1029" stroke-linecap="round" stroke-miterlimit="10" x1="93.847" y1="135.058" x2="86.615" y2="143.426"/>
			</g>
			
				<line fill="none" stroke="#FDB734" stroke-width="1.1029" stroke-linecap="round" stroke-miterlimit="10" x1="93.847" y1="135.058" x2="90.705" y2="138.693"/>
		</g>
		<g>
			
				<line fill="none" stroke="#F04B4B" stroke-width="1.1029" stroke-linecap="round" stroke-miterlimit="10" x1="92.772" y1="133.979" x2="85.483" y2="142.298"/>
			
				<line fill="none" stroke="#FDB734" stroke-width="1.1029" stroke-linecap="round" stroke-miterlimit="10" x1="88.053" y1="139.365" x2="85.483" y2="142.298"/>
		</g>
		<g>
			
				<line fill="none" stroke="#F04B4B" stroke-width="1.1029" stroke-linecap="round" stroke-miterlimit="10" x1="92.342" y1="132.844" x2="83.706" y2="139.754"/>
			
				<line fill="none" stroke="#DA92BF" stroke-width="1.1029" stroke-linecap="round" stroke-miterlimit="10" x1="92.342" y1="132.844" x2="87.531" y2="136.694"/>
		</g>
		<circle fill="#FDB734" cx="86.869" cy="145.26" r="1.204"/>
		<circle fill="#FDB734" cx="91.65" cy="140.831" r="1.204"/>
		<circle fill="#FDB734" cx="95.143" cy="137.194" r="1.204"/>
	</g>
	<g>
		<path fill="none" d="M49.357,86.883h1.679l-1.135-1.966c0.124,0.212,0.199,0.455,0.199,0.718
			C50.101,86.174,49.799,86.639,49.357,86.883z"/>
		<path fill="none" d="M47.236,85.634c0-0.264,0.077-0.508,0.201-0.721l-1.137,1.969h1.679
			C47.539,86.639,47.236,86.174,47.236,85.634z"/>
		<path fill="none" d="M51.407,85.634c0-1.332-0.957-2.444-2.219-2.688l2.067,3.579C51.352,86.246,51.407,85.947,51.407,85.634z"/>
		<path fill="none" d="M48.669,84.202c0.489,0,0.92,0.246,1.178,0.62l-1.11-1.923c-0.023-0.001-0.045-0.003-0.068-0.003
			c-0.023,0-0.045,0.003-0.068,0.003l-1.11,1.923C47.748,84.448,48.179,84.202,48.669,84.202z"/>
		<path fill="none" d="M48.668,88.373c0.905,0,1.707-0.443,2.206-1.122h-4.412C46.962,87.929,47.763,88.373,48.668,88.373z"/>
		<path fill="none" d="M45.93,85.634c0,0.313,0.055,0.612,0.152,0.892l2.066-3.579C46.887,83.19,45.93,84.302,45.93,85.634z"/>
		<path fill="#FDB734" d="M48.574,53.66c-0.119-0.088-0.238-0.053-0.361-0.002l0.009,0.112c4.703,7.195,4.609,19.189,0.308,27.925
			c-7.586-8.038-12.107-18.67-12.709-29.669c-0.086,0.387-0.184,0.769-0.292,1.147c0.84,10.63,5.307,20.847,12.63,28.658
			c0.167-0.022,0.337-0.038,0.511-0.038c0.072,0,0.142,0.007,0.212,0.011C53.069,73.247,53.452,61.298,48.574,53.66z"/>
		<path fill="#FDB734" d="M52.51,85.634c0-2.046-1.61-3.719-3.629-3.831c-0.047,0.096-0.092,0.195-0.14,0.29l-0.021,0.041
			l0.469,0.812c1.262,0.244,2.219,1.356,2.219,2.688c0,0.313-0.055,0.612-0.152,0.892l0.418,0.724h-0.799
			c-0.499,0.679-1.301,1.122-2.206,1.122c-0.905,0-1.707-0.443-2.206-1.122h-0.799l0.418-0.724c-0.097-0.28-0.152-0.579-0.152-0.892
			c0-1.332,0.957-2.444,2.218-2.688l0.402-0.697l-0.107-0.112c-0.097-0.101-0.19-0.205-0.286-0.307
			c-1.877,0.251-3.331,1.859-3.331,3.803c0,1.54,0.913,2.868,2.225,3.48v-0.522h0.368v0.671c0.337,0.116,0.694,0.185,1.065,0.203
			v-0.542h0.368v0.542c0.371-0.018,0.728-0.087,1.065-0.203v-0.671h0.368v0.522C51.596,88.502,52.51,87.175,52.51,85.634z"/>
		<path fill="#FDB734" d="M48.737,82.899l-0.068-0.118L48.6,82.899c0.023-0.001,0.045-0.003,0.068-0.003
			C48.691,82.896,48.714,82.898,48.737,82.899z"/>
		<path fill="#FDB734" d="M48.551,82.25l0.118-0.204l0.051,0.089l0.021-0.041c0.048-0.095,0.093-0.194,0.14-0.29
			c-0.071-0.004-0.141-0.011-0.212-0.011c-0.173,0-0.343,0.016-0.511,0.038c0.096,0.102,0.189,0.206,0.286,0.307L48.551,82.25z"/>
		<path fill="#FDB734" d="M49.847,84.822c0.021,0.03,0.036,0.063,0.055,0.095l1.135,1.966h-1.679
			c-0.205,0.113-0.438,0.184-0.689,0.184c-0.251,0-0.484-0.07-0.689-0.184h-1.679l1.137-1.969c0.018-0.03,0.033-0.062,0.053-0.091
			l1.11-1.923c-0.154,0.004-0.305,0.019-0.452,0.048l-2.066,3.579c0.091,0.262,0.22,0.505,0.381,0.724h4.412
			c0.161-0.219,0.29-0.463,0.381-0.724l-2.067-3.579c-0.147-0.028-0.298-0.044-0.452-0.048L49.847,84.822z"/>
		<path fill="#FDB734" d="M48.551,82.25l-0.402,0.697c0.147-0.028,0.298-0.044,0.452-0.048l0.068-0.118l0.068,0.118
			c0.154,0.004,0.305,0.019,0.452,0.048l-0.469-0.812l-0.097,0.191L48.551,82.25z"/>
		<path fill="#FDB734" d="M51.673,87.25l-0.418-0.724c-0.091,0.262-0.22,0.505-0.381,0.724H51.673z"/>
		<path fill="#FDB734" d="M45.664,87.25h0.799c-0.161-0.219-0.29-0.463-0.381-0.724L45.664,87.25z"/>
		<polygon fill="#FDB734" points="48.551,82.25 48.623,82.326 48.72,82.135 48.668,82.046 		"/>
		<path fill="#DA92BF" d="M48.669,84.202c-0.489,0-0.92,0.246-1.178,0.62l-0.053,0.091c-0.125,0.212-0.201,0.457-0.201,0.721
			c0,0.54,0.302,1.004,0.744,1.249h1.377c0.441-0.244,0.744-0.709,0.744-1.249c0-0.263-0.076-0.506-0.199-0.718l-0.055-0.095
			C49.588,84.448,49.158,84.202,48.669,84.202z"/>
		<path fill="#DA92BF" d="M49.847,84.822l0.055,0.095C49.883,84.885,49.867,84.852,49.847,84.822z"/>
		<path fill="#DA92BF" d="M48.669,87.067c0.251,0,0.484-0.07,0.689-0.184H47.98C48.185,86.996,48.417,87.067,48.669,87.067z"/>
		<path fill="#DA92BF" d="M47.437,84.914l0.053-0.091C47.47,84.851,47.455,84.883,47.437,84.914z"/>
		<path fill="#FDB734" d="M48.485,89.466v6.58h0.368v-6.58c-0.061,0.003-0.122,0.009-0.184,0.009S48.546,89.469,48.485,89.466z"/>
		<path fill="#FDB734" d="M48.485,88.924v0.542c0.061,0.003,0.122,0.009,0.184,0.009s0.122-0.006,0.184-0.009v-0.542H48.485z"/>
		<path fill="#FDB734" d="M49.917,92.966h0.368v-3.852c-0.119,0.056-0.242,0.106-0.368,0.149V92.966z"/>
		<path fill="#FDB734" d="M49.917,88.592v0.671c0.126-0.043,0.248-0.093,0.368-0.149v-0.522H49.917z"/>
		<path fill="#FDB734" d="M47.052,92.966h0.368v-3.703c-0.126-0.043-0.248-0.093-0.368-0.149V92.966z"/>
		<path fill="#FDB734" d="M47.052,88.592v0.522c0.119,0.056,0.242,0.106,0.368,0.149v-0.671H47.052z"/>
	</g>
	<g>
		<path fill="#F8D8A1" d="M51.42,4.401c-8.08-5.655-25.537,0.32-28.494,10.711c0.811,6.265,2.848,6.512,2.556,9.115
			C34.164,17.381,44.615,12.795,55.524,11C53.931,8.919,52.584,6.612,51.42,4.401z"/>
		<path fill="#F8D8A1" d="M24.308,27.221c-1.59,1.192-3.32,2.565-5.305,4.241C21.072,30.138,23.076,28.933,24.308,27.221z"/>
		<g>
			<defs>
				<path id="SVGID_3_" d="M51.42,4.401c-8.08-5.655-25.537,0.32-28.494,10.711c0.811,6.265,2.848,6.512,2.556,9.115
					C34.164,17.381,44.615,12.795,55.524,11C53.931,8.919,52.584,6.612,51.42,4.401z"/>
			</defs>
			<clipPath id="SVGID_4_">
				<use xlink:href="#SVGID_3_"  overflow="visible"/>
			</clipPath>
			<g clip-path="url(#SVGID_4_)">
				<path fill="none" stroke="#E9C68F" stroke-width="1.1642" stroke-miterlimit="10" d="M22.116,25.373
					c10.368-9.296,23.146-14.409,36.733-17.457"/>
				<path fill="none" stroke="#E9C68F" stroke-width="1.1642" stroke-miterlimit="10" d="M18.729,24.094
					C32.217,13.135,42.601,9.162,59.03,5.073"/>
				<path fill="none" stroke="#E9C68F" stroke-width="1.1642" stroke-miterlimit="10" d="M18.957,20.311
					C30.608,11.249,44.247,5.124,58.626,1.793"/>
				<path fill="none" stroke="#E9C68F" stroke-width="1.1642" stroke-miterlimit="10" d="M18.344,17.385
					C28.666,8.781,41.258,2.924,54.489,0.573"/>
			</g>
		</g>
		<path fill="#8A6147" d="M25.483,24.228c-0.024,0.216-0.062,0.446-0.121,0.698c-0.2,0.871-0.569,1.621-1.054,2.295
			c3.677-2.757,6.592-4.532,10.104-6.759c6.637-4.21,15.852-4.546,23.575-6.665C57.1,12.944,56.286,11.996,55.524,11
			C44.615,12.795,34.164,17.381,25.483,24.228z"/>
	</g>
	<g>
		<path fill="#B09C93" d="M55.182,25.518c0.265-0.329,0.276-0.887,0.201-1.006c-1.2-0.119-4.064,0.827-4.088,2.149
			C52.721,26.453,54.279,26.641,55.182,25.518z"/>
		<path fill="#FFFFFF" d="M55.19,25.484c-1.404-0.218-2.906,0.059-3.728,1.218c1.022,0.91,2.632,1.715,3.196,1.715
			C55.227,27.937,55.19,25.484,55.19,25.484z"/>
		<path fill="#A75B26" d="M49.466,23.237c2.002-1.286,4.556-1.677,6.851-1.049c-0.026,0.407-0.108,0.839-0.134,1.246
			C54.277,22.216,51.47,22.187,49.466,23.237z"/>
		<g>
			<path fill="#B1796B" d="M55.19,25.484c-0.228-0.035-0.459-0.056-0.689-0.064c-0.075-0.003-0.15-0.003-0.225-0.003
				c-0.102,0.441-0.183,0.888-0.16,1.338c0.029,0.561,0.243,1.135,0.678,1.485c0.152-0.258,0.246-0.678,0.304-1.118
				C55.202,26.328,55.19,25.484,55.19,25.484z"/>
		</g>
		<g>
			<path fill="#1C1C1B" d="M55.456,26.317c-0.118-0.268-0.223-0.541-0.332-0.812l0.055,0.047c-0.342-0.018-0.678-0.035-1.015-0.011
				c-0.336,0.03-0.662,0.096-0.982,0.178c-0.157,0.05-0.308,0.115-0.462,0.171c-0.145,0.075-0.283,0.161-0.425,0.239l-0.373,0.308
				l-0.32,0.363l-0.026-0.228c0.488,0.455,1.014,0.859,1.573,1.207c0.284,0.169,0.583,0.302,0.893,0.422l0.478,0.139l0.498,0.076
				l-0.51,0.01l-0.51-0.072c-0.336-0.079-0.658-0.203-0.971-0.35c-0.309-0.153-0.604-0.331-0.882-0.534
				c-0.275-0.204-0.542-0.418-0.8-0.64l-0.127-0.109l0.101-0.12l0.353-0.42l0.432-0.337c0.161-0.085,0.319-0.175,0.482-0.253
				c0.171-0.058,0.339-0.124,0.511-0.173c0.348-0.089,0.704-0.119,1.057-0.121c0.353,0.01,0.702,0.041,1.044,0.117l0.046,0.01
				l0.009,0.037C55.324,25.747,55.397,26.03,55.456,26.317z"/>
		</g>
		<path fill="#1C1C1B" d="M55.162,25.011c0.254-0.016,0.549-0.037,0.695-0.245c-0.02,0.347-0.328,0.621-0.661,0.719
			c-0.329,0.097-0.675,0.057-1.011,0.027c-0.189-0.017-0.954,0.035-1.523,0.07C53.064,25.292,54.68,25.042,55.162,25.011z"/>
	</g>
	<path fill="#DF8446" d="M55.525,13.485c1.119-0.333,3.178,0.927,3.193,2.425c0.015,1.44-0.911,2.627-1.914,3.224
		c-1.004,0.597-2.122,0.789-3.146,1.326c-2.19,1.149-3.81,3.969-4.04,7.035c-0.863-1.798-0.734-4.121,0.185-5.872
		c0.85-1.62,2.277-2.513,3.488-3.677C54.501,16.782,55.828,15.408,55.525,13.485z"/>
	<path fill="#FCDDAC" d="M70.167,15.638c-3.488-8.382-47.901,6.645-54.327,22.048c-0.57-2.172-0.148-4.094,1.463-5.866
		c1.611-1.772,17.116-18.216,43.569-20.418C70.11,10.634,70.925,13.884,70.167,15.638z"/>
	<g>
		<path fill="#8A6147" d="M9.609,273.01c-1.175,4.384-1.763,7.76-0.051,9.66c1.712,1.901,4.847,2.29,7.374,1.889
			c1.596-0.253,3.236-1.038,3.935-2.496c0.62-1.294-0.735-6.537-1.349-7.834c-1.456-3.072-3.884-1.339-7.259-0.93"/>
		<g>
			<path fill="#F5D2B9" d="M8.735,279.519c0.331,1.13,1.81,2.125,2.778,2.763c1.089,0.717,2.44,0.965,3.74,0.879
				c1.301-0.085,5.254-1.14,5.242-2.444c-0.007-0.717-0.064-1.447-0.152-2.188C16.493,277.687,12.384,278.025,8.735,279.519z"/>
			<path fill="#8A6147" d="M11.638,274.666c-1.037,0.553-1.988,1.243-2.901,1.985c-0.06,0.796-0.086,1.609-0.071,2.444
				c0.003,0.143,0.029,0.285,0.07,0.424c3.649-1.494,7.758-1.833,11.608-0.989c-0.15-1.264-0.394-2.566-0.658-3.917
				c-0.707-0.518-1.541-0.879-2.401-1.038C15.363,273.22,13.361,273.746,11.638,274.666z"/>
			<path fill="#F5D2B9" d="M11.172,265.499c-0.994,3.612-2.136,7.164-2.436,11.152c0.913-0.742,1.865-1.432,2.901-1.985
				c1.724-0.92,3.725-1.445,5.646-1.09c0.86,0.159,1.694,0.52,2.401,1.038c-0.625-3.188-1.347-6.651-1.171-10.523
				C16.012,263.621,13.323,264.136,11.172,265.499z"/>
			<path fill="#8A6147" d="M11.172,265.499c2.151-1.362,4.84-1.878,7.342-1.408c0.027-0.602,0.069-1.211,0.144-1.834
				c0.016-0.129,0.027-0.252,0.04-0.378c-2.178,0.003-4.355-0.236-6.483-0.703C11.93,262.646,11.563,264.077,11.172,265.499z"/>
		</g>
		<g>
			<defs>
				<path id="SVGID_5_" d="M33.413,138.239c-3.048-0.486-6.193-0.274-9.166,0.554c0-0.001,0-0.002,0.001-0.003
					c-1.774,9.423-3.801,17.635-4.268,26.597c-0.607,11.651,2.111,27.434-1.809,38.718c-2.953,8.499-7.955,17.175-7.555,26.164
					c0.345,7.739,1.793,16.582,2.137,24.322c0.104,2.333-0.134,4.499-0.538,6.585c2.127,0.467,4.305,0.706,6.483,0.703
					c0.161-1.56,0.13-2.844,0.151-4.465l0.157-0.625c-0.347-6.428,1.914-13.897,3.429-20.153c2.202-9.094,4.036-21.13,6.238-30.224
					c7.901-16.554,9.344-25.919,14.05-38.315c2.805-7.388,4.385-16.22,6.206-22.688C44.11,142.252,39.085,139.144,33.413,138.239z"
					/>
			</defs>
			<clipPath id="SVGID_6_">
				<use xlink:href="#SVGID_5_"  overflow="visible"/>
			</clipPath>
			<path clip-path="url(#SVGID_6_)" fill="none" stroke="#8A6147" stroke-width="1.1029" stroke-miterlimit="10" d="M11.222,259.537
				c2.314-3.544,5.455-6.544,9.101-8.694"/>
			<path clip-path="url(#SVGID_6_)" fill="none" stroke="#8A6147" stroke-width="1.1029" stroke-miterlimit="10" d="M20.014,258.981
				c-1.197-4.018-4.846-7.989-8.231-10.461"/>
			<path clip-path="url(#SVGID_6_)" fill="none" stroke="#8A6147" stroke-width="1.1029" stroke-miterlimit="10" d="M9.837,244.865
				c4.145-3.287,9.761-4.734,13.906-8.021"/>
			<path clip-path="url(#SVGID_6_)" fill="none" stroke="#8A6147" stroke-width="1.1029" stroke-miterlimit="10" d="M21.646,246.705
				c-1.571-3.973-5.169-6.475-8.335-9.345c-1.373-1.245-2.929-2.434-3.606-4.159"/>
			<path clip-path="url(#SVGID_6_)" fill="none" stroke="#8A6147" stroke-width="1.1029" stroke-miterlimit="10" d="M9.676,230.277
				c2.084-3.315,6.156-4.675,9.906-5.799c2.37-0.711,4.741-1.421,7.111-2.132"/>
			<path clip-path="url(#SVGID_6_)" fill="none" stroke="#8A6147" stroke-width="1.1029" stroke-miterlimit="10" d="M24.432,232.112
				c-2.118-5.576-12.076-13.029-13.525-13.551"/>
			<path clip-path="url(#SVGID_6_)" fill="none" stroke="#8A6147" stroke-width="1.1029" stroke-miterlimit="10" d="M12.381,215.207
				c4.521,2.075,9.519,3.101,14.492,2.973"/>
		</g>
	</g>
	<g>
		<path fill="none" stroke="#8A6147" stroke-width="1.1029" stroke-miterlimit="10" d="M3.293,235.951
			c-0.679-2.595,0.627-5.264,2.001-7.568c2.611-4.381,5.615-8.527,8.964-12.372c-5.775,5.7-8.253,14.382-8.089,22.495"/>
		<g>
			<circle fill="#F04B4B" cx="3.255" cy="235.911" r="1.018"/>
			<circle fill="#DA92BF" cx="3.623" cy="237.75" r="1.018"/>
		</g>
		<g>
			<circle fill="#F04B4B" cx="6.156" cy="238.111" r="1.018"/>
			<circle fill="#DA92BF" cx="5.871" cy="239.965" r="1.018"/>
		</g>
		<circle fill="#8A6147" cx="14.009" cy="216.329" r="1.332"/>
	</g>
	<g>
		<path fill="#8A6147" d="M75.31,259.561c1.639-1.764,3.905-2.924,6.288-3.256c-0.204-0.722-0.382-1.519-0.531-2.408
			c-1.966,1.206-4.325,1.762-6.628,1.595c-0.989,1.354-4.581,6.576-3.904,10.18c0.555,0.414,1.233,0.787,1.967,1.145
			C72.482,264.161,73.502,261.507,75.31,259.561z"/>
		<path fill="#8A6147" d="M94.121,272.402c-1.311-0.457-2.869-1.567-3.983-2.766c-2.644,0.936-4.984,2.735-6.582,5.041
			c1.486,1.125,2.98,1.895,4.422,2.379c2.232-1.882,4.889-3.262,7.715-3.992C95.257,272.829,94.744,272.619,94.121,272.402z"/>
	</g>
	<g>
		<defs>
			<path id="SVGID_7_" d="M94.121,272.402c-1.775-0.619-4.006-2.433-4.967-4.048c-3.739-6.277-6.903-7.189-8.108-14.584
				c-2.715-16.659,1.954-34.245-2.038-50.644c-0.995-4.085-0.209-8.967-1.232-13.045c2.116-15.302,1.885-39.859-1.436-58.049
				c-7.731,2.388-14.926,6.492-20.919,11.927c0.424,2.755,0.407,5.32,0.537,8.321c0.45,10.383,6.111,23.885,7.532,34.18
				c0.488,3.538,3.796,11.671,4.586,15.153c1.388,6.114-2.522,11.484-2.105,19.997c0.524,10.702,6.46,23.073,8.718,33.547
				c0,0-4.936,6.343-4.153,10.513c2.476,1.851,7.347,2.892,9.275,5.309c6.909,8.659,15.26,7.47,18.058,4.783
				C97.133,273.791,96.263,273.15,94.121,272.402z"/>
		</defs>
		<clipPath id="SVGID_8_">
			<use xlink:href="#SVGID_7_"  overflow="visible"/>
		</clipPath>
		<g clip-path="url(#SVGID_8_)">
			<path fill="none" stroke="#8A6147" stroke-width="1.1029" stroke-miterlimit="10" d="M71.859,253.971
				c2.372-3.684,6.011-9.215,10.344-9.861"/>
			<path fill="none" stroke="#8A6147" stroke-width="1.1029" stroke-miterlimit="10" d="M82.022,249.672
				c-2.753-4.872-7.219-7.281-12.428-9.326"/>
			<path fill="none" stroke="#8A6147" stroke-width="1.1029" stroke-miterlimit="10" d="M69.268,244.085
				c3.18-3.692,7.272-9.168,11.808-10.947"/>
			<path fill="none" stroke="#8A6147" stroke-width="1.1029" stroke-miterlimit="10" d="M81.644,238.33
				c-3.372-5.183-9.924-8.093-16.029-7.12"/>
			<path fill="none" stroke="#8A6147" stroke-width="1.1029" stroke-miterlimit="10" d="M66.163,232.849
				c3.783-5.499,9.415-12.645,15.763-14.707"/>
			<path fill="none" stroke="#8A6147" stroke-width="1.1029" stroke-miterlimit="10" d="M82.874,227.453
				c-4.282-5.929-12.256-12.604-19.383-10.961"/>
			<path fill="none" stroke="#8A6147" stroke-width="1.1029" stroke-miterlimit="10" d="M64.115,215.517
				c5.479-2.698,12.917-3.434,18.01-2.523"/>
		</g>
	</g>
	<g>
		<path fill="#E69885" d="M58.379,35.891c-0.948,0.37-1.541,0.966-2.273,1.167c0.102,0.808,1.555,2.557,1.921,2.583
			c0.075-0.061,0.148-0.115,0.218-0.149c0.028-0.014,1.267-1.263-0.398-2.146c0.765-0.386,1.638-0.17,1.481-1.556
			c-0.084-0.029-0.172-0.05-0.26-0.052C58.831,35.729,58.6,35.805,58.379,35.891z"/>
	</g>
	<path fill="#B0BEC2" d="M55.437,138.508c1.692-3.509,3.384-7.017,5.076-10.526c0.203-0.421,0.461-0.888,0.845-0.927
		c0.392-0.04,0.729,0.426,0.804,0.924c0.075,0.497-0.048,1.007-0.189,1.48c-0.842,2.827-2.4,5.29-4.379,6.921"/>
	<path fill="#B0BEC2" d="M50.062,139.088c-1.646-1.219-2.605-3.123-3.675-4.869c-1.07-1.746-6.718-4.756-8.693-5.298
		c-0.44,3.354,7.023,5.59,9.108,8.948"/>
	<path fill="#B0BEC2" d="M48.922,141.229c-3.485-3.053-7.568-5.421-11.947-6.933c-1.006-0.347-2.05-0.653-3.113-0.61
		c-1.063,0.042-2.16,0.486-2.754,1.368c4.638-0.797,8.753,1.667,12.914,3.865C45.538,139.719,47.405,140.428,48.922,141.229z"/>
	<path fill="#B0BEC2" d="M72.645,128.903c-2.411-0.809-5.122-0.141-7.293,1.183c-2.172,1.323-3.906,3.241-5.606,5.132
		c-1.7,1.891-3.432,3.811-5.6,5.139c2.12-0.107,3.749-0.869,5.339-2.275c1.59-1.406,2.94-3.068,4.549-4.452
		C66.632,131.394,69.247,129.358,72.645,128.903z"/>
	<path fill="#B0BEC2" d="M63.525,117.967c0.636-1.174,1.272-2.348,1.908-3.522c0.649-1.198,1.313-2.444,1.409-3.803
		c0.152-2.145-1.487-3.811-2.107-1.161C64.092,112.232,64.263,115.171,63.525,117.967z"/>
	<path fill="#B0BEC2" d="M52.721,117.013c0.457,2.519,0.914,5.037,1.371,7.556c1.719-4.545,2.296-9.517,1.663-14.335
		c-0.267-2.029-1.798-6.478-3.349-2.642C51.287,110.359,52.213,114.211,52.721,117.013z"/>
	<path fill="none" stroke="#7F888A" stroke-width="0.3676" stroke-miterlimit="10" d="M55.694,125.044
		c1.29-6.575,1.006-14.224-0.823-20.67"/>
	<circle fill="#7F888A" cx="52.839" cy="108.017" r="1.701"/>
	<g>
		
			<line fill="none" stroke="#AA8676" stroke-width="0.3676" stroke-miterlimit="10" x1="27.853" y1="153.719" x2="28.975" y2="168.201"/>
		
			<line fill="none" stroke="#AA8676" stroke-width="0.3676" stroke-miterlimit="10" x1="19.683" y1="151.689" x2="19.683" y2="167.73"/>
		
			<line fill="none" stroke="#AA8676" stroke-width="0.3676" stroke-miterlimit="10" x1="21.154" y1="151.322" x2="21.154" y2="167.363"/>
		
			<line fill="none" stroke="#AA8676" stroke-width="0.3676" stroke-miterlimit="10" x1="22.258" y1="151.322" x2="22.258" y2="167.363"/>
		
			<line fill="none" stroke="#AA8676" stroke-width="0.3676" stroke-miterlimit="10" x1="26.028" y1="152.425" x2="27.135" y2="167.833"/>
		
			<line fill="none" stroke="#AA8676" stroke-width="0.3676" stroke-miterlimit="10" x1="24.154" y1="153.01" x2="25.386" y2="167.363"/>
		
			<line fill="none" stroke="#AA8676" stroke-width="0.3676" stroke-miterlimit="10" x1="23.298" y1="152.984" x2="23.298" y2="167.389"/>
	</g>
	<g>
		<g>
			<path fill="#C2CBCE" d="M42.523,50.461c-0.363-2.827-1.249-5.549-2.695-7.909c-1.821,0.839-2.516,3.154-2.258,5.142
				c0.124,0.951,0.413,1.862,0.751,2.761c0.907,0.799,1.815,1.597,2.722,2.396C41.509,52.022,42.015,51.241,42.523,50.461z"/>
			<path fill="#FFFAEE" d="M41.043,52.851c-0.907-0.799-1.815-1.597-2.722-2.396c0.368,0.98,0.796,1.945,1.139,2.933
				c1.334,3.84,1.348,8.125,0.041,11.975c2.611-4.293,3.682-9.77,3.023-14.902C42.015,51.241,41.509,52.022,41.043,52.851z"/>
		</g>
		<g>
			<circle fill="none" stroke="#FDB734" stroke-width="0.3616" stroke-miterlimit="10" cx="39.805" cy="37.522" r="3.486"/>
			<circle fill="#DA92BF" cx="39.928" cy="42.51" r="0.804"/>
		</g>
	</g>
	<path fill="none" stroke="#E5C697" stroke-width="1.1029" stroke-miterlimit="10" d="M29.239,53.083
		c4.322,12.963,2.6,27.45,0.83,40.999c-2.696,20.645-2.816,30.254-5.512,50.898"/>
	<path fill="#F5D2B9" d="M29.474,110.091c-2.006,0.565-3.961,2.109-5.604,0.827c-9.742-7.604-8.185-4.433-12.498-12.477
		c0.306-3.597,2.251-8.9,4.766-14.757c-2.73-1.687-5.608-3.132-8.587-4.325c-3.323,9.284-6.554,19.193-5.888,20.969
		c3.435,9.149,11.892,11.156,23.516,17.527c1.25,0.685,2.527,1.293,3.633,2.192c1.334,1.085,3.102,2.505,4.928,3.795
		c0.895-2.011,1.692-4.221,2.32-6.348c-0.489-0.728-0.857-1.467-1.043-2.182c0.955-0.623,2.23-0.414,3.284,0.021
		c1.054,0.435,1.89,1.329,3.023,1.201c0.54-0.061,1.121-0.326,1.199-0.864C38.445,113.25,32.865,110.094,29.474,110.091z"/>
	<path fill="none" stroke="#7F888A" stroke-width="0.3676" stroke-miterlimit="10" d="M36.364,116.146
		c-0.391,3.594-1.932,7.054-4.343,9.749"/>
	<g>
		<path fill="#E5C697" d="M5.015,137.768c-1.526,4.498-3.07,9.116-2.923,13.864c0.147,4.748,2.345,9.729,6.587,11.865
			c2.435,1.226,5.382,1.39,7.938,0.442c7.723-2.864,9.666-12.099,8.265-20.216c-4.944-2.12-10.539-3.185-15.483-5.305
			C7.644,137.666,6.517,136.591,5.015,137.768z"/>
		<g>
			<defs>
				<path id="SVGID_9_" d="M5.015,137.768c-1.526,4.498-3.07,9.116-2.923,13.864c0.147,4.748,2.345,9.729,6.587,11.865
					c2.435,1.226,5.382,1.39,7.938,0.442c7.723-2.864,9.666-12.099,8.265-20.216c-4.944-2.12-10.539-3.185-15.483-5.305
					C7.644,137.666,6.517,136.591,5.015,137.768z"/>
			</defs>
			<clipPath id="SVGID_10_">
				<use xlink:href="#SVGID_9_"  overflow="visible"/>
			</clipPath>
			<g clip-path="url(#SVGID_10_)">
				<path fill="none" stroke="#F8D8A1" stroke-width="1.1642" stroke-miterlimit="10" d="M0.371,154.494
					c7.158,5.927,15.874,8.506,24.264,7.179"/>
				<path fill="none" stroke="#F8D8A1" stroke-width="1.1642" stroke-miterlimit="10" d="M0.371,149.141
					c7.158,5.927,15.874,8.506,24.264,7.179"/>
				<path fill="none" stroke="#F8D8A1" stroke-width="1.1642" stroke-miterlimit="10" d="M0.878,143.787
					c7.158,5.927,16.888,8.506,25.278,7.179"/>
				<path fill="none" stroke="#F8D8A1" stroke-width="1.1642" stroke-miterlimit="10" d="M0.878,138.434
					c7.158,5.927,16.888,8.506,25.278,7.179"/>
			</g>
			<g clip-path="url(#SVGID_10_)">
				<path fill="none" stroke="#F8D8A1" stroke-width="0.8447" stroke-miterlimit="10" d="M0.371,156.922
					c7.158,5.927,15.874,8.506,24.264,7.179"/>
				<path fill="none" stroke="#F8D8A1" stroke-width="0.8447" stroke-miterlimit="10" d="M0.371,151.568
					c7.158,5.927,15.874,8.506,24.264,7.179"/>
				<path fill="none" stroke="#F8D8A1" stroke-width="0.8447" stroke-miterlimit="10" d="M0.878,146.215
					c7.158,5.927,16.888,8.506,25.278,7.179"/>
				<path fill="none" stroke="#F8D8A1" stroke-width="0.8447" stroke-miterlimit="10" d="M0.878,140.862
					c7.158,5.927,16.888,8.506,25.278,7.179"/>
			</g>
		</g>
		<path fill="#CCA777" d="M25.321,143.938c-5.911-0.889-15.179-3.031-20.219-6.243c-0.894,5.503,1.291,11.415,4.891,15.671
			C16.22,153.365,21.959,149.18,25.321,143.938z"/>
		<path fill="#F8D8A1" d="M25.321,142.417c-5.911-0.889-14.165-3.031-19.205-6.243c-0.894,5.503,0.277,11.415,3.877,15.671
			C16.22,151.844,21.959,147.659,25.321,142.417z"/>
		<circle fill="#DA92BF" cx="5.034" cy="145.199" r="1.267"/>
		<circle fill="#FDB734" cx="7.186" cy="149.675" r="1.267"/>
		<circle fill="#DA92BF" cx="21.832" cy="148.049" r="1.267"/>
		<circle fill="#FDB734" cx="17.505" cy="151.36" r="1.267"/>
		<circle fill="#F04B4B" cx="12.896" cy="152.627" r="1.267"/>
		<circle fill="#F04B4B" cx="5.034" cy="140.794" r="1.267"/>
		<g>
			<defs>
				<path id="SVGID_11_" d="M25.321,142.417c-5.911-0.889-14.165-3.031-19.205-6.243c-0.894,5.503,0.277,11.415,3.877,15.671
					C16.22,151.844,21.959,147.659,25.321,142.417z"/>
			</defs>
			<clipPath id="SVGID_12_">
				<use xlink:href="#SVGID_11_"  overflow="visible"/>
			</clipPath>
			
				<path clip-path="url(#SVGID_12_)" fill="none" stroke="#F04B4B" stroke-width="1.1029" stroke-linecap="round" stroke-miterlimit="10" d="
				M7.186,134.973c0.298,4.849,0.237,8.908,3.566,14.702c3.822-0.642,6.905-2.278,10.249-4.237c0.931-0.546,1.849-1.151,2.541-1.979
				c0.692-0.828,1.14-1.913,0.997-2.983"/>
			
				<path clip-path="url(#SVGID_12_)" fill="none" stroke="#DA92BF" stroke-width="1.1029" stroke-linecap="round" stroke-miterlimit="10" d="
				M9.349,135.487c0.316,3.429,1.405,6.784,3.163,9.745c2.588-0.361,6.876-1.609,9.321-4.383"/>
			<path clip-path="url(#SVGID_12_)" fill="none" stroke="#FDB734" stroke-width="0.7353" stroke-miterlimit="10" d="M8.29,132.398
				c0.298,4.849,0.237,8.908,3.566,14.702c3.822-0.642,6.905-2.278,10.249-4.237c0.931-0.546,1.849-1.151,2.541-1.979
				c0.692-0.828,1.14-1.913,0.997-2.983"/>
			
				<path clip-path="url(#SVGID_12_)" fill="none" stroke="#F04B4B" stroke-width="1.1029" stroke-linecap="round" stroke-miterlimit="10" d="
				M10.452,132.912c0.316,3.429,1.405,6.784,3.163,9.745c2.588-0.361,6.876-1.609,9.321-4.383"/>
		</g>
	</g>
	<path fill="#F04B4B" d="M9.853,151.972c-1.852,2.347-2.191,5.787-0.832,8.45c1.094-0.586,1.9-0.974,2.994-1.56
		C10.354,156.948,9.306,154.446,9.853,151.972z"/>
	<path fill="#B0BEC2" d="M36.797,105.925c-0.314,1.847-0.363,3.74-0.145,5.601c0.486-0.075,0.981-0.151,1.467-0.225
		c0.173-1.795,0.289-3.707,0.462-5.501C37.964,105.533,37.392,105.616,36.797,105.925z"/>
	<path fill="#B0BEC2" d="M43.729,105.54c-0.314,1.847-0.363,3.74-0.145,5.601c0.486-0.075,0.981-0.151,1.467-0.225
		c0.173-1.795,0.289-3.707,0.462-5.501C44.896,105.148,44.324,105.231,43.729,105.54z"/>
	<path fill="#B0BEC2" d="M59.869,103.535c0.571,1.785,0.886,3.651,0.933,5.524c-0.491-0.006-0.992-0.011-1.484-0.016
		c-0.424-1.752-0.808-3.629-1.232-5.381C58.659,103.311,59.236,103.313,59.869,103.535z"/>
	<path fill="#B0BEC2" d="M64.491,102.38c0.571,1.785,1.656,3.266,1.703,5.139c-0.491-0.006-0.992-0.011-1.484-0.016
		c-0.424-1.752-1.193-3.244-1.617-4.996C63.665,102.156,63.857,102.158,64.491,102.38z"/>
	
		<line fill="none" stroke="#FDB734" stroke-width="1.5395" stroke-linecap="round" stroke-miterlimit="10" x1="25.302" y1="110.755" x2="23.298" y2="117.582"/>
	
		<line fill="none" stroke="#FDB734" stroke-width="0.7697" stroke-linecap="round" stroke-miterlimit="10" x1="23.376" y1="110.37" x2="21.373" y2="117.197"/>
	
		<line fill="none" stroke="#FDB734" stroke-width="0.7697" stroke-linecap="round" stroke-miterlimit="10" x1="22.221" y1="109.215" x2="20.218" y2="116.042"/>
</g>
</svg>
