<?xml version="1.0" encoding="utf-8"?>
<!-- Generator: Adobe Illustrator 17.0.0, SVG Export Plug-In . SVG Version: 6.00 Build 0)  -->
<!DOCTYPE svg PUBLIC "-//W3C//DTD SVG 1.1//EN" "http://www.w3.org/Graphics/SVG/1.1/DTD/svg11.dtd">
<svg version="1.1" id="Layer_1" xmlns="http://www.w3.org/2000/svg" xmlns:xlink="http://www.w3.org/1999/xlink" x="0px" y="0px"
	 width="107.217px" height="275.127px" viewBox="0 0 107.217 275.127" enable-background="new 0 0 107.217 275.127"
	 xml:space="preserve">
<g>
	<path fill="#F5D2B9" d="M75.659,98.772c-4.366-7.998-8.526-16.38-9.86-25.393c-0.446-3.017-0.718-6.076-1.568-9.005
		c-0.85-2.929-2.351-5.776-4.787-7.61c-2.437-1.834-5.928-2.452-8.596-0.975c3.383,11.305,7.745,22.326,11.129,33.631
		c2.496,8.338,5.239,15.974,9.976,23.275c4.737,7.302,9.952,14.473,12.642,22.751c0.622,1.915,1.156,3.841,1.593,5.807
		c1.554,2.884,6.794,6.189,10.722,8.553c0.421-0.313,0.381-0.929,0.186-1.416c-0.409-1.023-1.553-1.325-2.406-2.023
		c-0.852-0.698-1.614-1.688-1.521-2.785c2.791-0.682,5.76-0.024,8.133,1.597c1.134,0.775,3.118,2.948,5.638,2.579
		c0.067-0.278,0.212-0.567,0.278-0.845c-1.721-1.029-3.263-2.358-4.48-3.953c-0.901-1.181-1.235-2.638-1.906-3.963
		c-2.21-0.92-4.263-1.942-6.473-2.863c-1.272-0.529-2.584-1.086-3.529-2.088c-6.478-6.871-6.832-17.805-10.06-26.68
		C79.598,104.143,77.301,101.78,75.659,98.772z"/>
	<path fill="none" stroke="#E5C697" stroke-width="1.0658" stroke-miterlimit="10" d="M5.616,134.093
		c1.618-17.7,11.49-50.47,16.922-67.393"/>
	<path fill="#734B34" d="M24.342,123.927c10.579-4.983,39.074-7.358,50.69-6.018c-10.908-20.081-11.26-65.682-33.405-65.012
		c-9.158,8.722-14.265,20.934-16.35,33.408C23.192,98.779,23.721,111.296,24.342,123.927z"/>
	<path fill="#A75B26" d="M42.023,37.92c-2.512,3.44-2.493,8.339-0.531,12.12c1.962,3.781,5.613,6.494,9.597,8.002
		c3.984,1.507,8.301,1.911,12.56,1.956c2.884,0.031,5.887-0.073,8.505,1.136c2.618,1.209,4.668,4.243,3.687,6.955
		c2.005-2.439,2.303-5.328,1.099-8.247c-1.617-3.922-5.796-6.133-9.853-7.372c-4.057-1.239-8.386-1.867-12.011-4.07
		c-3.625-2.204-6.383-6.683-4.894-10.655C47.493,35.988,43.917,35.327,42.023,37.92z"/>
	<path fill="#DF8446" d="M47.297,37.049c-0.544,3.36,0.34,6.927,2.388,9.645c2.048,2.718,5.234,4.55,8.613,4.953
		c2.835,0.338,5.692-0.287,8.548-0.315c2.855-0.028,5.996,0.725,7.64,3.06c-0.85-2.437-3.57-3.686-6.097-4.21
		c-2.528-0.524-5.147-0.331-7.711-0.625c-2.564-0.294-5.257-1.211-6.728-3.332c-1.162-1.674-1.373-3.811-2.11-5.711
		C51.101,38.615,49.303,36.691,47.297,37.049z"/>
	<path fill="#BC6628" d="M44.956,42.146c-0.971,2.802,0.451,6.006,2.734,7.898c2.283,1.892,5.254,2.718,8.166,3.281
		c2.911,0.563,5.899,0.925,8.629,2.083c2.73,1.158,5.239,3.293,5.966,6.168c0.727,2.875-0.937,6.393-3.851,6.941
		c3.114,0.535,6.231-2.397,6.361-5.554c0.13-3.157-1.918-6.079-4.511-7.885c-2.593-1.806-5.688-2.71-8.705-3.649
		c-3.017-0.938-6.092-1.981-8.528-3.994s-4.126-5.226-3.48-8.319C46.871,40.213,45.413,40.826,44.956,42.146z"/>
	<g>
		<path fill="none" stroke="#8A6147" stroke-width="1.0658" stroke-miterlimit="10" d="M82.97,225.875
			c0.657-2.508-0.606-5.087-1.933-7.314c-2.523-4.233-5.426-8.24-8.663-11.956c5.581,5.508,7.975,13.898,7.817,21.738"/>
		<g>
			<circle fill="#F04B4B" cx="83.007" cy="225.837" r="0.984"/>
			<circle fill="#DA92BF" cx="82.652" cy="227.614" r="0.984"/>
		</g>
		<g>
			<circle fill="#F04B4B" cx="80.203" cy="227.963" r="0.984"/>
			<circle fill="#DA92BF" cx="80.479" cy="229.754" r="0.984"/>
		</g>
		<circle fill="#8A6147" cx="72.614" cy="206.914" r="1.287"/>
	</g>
	<path fill="#8A6147" d="M71.903,254.242c-1.156-0.019-5.374,1.497-4.977,2.583c0.397,1.086,1.429,1.788,2.4,2.416
		c3.393,2.196,5.975,2.781,10.18,6.588c2.241,2.028,5.162,3.675,8.135,4.216c2.974,0.541,8.708-1.258,8.042-3.596
		c-0.536-1.88-2.354-2.191-2.599-2.181C83.264,262.726,79.501,260.652,71.903,254.242z"/>
	<path fill="#A75B26" d="M53.827,33c-0.334,4.313,3.484,7.938,7.545,9.428c4.061,1.49,8.507,1.542,12.678,2.69
		c4.17,1.148,8.411,3.934,9.151,8.196c-1.735-2.936-4.804-4.391-8.168-4.947c-3.365-0.556-6.803-0.244-10.213-0.289
		c-3.41-0.045-6.959-0.502-9.801-2.387C50.791,42.886,51.834,37.665,53.827,33z"/>
	<path fill="#DDB886" d="M15.296,36.643c6.449,4.583,24.297-2.471,35.28-7.062c6.527-2.728,19.846-10.666,16.616-16.182
		c-0.873-1.491-3.184-1.699-5.089-1.687c-8.292,0.05-16.37,1.966-23.823,5.456c-2.15,1.007-4.301,2.014-6.451,3.021
		c-3.649,1.709-7.099,5.126-10.237,7.566c-1.419,1.103-3.291,2.441-4.238,3.909C16.388,33.164,15.93,35.021,15.296,36.643z"/>
	<path fill="#A75B26" d="M29.144,20.414c-3.255,4.173-6.668,8.794-6.605,14.086c0.045,3.736,1.891,7.284,4.442,10.014
		c2.551,2.73,5.772,4.738,9.042,6.546C37.808,41.08,29.88,31.096,29.144,20.414z"/>
	<path fill="#BC6628" d="M29.054,20.782c-2.909,4.084-3.15,9.541-2.194,14.463c0.956,4.922,2.974,9.572,4.242,14.424
		c1.268,4.851,1.737,10.18-0.343,14.742c2.89-3.014,3.803-7.207,4.014-11.377c0.212-4.17-0.569-8.32-1.345-12.423
		c-1.276-6.738-2.551-13.476-3.827-20.213C29.009,20.317,29.646,20.864,29.054,20.782z"/>
	<g>
		<path fill="#E5C3B0" d="M43.484,42.483c1.291,0.447,2.621,0.758,3.967,0.99c0.396-0.899,0.838-1.758,1.29-2.514l-10.286-7.384
			c0.397,1.76,0.028,3.759-0.568,5.593C39.451,40.676,41.42,41.768,43.484,42.483z"/>
		<path fill="#F5D2B9" d="M72.807,122.9c-1.505-6.521-3.498-11.838-6.024-14.984c-2.148-2.675-6.227-7.176-7.941-14.313
			c-1.273-3.821-1.156-7.382-0.909-10.848c1.157-2.79,1.719-5.827,1.624-8.847c-0.096-3.033-0.756-5.964-1.79-8.792
			c-1.309-3.583-3.22-7.001-5.356-10.251c-0.647-0.181-1.294-0.347-1.927-0.503c-0.275-0.068-0.548-0.134-0.817-0.198
			c-2.011-0.481-3.541-2.177-3.702-4.238c-0.145-1.862,0.533-4.281,1.488-6.452c-1.347-0.231-2.676-0.542-3.967-0.99
			c-2.064-0.715-4.033-1.808-5.597-3.316c-0.594,1.827-1.413,3.492-1.923,4.596c-1.648,3.563-4.933,7.596-8.851,7.838
			c-4.235,0.261-5.365,7.913-5.191,12.132c0.453,10.928,4.033,20.295,9.091,28.02c3.102,4.737,3.453,10.765,0.92,15.83
			c-2.988,5.974-6.281,12.351-7.059,17.89c-1.829,13.022-4.979,23.068-5.567,34.353c-0.587,11.259,2.04,26.512-1.748,37.415
			c-2.854,8.213-7.687,16.598-7.301,25.284c0.333,7.479,1.733,16.025,2.066,23.504c0.387,8.687-4.11,14.985-3.951,23.68
			c0.023,1.259,1.701,2.388,2.753,3.08s2.358,0.932,3.615,0.85c1.257-0.082,5.077-1.102,5.066-2.362
			c-0.046-5.098-2.628-10.768-1.776-17.841c0.202-1.68,0.162-2.987,0.185-4.679l0.152-0.604c-0.335-6.212,1.85-13.429,3.314-19.475
			c2.128-8.788,3.901-20.419,6.029-29.207c7.635-15.997,9.03-25.047,13.577-37.026c3.307-8.711,4.852-19.5,7.208-25.681
			c0.447-0.246,0.819-0.444,1.156-0.588C52.54,127.31,63.083,122.761,72.807,122.9z"/>
	</g>
	<g>
		<path fill="none" d="M59.229,70.604c0.055,0.338,0.105,0.677,0.147,1.018C59.334,71.281,59.285,70.942,59.229,70.604z"/>
		<path fill="none" d="M59.558,75.1c-0.008,0.332-0.025,0.664-0.049,0.995C59.533,75.764,59.55,75.432,59.558,75.1z"/>
		<path fill="none" d="M58.761,68.341c0.088,0.351,0.168,0.703,0.243,1.057C58.93,69.045,58.849,68.692,58.761,68.341z"/>
		<path fill="none" d="M59.026,69.508c0.063,0.305,0.12,0.611,0.173,0.918C59.146,70.12,59.089,69.813,59.026,69.508z"/>
		<path fill="none" d="M59.5,72.894c0.025,0.337,0.045,0.674,0.056,1.013C59.545,73.568,59.525,73.23,59.5,72.894z"/>
		<path fill="none" d="M59.39,71.747c0.035,0.294,0.064,0.589,0.089,0.885C59.455,72.336,59.425,72.041,59.39,71.747z"/>
		<path fill="none" d="M58.476,67.286c0.101,0.349,0.196,0.699,0.284,1.05C58.672,67.985,58.577,67.635,58.476,67.286z"/>
		<path fill="none" d="M52.41,54.865c0.253,0.384,0.502,0.772,0.747,1.161C52.912,55.636,52.663,55.249,52.41,54.865z"/>
		<path fill="none" d="M29.471,48.016c0.111,0.953,0.188,1.91,0.23,2.868c0.201-0.099,0.399-0.206,0.595-0.322
			C29.899,49.768,29.611,48.926,29.471,48.016z"/>
		<path fill="none" d="M57.766,65.115c0.256,0.7,0.488,1.406,0.696,2.118C58.254,66.521,58.022,65.815,57.766,65.115z"/>
		<path fill="none" d="M29.471,48.016c-0.024-0.206-0.046-0.412-0.074-0.618C29.413,47.608,29.44,47.814,29.471,48.016z"/>
		<path fill="none" d="M53.22,56.123c0.239,0.38,0.474,0.762,0.705,1.146C53.693,56.885,53.459,56.503,53.22,56.123z"/>
		<path fill="none" d="M54.721,58.633c1.187,2.097,2.232,4.258,3.045,6.482C56.953,62.89,55.908,60.729,54.721,58.633z"/>
		<path fill="none" d="M53.992,57.381c0.233,0.389,0.461,0.78,0.685,1.173C54.453,58.161,54.225,57.77,53.992,57.381z"/>
		<path fill="none" d="M59.556,73.907c0.011,0.344,0.011,0.688,0.005,1.032C59.567,74.595,59.567,74.251,59.556,73.907z"/>
		<path fill="none" d="M59.384,77.332c-0.047,0.358-0.103,0.714-0.168,1.069C59.281,78.046,59.337,77.69,59.384,77.332z"/>
		<path fill="none" d="M58.97,79.56c-0.085,0.354-0.178,0.705-0.281,1.054C58.792,80.265,58.885,79.914,58.97,79.56z"/>
		<path fill="none" d="M59.212,78.423c-0.065,0.355-0.141,0.709-0.224,1.06C59.072,79.132,59.147,78.778,59.212,78.423z"/>
		<path fill="none" d="M59.496,76.26c-0.027,0.342-0.061,0.683-0.105,1.023C59.435,76.943,59.469,76.602,59.496,76.26z"/>
		<path fill="none" d="M57.932,82.754c0.288-0.695,0.539-1.405,0.753-2.126C58.471,81.349,58.22,82.059,57.932,82.754L57.932,82.754
			z"/>
		<path fill="#9D1F60" d="M57.777,86.068c0.013-1.118,0.077-2.221,0.155-3.314c-0.195,0.469-0.404,0.932-0.632,1.386
			c0.228-0.454,0.437-0.917,0.632-1.386v0c0.288-0.695,0.539-1.405,0.753-2.126c0.001-0.005,0.003-0.009,0.004-0.014
			c0.103-0.349,0.196-0.701,0.281-1.054c0.006-0.026,0.012-0.051,0.018-0.077c0.083-0.352,0.159-0.705,0.224-1.06
			c0.001-0.007,0.002-0.014,0.004-0.022c0.065-0.355,0.121-0.711,0.168-1.069c0.002-0.016,0.005-0.032,0.007-0.049
			c0.044-0.34,0.078-0.682,0.105-1.023c0.004-0.055,0.009-0.11,0.013-0.165c0.024-0.331,0.041-0.663,0.049-0.995
			c0.001-0.054,0.002-0.107,0.002-0.161c0.006-0.344,0.006-0.688-0.005-1.032c-0.011-0.339-0.031-0.677-0.056-1.013
			c-0.006-0.088-0.014-0.175-0.021-0.262c-0.025-0.296-0.054-0.591-0.089-0.885c-0.005-0.042-0.009-0.084-0.014-0.125
			c-0.042-0.341-0.092-0.68-0.147-1.018c-0.01-0.059-0.02-0.118-0.03-0.177c-0.052-0.307-0.11-0.613-0.173-0.918
			c-0.008-0.036-0.014-0.073-0.022-0.11c-0.074-0.354-0.155-0.706-0.243-1.057c0-0.002-0.001-0.003-0.001-0.005
			c-0.088-0.352-0.183-0.702-0.284-1.05c-0.005-0.018-0.01-0.035-0.015-0.053c-0.207-0.712-0.44-1.419-0.696-2.118l0,0
			c-0.813-2.225-1.858-4.386-3.045-6.482c-0.015-0.026-0.029-0.052-0.044-0.078c-0.223-0.393-0.452-0.784-0.685-1.173
			c-0.022-0.037-0.045-0.075-0.067-0.112c-0.231-0.384-0.466-0.766-0.705-1.146c-0.021-0.033-0.041-0.065-0.062-0.098
			c-0.246-0.389-0.495-0.776-0.747-1.161l0,0c-0.647-0.181-1.294-0.347-1.927-0.503c-0.06-0.015-0.119-0.029-0.179-0.043
			c0.695,6.04-0.782,11.865-3.976,17.293c-2.168-4.525-5.614-8.285-8.657-12.275c-2.343-3.072-5.756-5.525-7.376-8.774
			c-0.195,0.116-0.394,0.223-0.595,0.322c0.364,8.298-1.841,16.696-6.213,23.757c1.188,4.776,2.975,9.176,5.179,13.192
			C38.201,85.744,48.06,85.148,57.777,86.068z"/>
		<g>
			<defs>
				<path id="SVGID_1_" d="M57.777,86.068c0.013-1.118,0.077-2.221,0.155-3.314c-0.195,0.469-0.404,0.932-0.632,1.386
					c0.228-0.454,0.437-0.917,0.632-1.386v0c0.288-0.695,0.539-1.405,0.753-2.126c0.001-0.005,0.003-0.009,0.004-0.014
					c0.103-0.349,0.196-0.701,0.281-1.054c0.006-0.026,0.012-0.051,0.018-0.077c0.083-0.352,0.159-0.705,0.224-1.06
					c0.001-0.007,0.002-0.014,0.004-0.022c0.065-0.355,0.121-0.711,0.168-1.069c0.002-0.016,0.005-0.032,0.007-0.049
					c0.044-0.34,0.078-0.682,0.105-1.023c0.004-0.055,0.009-0.11,0.013-0.165c0.024-0.331,0.041-0.663,0.049-0.995
					c0.001-0.054,0.002-0.107,0.002-0.161c0.006-0.344,0.006-0.688-0.005-1.032c-0.011-0.339-0.031-0.677-0.056-1.013
					c-0.006-0.088-0.014-0.175-0.021-0.262c-0.025-0.296-0.054-0.591-0.089-0.885c-0.005-0.042-0.009-0.084-0.014-0.125
					c-0.042-0.341-0.092-0.68-0.147-1.018c-0.01-0.059-0.02-0.118-0.03-0.177c-0.052-0.307-0.11-0.613-0.173-0.918
					c-0.008-0.036-0.014-0.073-0.022-0.11c-0.074-0.354-0.155-0.706-0.243-1.057c0-0.002-0.001-0.003-0.001-0.005
					c-0.088-0.352-0.183-0.702-0.284-1.05c-0.005-0.018-0.01-0.035-0.015-0.053c-0.207-0.712-0.44-1.419-0.696-2.118l0,0
					c-0.813-2.225-1.858-4.386-3.045-6.482c-0.015-0.026-0.029-0.052-0.044-0.078c-0.223-0.393-0.452-0.784-0.685-1.173
					c-0.022-0.037-0.045-0.075-0.067-0.112c-0.231-0.384-0.466-0.766-0.705-1.146c-0.021-0.033-0.041-0.065-0.062-0.098
					c-0.246-0.389-0.495-0.776-0.747-1.161l0,0c-0.647-0.181-1.294-0.347-1.927-0.503c-0.06-0.015-0.119-0.029-0.179-0.043
					c0.695,6.04-0.782,11.865-3.976,17.293c-2.168-4.525-5.614-8.285-8.657-12.275c-2.343-3.072-5.756-5.525-7.376-8.774
					c-0.195,0.116-0.394,0.223-0.595,0.322c0.364,8.298-1.841,16.696-6.213,23.757c1.188,4.776,2.975,9.176,5.179,13.192
					C38.201,85.744,48.06,85.148,57.777,86.068z"/>
			</defs>
			<clipPath id="SVGID_2_">
				<use xlink:href="#SVGID_1_"  overflow="visible"/>
			</clipPath>
			<g clip-path="url(#SVGID_2_)">
				<polyline fill="none" stroke="#DD4C4C" stroke-width="1.0658" stroke-miterlimit="10" points="24.855,67.961 27.843,70.889 
					29.248,66.948 32.088,70.02 33.684,66.153 36.37,69.361 38.154,65.577 40.68,68.913 42.647,65.22 45.007,68.674 47.151,65.081 
					49.341,68.646 51.656,65.161 53.671,68.828 56.153,65.46 57.986,69.221 60.63,65.978 62.277,69.824 65.077,66.715 
					66.532,70.637 69.483,67.671 				"/>
			</g>
			<g clip-path="url(#SVGID_2_)">
				<polyline fill="none" stroke="#DD4C4C" stroke-width="1.0658" stroke-miterlimit="10" points="24.855,60.851 27.843,63.779 
					29.248,59.838 32.088,62.91 33.684,59.043 36.37,62.252 38.154,58.467 40.68,61.803 42.647,58.11 45.007,61.564 47.151,57.971 
					49.341,61.536 51.656,58.051 53.671,61.718 56.153,58.35 57.986,62.111 60.63,58.868 62.277,62.714 65.077,59.605 
					66.532,63.528 69.483,60.561 				"/>
			</g>
			<g clip-path="url(#SVGID_2_)">
				<polyline fill="none" stroke="#DD4C4C" stroke-width="1.0658" stroke-miterlimit="10" points="24.976,75.4 27.779,78.506 
					29.361,74.633 32.102,77.793 33.769,73.956 36.428,77.185 38.202,73.397 40.755,76.709 42.664,72.987 45.086,76.397 
					47.152,72.761 49.412,76.279 51.654,72.749 53.727,76.38 56.155,72.976 58.023,76.717 60.638,73.454 62.295,77.293 
					65.084,74.18 66.535,78.102 69.483,75.136 				"/>
			</g>
			<g clip-path="url(#SVGID_2_)">
				<polyline fill="none" stroke="#DD4C4C" stroke-width="1.0658" stroke-miterlimit="10" points="25.014,82.503 27.761,85.658 
					29.382,81.798 32.126,84.958 33.763,81.106 36.482,84.286 38.157,80.452 40.824,83.673 42.574,79.874 45.159,83.163 
					47.038,79.424 49.483,82.818 51.541,79.177 53.782,82.706 56.07,79.206 58.058,82.883 60.592,79.558 62.31,83.37 65.068,80.231 
					66.536,84.148 69.483,81.179 				"/>
			</g>
		</g>
	</g>
	<g>
		<path fill="#AA8676" d="M50.483,54.361c10.097,12.242,10.01,17.632,10.596,28.985c1.255,24.321,3.734,52.122,5.369,63.526
			c1.169-2.661,12.163-4.576,15.038-5.006c-3.483-16.516-15.001-50.638-19.358-66.891c-3.421-12.762-5.599-17.008-8.6-20.454
			C52.539,53.72,51.306,53.849,50.483,54.361z"/>
		
			<line fill="none" stroke="#AA8676" stroke-width="0.3553" stroke-miterlimit="10" x1="73.228" y1="143.346" x2="75.138" y2="157.251"/>
		
			<line fill="none" stroke="#AA8676" stroke-width="0.3553" stroke-miterlimit="10" x1="80.527" y1="139.753" x2="83.816" y2="154.902"/>
		
			<line fill="none" stroke="#AA8676" stroke-width="0.3553" stroke-miterlimit="10" x1="79.062" y1="139.708" x2="82.351" y2="154.856"/>
		
			<line fill="none" stroke="#AA8676" stroke-width="0.3553" stroke-miterlimit="10" x1="78.02" y1="139.934" x2="81.309" y2="155.082"/>
		
			<line fill="none" stroke="#AA8676" stroke-width="0.3553" stroke-miterlimit="10" x1="74.686" y1="141.749" x2="76.799" y2="156.527"/>
		
			<line fill="none" stroke="#AA8676" stroke-width="0.3553" stroke-miterlimit="10" x1="76.576" y1="141.917" x2="78.355" y2="155.724"/>
		
			<line fill="none" stroke="#AA8676" stroke-width="0.3553" stroke-miterlimit="10" x1="77.378" y1="141.717" x2="80.332" y2="155.321"/>
	</g>
	<path fill="#F5D2B9" d="M90.955,263.241c-1.715-0.598-3.871-2.351-4.8-3.912c-3.613-6.066-6.671-6.947-7.836-14.094
		c-2.623-16.099,1.889-33.093-1.97-48.941c-0.961-3.947-0.202-8.666-1.19-12.606c2.234-16.151,1.761-42.969-2.353-60.788
		c-9.724-0.139-20.267,4.41-23.155,13.276c0.943-0.402,1.612-0.366,2.838,0.358l0.6,0.251c0.901,3.619,0.824,6.648,0.985,10.374
		c0.435,10.034,5.905,23.082,7.279,33.031c0.472,3.419,3.668,11.278,4.432,14.644c1.341,5.908-2.437,11.098-2.034,19.324
		c0.506,10.342,6.243,22.297,8.425,32.419c0,0-4.77,6.13-4.013,10.159c2.393,1.788,7.1,2.795,8.963,5.13
		c6.677,8.367,14.747,7.219,17.451,4.622C93.867,264.583,93.026,263.963,90.955,263.241z"/>
	<path fill="#C2CBCE" d="M73.771,127.591c-0.095-0.521-0.193-1.036-0.294-1.546c-0.013-0.065-0.026-0.128-0.039-0.193
		c-0.085-0.427-0.172-0.849-0.26-1.267c-0.021-0.101-0.043-0.202-0.064-0.302c-0.094-0.435-0.189-0.866-0.287-1.291
		c-0.009-0.04-0.018-0.081-0.028-0.122c-0.11-0.477-0.223-0.947-0.339-1.411c-0.014-0.057-0.029-0.114-0.044-0.171
		c-0.098-0.39-0.198-0.774-0.3-1.153c-0.028-0.105-0.056-0.209-0.085-0.313c-0.1-0.365-0.201-0.726-0.304-1.081
		c-0.02-0.068-0.039-0.138-0.059-0.206c-0.125-0.424-0.252-0.842-0.382-1.251c-0.017-0.052-0.034-0.103-0.05-0.155
		c-0.111-0.346-0.224-0.685-0.338-1.019c-0.036-0.104-0.071-0.206-0.107-0.309c-0.105-0.301-0.212-0.597-0.321-0.888
		c-0.031-0.083-0.062-0.168-0.093-0.251c-0.139-0.366-0.28-0.725-0.425-1.075c-0.018-0.042-0.036-0.083-0.053-0.125
		c-0.125-0.301-0.253-0.595-0.382-0.882c-0.043-0.096-0.087-0.191-0.131-0.285c-0.112-0.243-0.225-0.48-0.34-0.713
		c-0.042-0.085-0.083-0.171-0.125-0.254c-0.154-0.304-0.31-0.602-0.469-0.888c-0.014-0.025-0.029-0.049-0.043-0.074
		c-0.145-0.258-0.292-0.507-0.441-0.748c-0.05-0.081-0.1-0.159-0.151-0.239c-0.121-0.19-0.243-0.375-0.367-0.555
		c-0.05-0.073-0.1-0.147-0.151-0.219c-0.17-0.239-0.342-0.471-0.518-0.69c-0.097-0.121-0.2-0.247-0.305-0.376
		c-0.226-0.278-0.47-0.575-0.725-0.89c-0.002-0.002-0.003-0.004-0.005-0.006c-0.118-0.146-0.239-0.295-0.362-0.449
		c-0.013-0.016-0.025-0.031-0.038-0.047c-0.114-0.143-0.23-0.289-0.348-0.439c-0.019-0.024-0.038-0.048-0.057-0.072
		c-0.113-0.144-0.227-0.291-0.342-0.442c-0.023-0.03-0.046-0.06-0.069-0.09c-0.113-0.147-0.226-0.298-0.341-0.452
		c-0.026-0.034-0.051-0.068-0.077-0.103c-0.113-0.153-0.227-0.31-0.342-0.469c-0.947-1.318-1.215-3.558-2.09-5.328
		c-8.91,2.687-19.689,3.881-28.988,3.529c-0.253,1.574-0.026,3.833-0.76,5.3c-0.128,0.257-0.258,0.515-0.387,0.773
		c-0.154,0.307-0.308,0.615-0.462,0.924c-0.094,0.189-0.189,0.377-0.283,0.566c-0.102,0.204-0.203,0.409-0.305,0.613
		c-0.087,0.176-0.175,0.351-0.261,0.527c-0.102,0.207-0.203,0.414-0.304,0.621c-0.085,0.174-0.171,0.347-0.255,0.521
		c-0.101,0.208-0.2,0.416-0.3,0.624c-0.083,0.174-0.168,0.347-0.25,0.52c-0.093,0.196-0.184,0.392-0.276,0.588
		c-0.087,0.186-0.175,0.371-0.261,0.557c-0.094,0.203-0.184,0.406-0.276,0.609c-0.081,0.178-0.163,0.355-0.242,0.533
		c-0.097,0.217-0.19,0.434-0.284,0.651c-0.071,0.163-0.144,0.326-0.213,0.488c-0.095,0.222-0.184,0.442-0.276,0.663
		c-0.065,0.157-0.132,0.314-0.195,0.471c-0.082,0.203-0.159,0.405-0.238,0.607c-0.068,0.174-0.138,0.348-0.204,0.521
		c-0.07,0.184-0.133,0.366-0.2,0.549c-0.069,0.19-0.141,0.38-0.207,0.569c-0.069,0.196-0.13,0.391-0.195,0.586
		c-0.058,0.174-0.119,0.348-0.173,0.521c-0.068,0.216-0.129,0.43-0.192,0.644c-0.044,0.15-0.093,0.302-0.134,0.451
		c-0.058,0.209-0.108,0.414-0.161,0.621c-0.039,0.153-0.083,0.308-0.119,0.46c-0.047,0.197-0.085,0.39-0.126,0.585
		c-0.034,0.16-0.073,0.321-0.103,0.48c-0.068,0.352-0.126,0.701-0.175,1.047c-0.11,0.781-0.224,1.549-0.343,2.309
		c-0.067,0.433-0.138,0.856-0.208,1.283c-0.05,0.307-0.099,0.618-0.151,0.923c-0.1,0.592-0.203,1.175-0.306,1.756
		c-0.021,0.117-0.041,0.237-0.062,0.354c-0.123,0.683-0.247,1.357-0.373,2.026c0,0.001,0,0.002-0.001,0.003
		c2.873-0.801,5.912-1.006,8.857-0.536c5.481,0.875,10.337,3.878,14.995,6.929c0.092-0.325,0.184-0.643,0.277-0.955
		c0.009-0.029,0.017-0.058,0.026-0.087c0.094-0.315,0.19-0.624,0.286-0.925c0.004-0.013,0.008-0.025,0.012-0.037
		c0.086-0.266,0.172-0.526,0.26-0.78c0.022-0.065,0.045-0.129,0.067-0.193c0.093-0.266,0.187-0.528,0.283-0.779
		c1.695-0.932,2.329-1.214,3.994-0.23l0.6,0.251c0.097,0.388,0.18,0.769,0.256,1.145c0.004,0.019,0.008,0.039,0.012,0.058
		c0.076,0.382,0.141,0.758,0.199,1.13C59.347,133.865,66.301,129.899,73.771,127.591C73.771,127.591,73.771,127.591,73.771,127.591z
		"/>
	<path fill="#A75B26" d="M49.88,13.669c3.398-0.159,6.718,2.414,7.412,5.744c0.897,4.3-2.15,8.975-0.386,12.998
		c-0.874-1.307-0.929-3.059-0.216-4.461c0.713-1.402,1.773-2.612,2.413-4.049c1.297-2.913,0.557-6.608-1.762-8.798
		C55.022,12.914,52.714,12.207,49.88,13.669z"/>
	<g>
		<g>
			<path fill="#C2CBCE" d="M57.665,45.312c-1.976-1.919-4.284-3.444-6.798-4.358c-0.872,1.731-0.005,3.899,1.387,5.247
				c0.666,0.645,1.433,1.16,2.23,1.636c1.167,0.058,2.333,0.115,3.5,0.173C57.837,47.102,57.75,46.207,57.665,45.312z"/>
			<path fill="#FFFAEE" d="M57.984,48.009c-1.167-0.058-2.333-0.115-3.5-0.173c0.868,0.519,1.773,0.992,2.626,1.532
				c3.32,2.101,5.91,5.332,7.238,9.029c-0.609-4.818-3.097-9.603-6.683-13.086C57.75,46.207,57.837,47.102,57.984,48.009z"/>
		</g>
		<g>
			<circle fill="none" stroke="#FDB734" stroke-width="0.3495" stroke-miterlimit="10" cx="47.822" cy="37.165" r="3.369"/>
			<circle fill="#DA92BF" cx="50.917" cy="40.862" r="0.777"/>
		</g>
	</g>
	<g>
		<path fill="#F5D2B9" d="M40.393,36.193c1.024,4.232,11.082,6.585,12.115,6.668c1.033,0.083,1.767-0.237,2.409-1.051
			c0.449-0.57,0.465-1.171,0.38-2.132c-0.042-0.48,0.558-1.3,0.989-1.516c0.027-0.014,1.225-1.22-0.384-2.074
			c0.745-0.375,1.596-0.159,1.429-1.531c-0.301-0.368-0.252-1.795-0.252-1.795c1.359-0.213,2.123-0.835,2.123-1.9
			c-2.355-1.741-4.623-4.048-3.701-6.827c1.261-3.798,0.604-8.302-2.207-11.151c-3.44,0.768-7.303,1.406-9.43,4.216
			c-2.127,2.81-1.686,6.717-3.368,10.599c0.023-1.185-3.706-4.68-4.727-1.131c-0.328,1.139-0.127,3.459,0.615,4.384
			c0.742,0.924,1.893,1.821,3.071,1.953C39.455,32.905,39.76,33.578,40.393,36.193z"/>
	</g>
	<g>
		<path fill="#F5D2B9" d="M23.432,134.126c0-0.001,0-0.002,0.001-0.003c-1.714,9.106-3.673,17.042-4.125,25.703
			c-0.587,11.259,2.04,26.512-1.748,37.415c-2.854,8.213-7.687,16.598-7.301,25.284c0.333,7.479,1.733,16.025,2.066,23.504
			c0.387,8.687-4.11,14.985-3.951,23.68c0.023,1.259,1.701,2.388,2.753,3.08s2.358,0.932,3.615,0.85
			c1.257-0.082,5.077-1.102,5.066-2.362c-0.046-5.098-2.628-10.768-1.776-17.841c0.202-1.68,0.162-2.987,0.185-4.679l0.152-0.604
			c-0.335-6.212,1.85-13.429,3.314-19.475c2.128-8.788,3.901-20.419,6.029-29.207c7.635-15.997,9.03-25.047,13.577-37.026
			c2.71-7.14,4.237-15.674,5.997-21.925c-4.658-3.052-9.514-6.055-14.995-6.929C29.344,133.12,26.304,133.325,23.432,134.126z"/>
	</g>
	<g>
		<g>
			<path fill="#C2CBCE" d="M23.579,134.137c0,0-0.063,0.101-0.191,0.252c-0.117,0.157-0.345,0.332-0.558,0.551
				c-0.115,0.101-0.236,0.214-0.384,0.308c-0.158,0.09-0.324,0.186-0.496,0.285c-0.382,0.17-0.643,0.523-0.84,0.901
				c-0.086,0.2-0.164,0.4-0.269,0.575c-0.11,0.172-0.19,0.358-0.274,0.532c-0.183,0.34-0.355,0.652-0.528,0.915
				c-0.185,0.257-0.312,0.49-0.431,0.645c-0.117,0.156-0.197,0.244-0.197,0.244l-0.068-0.02c0,0-0.01-0.114-0.004-0.313
				c0.021-0.193,0.014-0.49,0.119-0.808c0.05-0.16,0.105-0.334,0.179-0.512c0.061-0.184,0.183-0.35,0.297-0.525
				c0.226-0.353,0.525-0.692,0.872-0.975c0.178-0.138,0.358-0.269,0.496-0.432c0.138-0.164,0.275-0.322,0.386-0.504
				c0.124-0.168,0.216-0.364,0.366-0.489c0.144-0.131,0.3-0.231,0.44-0.325c0.285-0.19,0.547-0.247,0.738-0.304
				c0.192-0.047,0.31-0.059,0.31-0.059L23.579,134.137z"/>
		</g>
		<g>
			<path fill="#C2CBCE" d="M25.951,133.794c0,0-0.061,0.113-0.186,0.285c-0.105,0.181-0.364,0.379-0.537,0.652
				c-0.183,0.27-0.469,0.495-0.779,0.808c-0.16,0.148-0.323,0.313-0.397,0.528c-0.095,0.205-0.144,0.434-0.195,0.654
				c-0.012,0.234-0.016,0.464-0.055,0.677c-0.051,0.212-0.04,0.429-0.045,0.634c0.004,0.205-0.044,0.401-0.036,0.587
				c0.005,0.186-0.007,0.364-0.017,0.531c-0.048,0.337,0.007,0.613-0.014,0.824c-0.009,0.209-0.025,0.338-0.025,0.338l-0.067,0.024
				c0,0-0.072-0.097-0.181-0.284c-0.058-0.093-0.109-0.212-0.178-0.349c-0.078-0.136-0.135-0.298-0.165-0.481
				c-0.034-0.182-0.071-0.383-0.094-0.596c-0.041-0.214,0.017-0.438,0.045-0.669c0.043-0.229,0.066-0.468,0.164-0.695
				c0.079-0.23,0.194-0.452,0.301-0.669c0.137-0.207,0.277-0.405,0.367-0.62c0.084-0.22,0.196-0.419,0.269-0.64
				c0.095-0.208,0.136-0.446,0.282-0.612c0.135-0.172,0.287-0.314,0.423-0.445c0.138-0.135,0.274-0.224,0.407-0.281
				c0.128-0.066,0.245-0.117,0.346-0.153c0.199-0.075,0.324-0.104,0.324-0.104L25.951,133.794z"/>
		</g>
		<g>
			<path fill="#C2CBCE" d="M28.526,132.878c0,0-0.029,0.144-0.105,0.38c-0.061,0.238-0.245,0.555-0.351,0.93
				c-0.126,0.37-0.342,0.762-0.589,1.221c-0.133,0.224-0.244,0.467-0.284,0.733c-0.058,0.262-0.067,0.537-0.077,0.808
				c0.019,0.276,0.046,0.548,0.036,0.811c-0.017,0.263,0.003,0.521,0.021,0.771c0.018,0.249,0.007,0.489,0.009,0.716
				c0.015,0.226,0.014,0.442,0.013,0.643c-0.028,0.406,0.014,0.737,0.004,0.983c-0.005,0.245-0.02,0.392-0.02,0.392l-0.068,0.02
				c0,0-0.075-0.12-0.187-0.344c-0.094-0.226-0.286-0.552-0.358-0.971c-0.043-0.209-0.09-0.437-0.124-0.68
				c-0.036-0.243-0.016-0.501-0.005-0.767c0.012-0.532,0.128-1.093,0.295-1.633c0.096-0.268,0.2-0.53,0.251-0.798
				c0.048-0.269,0.1-0.532,0.129-0.798c0.042-0.262,0.047-0.529,0.127-0.763c0.088-0.234,0.2-0.443,0.299-0.636
				c0.193-0.398,0.456-0.618,0.628-0.799c0.179-0.171,0.297-0.259,0.297-0.259L28.526,132.878z"/>
		</g>
		<g>
			<path fill="#C2CBCE" d="M32.715,133.313c0,0,0.039,0.118,0.077,0.32c0.032,0.205,0.082,0.482,0.039,0.832
				c-0.023,0.173-0.042,0.362-0.095,0.556c-0.05,0.194-0.174,0.377-0.266,0.573c-0.108,0.192-0.188,0.397-0.261,0.607
				c-0.075,0.21-0.102,0.44-0.134,0.671c-0.068,0.462-0.207,0.907-0.386,1.303c-0.088,0.199-0.17,0.394-0.288,0.556
				c-0.112,0.166-0.231,0.315-0.34,0.451c-0.212,0.276-0.471,0.448-0.624,0.58c-0.167,0.123-0.27,0.183-0.27,0.183l-0.055-0.046
				c0,0,0.032-0.12,0.101-0.311c0.068-0.193,0.196-0.436,0.315-0.749c0.135-0.302,0.304-0.638,0.504-0.994
				c0.109-0.174,0.221-0.354,0.317-0.547c0.098-0.192,0.234-0.374,0.363-0.562c0.236-0.383,0.413-0.804,0.39-1.24
				c0.002-0.431,0.031-0.806,0.133-1.118c0.102-0.309,0.171-0.596,0.262-0.78c0.083-0.188,0.148-0.294,0.148-0.294L32.715,133.313z"
				/>
		</g>
		<g>
			<path fill="#C2CBCE" d="M33.842,137.891c0,0-0.06-0.35,0.076-0.757c0.038-0.099,0.075-0.21,0.142-0.311
				c0.066-0.102,0.178-0.188,0.275-0.287c0.222-0.183,0.333-0.443,0.363-0.746c0.02-0.31,0.128-0.576,0.216-0.832
				c0.092-0.254,0.232-0.462,0.367-0.63c0.278-0.332,0.555-0.493,0.555-0.493l0.061,0.037c0,0,0.029,0.345-0.067,0.774
				c-0.052,0.212-0.13,0.448-0.271,0.669c-0.146,0.219-0.286,0.46-0.516,0.657c-0.219,0.204-0.357,0.45-0.369,0.743
				c-0.02,0.139-0.021,0.283-0.062,0.398c-0.039,0.116-0.104,0.212-0.159,0.302c-0.238,0.353-0.547,0.51-0.547,0.51L33.842,137.891z
				"/>
		</g>
		<g>
			<path fill="#C2CBCE" d="M38.117,134.718c0,0,0.009,0.09-0.002,0.231c-0.006,0.14-0.066,0.334-0.095,0.529
				c-0.036,0.193-0.149,0.392-0.328,0.625c-0.199,0.221-0.219,0.523-0.173,0.816c0.031,0.149,0.07,0.295,0.071,0.434
				c0.001,0.139,0.011,0.275,0.026,0.406c0.013,0.262-0.015,0.5-0.045,0.71c-0.079,0.416-0.173,0.731-0.19,0.736l-0.069,0.016
				c0,0-0.057-0.062-0.136-0.181c-0.069-0.12-0.186-0.302-0.237-0.528c-0.064-0.227-0.105-0.499-0.058-0.784
				c0.034-0.286,0.107-0.586,0.253-0.867c0.069-0.141,0.145-0.277,0.168-0.421c0.027-0.143,0.032-0.288,0.02-0.438
				c-0.002-0.147-0.026-0.298-0.001-0.429c0.036-0.135,0.101-0.252,0.156-0.359c0.115-0.221,0.264-0.33,0.38-0.414
				c0.116-0.08,0.198-0.117,0.198-0.117L38.117,134.718z"/>
		</g>
		<g>
			<path fill="#C2CBCE" d="M41.008,136.286c0,0,0.206,0.374,0.259,0.934c0.008,0.14,0.023,0.291,0.006,0.451
				c-0.015,0.16-0.08,0.328-0.124,0.503c-0.121,0.348-0.109,0.721-0.006,1.095c0.116,0.374,0.133,0.747,0.165,1.096
				c0.027,0.35-0.01,0.675-0.059,0.955c-0.107,0.558-0.289,0.929-0.289,0.929l-0.071-0.001c0,0-0.176-0.374-0.274-0.934
				c-0.044-0.28-0.076-0.606-0.043-0.955c0.037-0.349,0.06-0.722,0.182-1.093c0.11-0.372,0.128-0.744,0.012-1.095
				c-0.042-0.175-0.103-0.344-0.116-0.505c-0.015-0.16,0.003-0.312,0.013-0.451c0.062-0.559,0.274-0.93,0.274-0.93L41.008,136.286z"
				/>
		</g>
		<g>
			<path fill="#C2CBCE" d="M44.084,138.266c0,0,0.137,0.349,0.095,0.807c-0.015,0.113-0.026,0.238-0.069,0.361
				c-0.041,0.124-0.132,0.242-0.204,0.37c-0.175,0.248-0.226,0.547-0.188,0.87c0.05,0.326,0.005,0.627-0.023,0.913
				c-0.032,0.285-0.122,0.535-0.216,0.746c-0.197,0.418-0.435,0.669-0.435,0.669l-0.069-0.018c0,0-0.108-0.341-0.11-0.811
				c0.004-0.234,0.028-0.501,0.117-0.771c0.094-0.269,0.179-0.56,0.359-0.826c0.168-0.269,0.248-0.561,0.194-0.869
				c-0.011-0.15-0.043-0.3-0.028-0.43c0.013-0.131,0.054-0.247,0.088-0.356c0.153-0.43,0.42-0.673,0.42-0.673L44.084,138.266z"/>
		</g>
		<g>
			<path fill="#C2CBCE" d="M43.862,147.462c0.152-0.323,0.321-0.637,0.493-0.942c0.133-0.318,0.252-0.631,0.39-0.932
				c0.097-0.327,0.217-0.643,0.322-0.964c0.077-0.33,0.167-0.655,0.281-0.979l0.237-1.004c0.048-0.341,0.072-0.688,0.081-1.034
				c-0.027-0.345-0.087-0.687-0.135-1.028c-0.104-0.331-0.217-0.655-0.329-0.975l-0.329-0.941l0.721,0.723
				c0.465,0.466,0.873,0.985,1.241,1.529l0.523,0.837c0.143,0.297,0.299,0.589,0.43,0.892c0.12,0.309,0.229,0.624,0.325,0.94
				c0.093,0.318,0.141,0.654,0.211,0.977c0.043,0.16,0.027,0.335,0.035,0.501l0.008,0.5c0.018,0.164-0.055,0.334-0.08,0.496
				c-0.035,0.163-0.071,0.324-0.114,0.479l-0.07-0.014l-0.039-0.481c-0.019-0.157-0.003-0.309-0.048-0.463
				c-0.079-0.307-0.122-0.609-0.225-0.903c-0.107-0.294-0.186-0.591-0.311-0.876c-0.138-0.281-0.246-0.571-0.377-0.853
				c-0.278-0.559-0.548-1.12-0.855-1.669c-0.156-0.272-0.333-0.531-0.487-0.806c-0.168-0.265-0.353-0.518-0.518-0.79l0.391-0.218
				l0.164,1.069l0.084,1.064c-0.002,0.355,0.018,0.709,0.049,1.069L45.9,143.75c-0.052,0.357-0.134,0.712-0.225,1.063
				c-0.13,0.339-0.269,0.676-0.418,1.005c-0.174,0.325-0.399,0.625-0.593,0.927c-0.227,0.27-0.484,0.515-0.744,0.76L43.862,147.462z
				"/>
		</g>
		<g>
			<path fill="#C2CBCE" d="M54.311,138.174c0,0,0.042,0.418-0.127,0.941c-0.047,0.129-0.092,0.27-0.171,0.407
				c-0.076,0.137-0.201,0.263-0.31,0.401c-0.247,0.264-0.382,0.603-0.433,0.979c-0.039,0.381-0.169,0.722-0.277,1.048
				c-0.112,0.324-0.273,0.601-0.427,0.832c-0.316,0.458-0.628,0.718-0.628,0.718l-0.065-0.029c0,0-0.015-0.406,0.114-0.947
				c0.069-0.269,0.167-0.574,0.333-0.874c0.17-0.298,0.337-0.623,0.594-0.907c0.246-0.289,0.408-0.616,0.438-0.977
				c0.03-0.174,0.04-0.35,0.091-0.499c0.049-0.15,0.124-0.278,0.188-0.399c0.275-0.476,0.614-0.724,0.614-0.724L54.311,138.174z"/>
		</g>
		<g>
			<path fill="#C2CBCE" d="M55.963,136.317c0,0,0.339,0.293,0.608,0.826c0.063,0.135,0.136,0.279,0.183,0.444
				c0.056,0.159,0.021,0.376,0.03,0.57c-0.024,0.407,0.079,0.782,0.278,1.161c0.156,0.383,0.215,0.789,0.284,1.168
				c0.025,0.19,0.069,0.375,0.037,0.551c-0.016,0.176-0.047,0.342-0.076,0.494c-0.131,0.609-0.327,0.985-0.327,0.985l-0.071-0.008
				c0,0-0.16-0.416-0.236-0.995c-0.015-0.145-0.031-0.301-0.031-0.465c0-0.164-0.036-0.336-0.031-0.516
				c0-0.361-0.015-0.744,0.067-1.15c0.016-0.393-0.062-0.789-0.258-1.105c-0.173-0.315-0.344-0.619-0.412-0.913
				c-0.163-0.575-0.112-1.02-0.112-1.02L55.963,136.317z"/>
		</g>
		<g>
			<path fill="#C2CBCE" d="M58.539,135.16c0,0,0.313,0.242,0.542,0.695c0.053,0.115,0.115,0.237,0.151,0.378
				c0.037,0.14,0.031,0.305,0.046,0.468c-0.001,0.337,0.13,0.647,0.347,0.924c0.229,0.274,0.364,0.582,0.506,0.865
				c0.137,0.285,0.208,0.573,0.252,0.825c0.079,0.508,0.029,0.886,0.029,0.886l-0.067,0.025c0,0-0.285-0.253-0.556-0.69
				c-0.131-0.22-0.266-0.484-0.348-0.79c-0.077-0.307-0.176-0.629-0.181-0.986c-0.017-0.352-0.12-0.672-0.341-0.927
				c-0.095-0.133-0.207-0.253-0.271-0.384c-0.065-0.13-0.098-0.263-0.133-0.385c-0.122-0.493-0.043-0.88-0.043-0.88L58.539,135.16z"
				/>
		</g>
		<g>
			<path fill="#C2CBCE" d="M60.37,133.457c0,0,0.247,0.182,0.365,0.503c0.025,0.081,0.057,0.168,0.06,0.266
				c0.004,0.098-0.039,0.209-0.062,0.321c-0.077,0.229-0.022,0.447,0.125,0.648c0.158,0.199,0.22,0.416,0.292,0.617
				c0.068,0.202,0.07,0.401,0.056,0.575c-0.039,0.35-0.173,0.604-0.173,0.604l-0.07,0.013c0,0-0.217-0.188-0.38-0.5
				c-0.077-0.157-0.146-0.344-0.156-0.557c-0.005-0.213-0.027-0.438,0.049-0.681c0.064-0.241,0.037-0.464-0.118-0.649
				c-0.062-0.096-0.143-0.184-0.174-0.276c-0.033-0.092-0.035-0.185-0.041-0.269c-0.006-0.342,0.158-0.601,0.158-0.601
				L60.37,133.457z"/>
		</g>
		<g>
			<path fill="#C2CBCE" d="M62.135,132.569c0,0,0.28,0.165,0.458,0.498c0.04,0.085,0.089,0.175,0.109,0.281
				c0.022,0.105,0,0.233-0.001,0.357c-0.034,0.259,0.063,0.489,0.246,0.688c0.195,0.195,0.297,0.423,0.407,0.632
				c0.105,0.21,0.146,0.427,0.164,0.618c0.027,0.386-0.058,0.68-0.058,0.68l-0.067,0.024c0,0-0.251-0.175-0.472-0.493
				c-0.106-0.161-0.211-0.355-0.26-0.584c-0.045-0.231-0.109-0.473-0.08-0.747c0.018-0.27-0.051-0.51-0.24-0.69
				c-0.079-0.096-0.176-0.181-0.225-0.277c-0.051-0.096-0.069-0.196-0.091-0.287c-0.07-0.371,0.044-0.675,0.044-0.675
				L62.135,132.569z"/>
		</g>
		<g>
			<path fill="#C2CBCE" d="M63.838,131.941c0,0,0.315,0.07,0.583,0.329c0.063,0.068,0.136,0.138,0.187,0.231
				c0.053,0.093,0.069,0.22,0.105,0.337c0.045,0.255,0.205,0.442,0.438,0.574c0.243,0.124,0.407,0.308,0.574,0.471
				c0.162,0.166,0.265,0.358,0.339,0.533c0.141,0.356,0.146,0.66,0.146,0.66l-0.057,0.043c0,0-0.291-0.088-0.595-0.32
				c-0.148-0.119-0.305-0.27-0.421-0.471c-0.112-0.204-0.244-0.413-0.297-0.68c-0.063-0.26-0.2-0.465-0.433-0.578
				c-0.104-0.066-0.221-0.117-0.296-0.192c-0.076-0.075-0.124-0.164-0.172-0.243c-0.177-0.329-0.158-0.651-0.158-0.651
				L63.838,131.941z"/>
		</g>
		<g>
			<path fill="#C2CBCE" d="M66.996,130.154c0,0,0.195,0.208,0.231,0.502c0.004,0.073,0.015,0.153-0.007,0.235
				c-0.02,0.082-0.089,0.165-0.139,0.253c-0.131,0.173-0.13,0.367-0.037,0.568c0.105,0.202,0.111,0.396,0.133,0.58
				c0.016,0.183-0.03,0.35-0.086,0.492c-0.123,0.283-0.315,0.463-0.315,0.463l-0.071-0.005c0,0-0.164-0.206-0.246-0.503
				c-0.036-0.148-0.058-0.32-0.016-0.499c0.047-0.179,0.081-0.371,0.214-0.555c0.12-0.186,0.149-0.378,0.044-0.567
				c-0.036-0.094-0.093-0.186-0.101-0.27c-0.01-0.084,0.012-0.162,0.026-0.233c0.078-0.286,0.3-0.464,0.3-0.464L66.996,130.154z"/>
		</g>
		<g>
			<path fill="#C2CBCE" d="M68.71,129.308c0,0,0.096-0.001,0.248,0.024c0.152,0.038,0.355,0.052,0.575,0.219
				c0.107,0.082,0.227,0.169,0.331,0.285c0.111,0.112,0.143,0.286,0.215,0.432c0.054,0.159,0.137,0.295,0.214,0.44
				c0.078,0.143,0.202,0.262,0.326,0.39c0.228,0.265,0.403,0.579,0.489,0.897c0.045,0.158,0.105,0.311,0.093,0.465
				c0.003,0.153-0.011,0.297-0.024,0.428c-0.012,0.131-0.043,0.249-0.093,0.351c-0.044,0.102-0.074,0.189-0.114,0.258
				c-0.074,0.138-0.127,0.21-0.127,0.21l-0.07-0.013c0,0-0.038-0.089-0.084-0.232c-0.051-0.143-0.067-0.336-0.146-0.557
				c-0.029-0.111-0.061-0.228-0.077-0.353c-0.017-0.125-0.064-0.251-0.074-0.39c-0.015-0.138-0.022-0.286-0.066-0.427
				c-0.038-0.142-0.043-0.303-0.056-0.468c-0.039-0.152-0.077-0.312-0.159-0.444c-0.066-0.142-0.197-0.238-0.33-0.317
				c-0.264-0.168-0.474-0.288-0.602-0.469c-0.123-0.179-0.308-0.322-0.379-0.455c-0.086-0.128-0.126-0.215-0.126-0.215
				L68.71,129.308z"/>
		</g>
		<g>
			<path fill="#C2CBCE" d="M70.921,129.093c0,0,0.083-0.018,0.215-0.022c0.135,0.005,0.305-0.008,0.509,0.095
				c0.098,0.052,0.21,0.106,0.308,0.19c0.104,0.08,0.151,0.223,0.225,0.338c0.062,0.129,0.146,0.232,0.234,0.335
				c0.087,0.103,0.215,0.174,0.342,0.252c0.252,0.159,0.452,0.38,0.596,0.613c0.072,0.116,0.15,0.227,0.174,0.353
				c0.036,0.121,0.055,0.241,0.071,0.349c0.036,0.217-0.022,0.415-0.04,0.542c-0.032,0.13-0.064,0.202-0.064,0.202l-0.07,0.01
				c0,0-0.061-0.059-0.143-0.158c-0.084-0.099-0.164-0.242-0.284-0.398c-0.108-0.161-0.204-0.346-0.295-0.558
				c-0.064-0.228-0.202-0.429-0.249-0.714c-0.09-0.253-0.252-0.483-0.522-0.54c-0.116-0.042-0.229-0.082-0.336-0.12
				c-0.094-0.042-0.165-0.109-0.234-0.167c-0.123-0.134-0.281-0.246-0.35-0.357c-0.079-0.106-0.117-0.182-0.117-0.182
				L70.921,129.093z"/>
		</g>
		<g>
			<path fill="#C2CBCE" d="M72.756,128.045c0,0,0.293-0.099,0.63-0.012c0.082,0.026,0.174,0.049,0.257,0.103
				c0.084,0.052,0.153,0.152,0.234,0.235c0.148,0.195,0.363,0.274,0.615,0.269c0.257-0.016,0.474,0.058,0.684,0.113
				c0.208,0.06,0.377,0.172,0.515,0.284c0.272,0.233,0.408,0.488,0.408,0.488l-0.029,0.065c0,0-0.281,0.071-0.636,0.026
				c-0.175-0.027-0.372-0.077-0.556-0.19c-0.182-0.118-0.383-0.229-0.543-0.43c-0.166-0.19-0.369-0.296-0.612-0.275
				c-0.115-0.004-0.236,0.012-0.331-0.015c-0.096-0.025-0.175-0.077-0.249-0.121c-0.29-0.191-0.414-0.475-0.414-0.475
				L72.756,128.045z"/>
		</g>
	</g>
	<path fill="#AA8676" d="M31.608,49.314c-2.253,16.822-5.477,85.824-4.266,102.753c-1.707-2.352-5.909-3.399-8.81-3.21
		c-0.101-16.879,2.889-53.595,6.038-70.125c3.116-4.294,2.37-18.571,4.246-27.673C29.614,50.066,31.608,49.314,31.608,49.314z"/>
	<g>
		<path fill="#F5D2B9" d="M27.983,51.963c-2.684-1.448-11.445,0.21-14.526,8.254c-0.352,0.919-1.835,4.735-3.643,9.589
			c3.006,1.289,5.913,2.809,8.687,4.544C22.26,66.128,26.344,57.669,27.983,51.963z"/>
		<path fill="#AA8676" d="M18.501,74.35c-2.774-1.734-5.68-3.254-8.687-4.544c-0.799,2.145-1.661,4.493-2.516,6.884
			c2.879,1.153,5.66,2.549,8.298,4.18C16.506,78.752,17.49,76.561,18.501,74.35z"/>
	</g>
	<path fill="#A75B26" d="M31.951,18.55c-3.152,3.283-3.74,8.318-3.045,12.816c0.694,4.498,2.474,8.757,3.433,13.206
		c0.959,4.449,0.994,9.41-1.53,13.197c3.191-3.486,4.263-7.748,4.371-12.473c0.109-4.725-0.741-9.415-1.075-14.129
		c-0.334-4.714-0.111-9.633,1.987-13.868C34.057,17.014,33.373,17.069,31.951,18.55z"/>
	<path fill="#A75B26" d="M34.549,17.394c-2.235,2.928-2.741,6.86-2.372,10.524c0.369,3.665,1.519,7.2,2.283,10.803
		c1.982,9.346,5.078,16.829-1.896,28.235c5.616-4.973,13.227-17.417,10.644-25.997c-3.327-11.056-4.16-16.852-5.48-25.714
		C36.026,15.093,35.586,16.035,34.549,17.394z"/>
	<path fill="#BC6628" d="M37.854,16.279c-0.356,5.028,1.443,9.921,2.471,14.856c1.028,4.935,1.127,10.567-2.069,14.466
		c3.039-3.349,4.315-7.302,4.757-11.803c0.442-4.501-0.079-9.035-0.599-13.528c-0.25-2.158-0.499-4.315-0.749-6.473
		C39.651,13.668,37.996,14.266,37.854,16.279z"/>
	<path fill="#BC6628" d="M54.056,12.584c1.696,0.317,0.113,2.876-1.125,5.139c-1.238,2.263-5.046,2.351-4.454,7.777
		c0.267,2.452,0.916,5.347,1.588,7.72c0.671,2.373,0.538,5.307-1.41,6.821c1.091-2.839,0.25-5.871-0.763-8.74
		c-1.012-2.869-2.469-5.583-3.227-8.529c-0.758-2.946-0.719-6.305,1.071-8.764C47.527,11.548,51.795,10.549,54.056,12.584z"/>
	<path fill="#DF8446" d="M48.613,14.606c-1.444-0.131-2.807,0.945-3.358,2.286c-0.552,1.341-0.426,2.873-0.044,4.271
		c0.382,1.399,1.006,2.72,1.447,4.101c1.179,3.691,1.41,8.526-1.552,11.371c1.057-2.817,1.06-4.718,0.327-6.973
		c-0.733-2.256-2.774-3.556-3.827-5.681s-1.832-4.535-1.319-6.851C41.044,13.706,45.22,13.71,48.613,14.606z"/>
	<path fill="#DF8446" d="M37.255,14.533c-0.127,4.48,1.068,8.878,1.624,13.325s0.384,9.27-2.148,12.968
		c3.25-4.919,4.576-10.217,3.901-16.074C40.225,21.221,38.392,17.903,37.255,14.533z"/>
	<g>
		<path fill="#F5D2B9" d="M38.879,27.859c-0.105-0.837-0.232-1.672-0.369-2.507c-1.054-0.571-2.233-0.55-2.742,1.217
			c-0.328,1.139-0.127,3.459,0.615,4.384c0.67,0.835,1.675,1.642,2.731,1.888C39.188,31.178,39.084,29.493,38.879,27.859z"/>
	</g>
	<path fill="#BC6628" d="M37.864,65.149c2.47-4.846,1.987-10.689,0.531-15.929c-1.455-5.241-3.809-10.217-4.985-15.527
		c-1.176-5.31-1.012-11.278,2.192-15.673c-0.635-1.027-2.121-1.354-2.863-0.401c-3.319,4.26-3.403,10.285-1.967,15.491
		c1.436,5.206,4.185,9.943,6.147,14.974c1.963,5.031,3.118,10.725,1.249,15.792"/>
	<g>
		<g>
			<g>
				
					<line fill="none" stroke="#DA92BF" stroke-width="1.0658" stroke-linecap="round" stroke-miterlimit="10" x1="90.691" y1="130.516" x2="83.702" y2="138.603"/>
			</g>
			
				<line fill="none" stroke="#FDB734" stroke-width="1.0658" stroke-linecap="round" stroke-miterlimit="10" x1="90.691" y1="130.516" x2="87.655" y2="134.029"/>
		</g>
		<g>
			
				<line fill="none" stroke="#F04B4B" stroke-width="1.0658" stroke-linecap="round" stroke-miterlimit="10" x1="89.652" y1="129.473" x2="82.608" y2="137.512"/>
			
				<line fill="none" stroke="#FDB734" stroke-width="1.0658" stroke-linecap="round" stroke-miterlimit="10" x1="85.092" y1="134.678" x2="82.608" y2="137.512"/>
		</g>
		<g>
			
				<line fill="none" stroke="#F04B4B" stroke-width="1.0658" stroke-linecap="round" stroke-miterlimit="10" x1="89.237" y1="128.377" x2="80.891" y2="135.054"/>
			
				<line fill="none" stroke="#DA92BF" stroke-width="1.0658" stroke-linecap="round" stroke-miterlimit="10" x1="89.237" y1="128.377" x2="84.587" y2="132.097"/>
		</g>
		<circle fill="#FDB734" cx="83.947" cy="140.375" r="1.163"/>
		<circle fill="#FDB734" cx="88.568" cy="136.095" r="1.163"/>
		<circle fill="#FDB734" cx="91.943" cy="132.581" r="1.163"/>
	</g>
	<g>
		<path fill="none" d="M47.697,83.961h1.623l-1.097-1.9c0.119,0.205,0.193,0.439,0.193,0.693
			C48.416,83.276,48.124,83.725,47.697,83.961z"/>
		<path fill="none" d="M45.648,82.754c0-0.255,0.074-0.491,0.194-0.696l-1.099,1.903h1.623
			C45.94,83.725,45.648,83.276,45.648,82.754z"/>
		<path fill="none" d="M49.678,82.754c0-1.287-0.924-2.362-2.144-2.597l1.997,3.459C49.625,83.345,49.678,83.056,49.678,82.754z"/>
		<path fill="none" d="M47.032,81.37c0.473,0,0.889,0.238,1.139,0.599l-1.073-1.858c-0.022-0.001-0.044-0.003-0.066-0.003
			c-0.022,0-0.044,0.003-0.066,0.003l-1.073,1.859C46.143,81.608,46.559,81.37,47.032,81.37z"/>
		<path fill="none" d="M47.032,85.401c0.875,0,1.65-0.429,2.132-1.085H44.9C45.382,84.972,46.157,85.401,47.032,85.401z"/>
		<path fill="none" d="M44.385,82.754c0,0.302,0.053,0.591,0.147,0.862l1.997-3.459C45.31,80.393,44.385,81.467,44.385,82.754z"/>
		<path fill="#FDB734" d="M46.941,51.855c-0.115-0.086-0.23-0.051-0.349-0.002l0.009,0.108c4.545,6.953,4.454,18.544,0.297,26.986
			c-7.331-7.767-11.7-18.043-12.282-28.671c-0.083,0.374-0.178,0.743-0.282,1.108c0.812,10.272,5.128,20.146,12.205,27.694
			c0.162-0.022,0.326-0.037,0.493-0.037c0.069,0,0.137,0.007,0.205,0.01C51.285,70.784,51.654,59.236,46.941,51.855z"/>
		<path fill="#FDB734" d="M50.744,82.754c0-1.978-1.556-3.594-3.507-3.702c-0.046,0.093-0.089,0.188-0.135,0.281l-0.02,0.04
			l0.453,0.784c1.22,0.236,2.144,1.31,2.144,2.597c0,0.302-0.053,0.591-0.147,0.862l0.404,0.7h-0.772
			c-0.482,0.656-1.257,1.085-2.132,1.085c-0.875,0-1.649-0.429-2.131-1.085h-0.772l0.404-0.7c-0.094-0.271-0.147-0.56-0.147-0.862
			c0-1.287,0.924-2.362,2.144-2.597l0.389-0.673l-0.103-0.108c-0.093-0.098-0.184-0.198-0.276-0.297
			c-1.814,0.243-3.219,1.796-3.219,3.675c0,1.488,0.883,2.772,2.15,3.363v-0.504h0.355v0.648c0.325,0.112,0.67,0.179,1.029,0.196
			v-0.524h0.355v0.524c0.359-0.017,0.704-0.084,1.029-0.196v-0.648h0.355v0.504C49.861,85.526,50.744,84.243,50.744,82.754z"/>
		<path fill="#FDB734" d="M47.098,80.111l-0.066-0.114l-0.066,0.114c0.022-0.001,0.044-0.003,0.066-0.003
			C47.054,80.108,47.075,80.111,47.098,80.111z"/>
		<path fill="#FDB734" d="M46.918,79.484l0.114-0.197l0.05,0.086l0.02-0.04c0.047-0.092,0.09-0.187,0.135-0.281
			c-0.068-0.004-0.136-0.01-0.205-0.01c-0.168,0-0.332,0.015-0.493,0.037c0.092,0.099,0.183,0.199,0.276,0.297L46.918,79.484z"/>
		<path fill="#FDB734" d="M48.17,81.969c0.02,0.029,0.035,0.061,0.053,0.092l1.097,1.9h-1.623c-0.198,0.11-0.423,0.178-0.666,0.178
			s-0.467-0.068-0.666-0.178h-1.623l1.099-1.903c0.017-0.029,0.032-0.06,0.051-0.088l1.073-1.859
			c-0.149,0.004-0.295,0.018-0.437,0.046l-1.997,3.459c0.088,0.253,0.212,0.488,0.368,0.7h4.263c0.156-0.212,0.28-0.447,0.368-0.7
			l-1.997-3.459c-0.142-0.027-0.288-0.042-0.437-0.046L48.17,81.969z"/>
		<path fill="#FDB734" d="M46.918,79.484l-0.389,0.673c0.142-0.027,0.288-0.042,0.437-0.046l0.066-0.114l0.066,0.114
			c0.149,0.004,0.295,0.019,0.437,0.046l-0.453-0.784l-0.093,0.185L46.918,79.484z"/>
		<path fill="#FDB734" d="M49.936,84.316l-0.404-0.7c-0.088,0.253-0.212,0.488-0.368,0.7H49.936z"/>
		<path fill="#FDB734" d="M44.128,84.316H44.9c-0.156-0.212-0.28-0.447-0.368-0.7L44.128,84.316z"/>
		<polygon fill="#FDB734" points="46.918,79.484 46.988,79.558 47.081,79.373 47.032,79.287 		"/>
		<path fill="#DA92BF" d="M47.032,81.37c-0.473,0-0.889,0.238-1.139,0.6l-0.051,0.088c-0.12,0.205-0.194,0.441-0.194,0.696
			c0,0.522,0.292,0.971,0.719,1.207h1.331c0.426-0.236,0.719-0.685,0.719-1.207c0-0.254-0.073-0.489-0.193-0.693l-0.053-0.092
			C47.921,81.608,47.504,81.37,47.032,81.37z"/>
		<path fill="#DA92BF" d="M48.17,81.969l0.053,0.092C48.205,82.03,48.19,81.998,48.17,81.969z"/>
		<path fill="#DA92BF" d="M47.032,84.138c0.243,0,0.467-0.068,0.666-0.178h-1.331C46.565,84.071,46.789,84.138,47.032,84.138z"/>
		<path fill="#DA92BF" d="M45.842,82.058l0.051-0.088C45.874,81.998,45.859,82.028,45.842,82.058z"/>
		<path fill="#FDB734" d="M46.854,86.457v6.359h0.355v-6.359c-0.059,0.003-0.118,0.009-0.178,0.009
			C46.972,86.466,46.913,86.46,46.854,86.457z"/>
		<path fill="#FDB734" d="M46.854,85.934v0.524c0.059,0.003,0.118,0.009,0.178,0.009c0.06,0,0.118-0.006,0.178-0.009v-0.524H46.854z
			"/>
		<path fill="#FDB734" d="M48.238,89.84h0.355v-3.723c-0.115,0.054-0.234,0.102-0.355,0.144V89.84z"/>
		<path fill="#FDB734" d="M48.238,85.613v0.648c0.121-0.042,0.24-0.09,0.355-0.144v-0.504H48.238z"/>
		<path fill="#FDB734" d="M45.47,89.84h0.355v-3.579c-0.121-0.042-0.24-0.09-0.355-0.144V89.84z"/>
		<path fill="#FDB734" d="M45.47,85.613v0.504c0.115,0.054,0.234,0.102,0.355,0.144v-0.648H45.47z"/>
	</g>
	<g>
		<path fill="#F8D8A1" d="M49.691,4.253c-7.808-5.465-24.678,0.309-27.535,10.351c0.784,6.054,2.752,6.293,2.47,8.809
			c8.39-6.616,18.489-11.048,29.031-12.783C52.117,8.619,50.816,6.389,49.691,4.253z"/>
		<path fill="#F8D8A1" d="M23.49,26.306c-1.536,1.152-3.208,2.478-5.127,4.098C20.363,29.124,22.3,27.96,23.49,26.306z"/>
		<g>
			<defs>
				<path id="SVGID_3_" d="M49.691,4.253c-7.808-5.465-24.678,0.309-27.535,10.351c0.784,6.054,2.752,6.293,2.47,8.809
					c8.39-6.616,18.489-11.048,29.031-12.783C52.117,8.619,50.816,6.389,49.691,4.253z"/>
			</defs>
			<clipPath id="SVGID_4_">
				<use xlink:href="#SVGID_3_"  overflow="visible"/>
			</clipPath>
			<g clip-path="url(#SVGID_4_)">
				<path fill="none" stroke="#E9C68F" stroke-width="1.1251" stroke-miterlimit="10" d="M21.372,24.52
					C31.391,15.536,43.74,10.595,56.87,7.65"/>
				<path fill="none" stroke="#E9C68F" stroke-width="1.1251" stroke-miterlimit="10" d="M18.099,23.283
					c13.035-10.59,23.07-14.429,38.946-18.381"/>
				<path fill="none" stroke="#E9C68F" stroke-width="1.1251" stroke-miterlimit="10" d="M18.32,19.628
					C29.579,10.871,42.759,4.952,56.655,1.733"/>
				<path fill="none" stroke="#E9C68F" stroke-width="1.1251" stroke-miterlimit="10" d="M17.727,16.801
					C27.702,8.486,39.87,2.826,52.656,0.554"/>
			</g>
		</g>
		<path fill="#8A6147" d="M24.626,23.413c-0.023,0.208-0.06,0.431-0.116,0.675c-0.194,0.841-0.55,1.566-1.019,2.218
			c3.553-2.664,6.371-4.38,9.764-6.532c6.414-4.068,15.319-4.393,22.782-6.44c-0.857-0.824-1.644-1.741-2.38-2.704
			C43.114,12.365,33.015,16.797,24.626,23.413z"/>
	</g>
	<g>
		<path fill="#B09C93" d="M53.326,24.66c0.256-0.318,0.267-0.857,0.195-0.972c-1.159-0.115-3.928,0.799-3.95,2.077
			C50.948,25.564,52.454,25.745,53.326,24.66z"/>
		<path fill="#FFFFFF" d="M53.334,24.627c-1.357-0.21-2.808,0.057-3.603,1.177c0.987,0.88,2.543,1.657,3.088,1.657
			C53.37,26.997,53.334,24.627,53.334,24.627z"/>
		<path fill="#A75B26" d="M47.803,22.456c1.935-1.242,4.403-1.62,6.621-1.014c-0.025,0.394-0.105,0.811-0.13,1.204
			C52.452,21.469,49.739,21.441,47.803,22.456z"/>
		<g>
			<path fill="#B1796B" d="M53.334,24.627c-0.221-0.034-0.444-0.054-0.666-0.062c-0.073-0.002-0.145-0.003-0.218-0.002
				c-0.099,0.426-0.177,0.858-0.154,1.293c0.028,0.542,0.235,1.097,0.655,1.435c0.147-0.249,0.238-0.656,0.294-1.081
				C53.345,25.443,53.334,24.627,53.334,24.627z"/>
		</g>
		<g>
			<path fill="#1C1C1B" d="M53.591,25.432c-0.114-0.259-0.215-0.522-0.321-0.784l0.053,0.046c-0.33-0.017-0.655-0.033-0.981-0.01
				c-0.325,0.029-0.639,0.093-0.949,0.173c-0.151,0.049-0.297,0.111-0.446,0.166c-0.14,0.073-0.274,0.155-0.411,0.231l-0.361,0.298
				L49.867,25.9l-0.025-0.221c0.472,0.439,0.98,0.83,1.52,1.166c0.274,0.163,0.564,0.292,0.863,0.408l0.462,0.134l0.481,0.073
				l-0.493,0.009l-0.492-0.069c-0.324-0.077-0.636-0.196-0.938-0.339c-0.299-0.148-0.584-0.32-0.852-0.516
				c-0.266-0.197-0.523-0.404-0.773-0.618l-0.122-0.105l0.097-0.116l0.341-0.406l0.418-0.325c0.155-0.082,0.308-0.169,0.465-0.245
				c0.165-0.056,0.328-0.12,0.494-0.167c0.337-0.086,0.68-0.115,1.022-0.117c0.341,0.01,0.679,0.04,1.009,0.114l0.045,0.01
				l0.009,0.036C53.463,24.881,53.534,25.155,53.591,25.432z"/>
		</g>
		<path fill="#1C1C1B" d="M53.307,24.17c0.246-0.016,0.531-0.035,0.672-0.237c-0.019,0.335-0.317,0.6-0.639,0.695
			c-0.318,0.094-0.652,0.055-0.977,0.026c-0.183-0.016-0.922,0.034-1.472,0.068C51.279,24.442,52.841,24.199,53.307,24.17z"/>
	</g>
	<path fill="#DF8446" d="M53.658,13.032c1.081-0.322,3.071,0.896,3.086,2.343c0.015,1.391-0.88,2.538-1.85,3.115
		c-0.97,0.577-2.051,0.762-3.04,1.281c-2.117,1.11-3.682,3.835-3.904,6.799c-0.834-1.738-0.709-3.982,0.178-5.674
		c0.821-1.565,2.2-2.429,3.37-3.553C52.668,16.218,53.95,14.889,53.658,13.032z"/>
	<path fill="#FCDDAC" d="M67.807,15.112c-3.371-8.1-46.29,6.422-52.499,21.307c-0.551-2.098-0.143-3.956,1.414-5.669
		c1.557-1.713,16.54-17.604,42.104-19.731C67.752,10.276,68.54,13.417,67.807,15.112z"/>
	<g>
		<path fill="#8A6147" d="M9.286,263.828c-1.135,4.236-1.703,7.499-0.049,9.336c1.654,1.837,4.684,2.213,7.126,1.826
			c1.543-0.245,3.127-1.003,3.803-2.412c0.6-1.25-0.71-6.317-1.304-7.57c-1.407-2.968-3.754-1.294-7.015-0.898"/>
		<g>
			<path fill="#F5D2B9" d="M8.441,270.119c0.32,1.092,1.749,2.054,2.685,2.67c1.052,0.693,2.358,0.932,3.615,0.85
				c1.257-0.082,5.077-1.102,5.066-2.362c-0.006-0.693-0.062-1.398-0.147-2.114C15.938,268.348,11.968,268.675,8.441,270.119z"/>
			<path fill="#8A6147" d="M11.246,265.429c-1.002,0.535-1.921,1.201-2.804,1.918c-0.058,0.769-0.083,1.555-0.069,2.362
				c0.003,0.139,0.028,0.275,0.068,0.41c3.526-1.444,7.497-1.771,11.218-0.956c-0.145-1.221-0.38-2.48-0.636-3.785
				c-0.684-0.5-1.489-0.849-2.32-1.003C14.846,264.032,12.912,264.54,11.246,265.429z"/>
			<path fill="#F5D2B9" d="M10.796,256.57c-0.961,3.491-2.064,6.923-2.354,10.777c0.883-0.717,1.802-1.383,2.804-1.918
				c1.666-0.889,3.6-1.397,5.456-1.053c0.831,0.154,1.637,0.502,2.32,1.003c-0.604-3.081-1.301-6.427-1.131-10.169
				C15.474,254.755,12.875,255.253,10.796,256.57z"/>
			<path fill="#8A6147" d="M10.796,256.57c2.078-1.317,4.677-1.815,7.095-1.361c0.026-0.582,0.066-1.17,0.139-1.772
				c0.015-0.125,0.026-0.244,0.039-0.365c-2.105,0.003-4.209-0.228-6.264-0.679C11.529,253.813,11.175,255.196,10.796,256.57z"/>
		</g>
		<g>
			<defs>
				<path id="SVGID_5_" d="M32.289,133.59c-2.945-0.47-5.985-0.265-8.857,0.536c0-0.001,0-0.002,0.001-0.003
					c-1.714,9.106-3.673,17.042-4.125,25.703c-0.587,11.259,2.04,26.512-1.748,37.415c-2.854,8.213-7.687,16.598-7.301,25.284
					c0.333,7.479,1.733,16.025,2.066,23.504c0.1,2.254-0.13,4.347-0.52,6.363c2.056,0.451,4.16,0.682,6.264,0.679
					c0.156-1.508,0.125-2.748,0.146-4.314l0.152-0.604c-0.335-6.212,1.85-13.429,3.314-19.475
					c2.128-8.788,3.901-20.419,6.029-29.207c7.635-15.997,9.03-25.047,13.577-37.026c2.71-7.14,4.237-15.674,5.997-21.925
					C42.626,137.468,37.77,134.465,32.289,133.59z"/>
			</defs>
			<clipPath id="SVGID_6_">
				<use xlink:href="#SVGID_5_"  overflow="visible"/>
			</clipPath>
			<path clip-path="url(#SVGID_6_)" fill="none" stroke="#8A6147" stroke-width="1.0658" stroke-miterlimit="10" d="M10.844,250.809
				c2.236-3.424,5.272-6.324,8.795-8.401"/>
			<path clip-path="url(#SVGID_6_)" fill="none" stroke="#8A6147" stroke-width="1.0658" stroke-miterlimit="10" d="M19.341,250.271
				c-1.157-3.882-4.683-7.72-7.955-10.109"/>
			<path clip-path="url(#SVGID_6_)" fill="none" stroke="#8A6147" stroke-width="1.0658" stroke-miterlimit="10" d="M9.506,236.63
				c4.005-3.176,9.433-4.575,13.438-7.751"/>
			<path clip-path="url(#SVGID_6_)" fill="none" stroke="#8A6147" stroke-width="1.0658" stroke-miterlimit="10" d="M20.918,238.408
				c-1.518-3.84-4.995-6.257-8.054-9.03c-1.327-1.203-2.831-2.352-3.484-4.019"/>
			<path clip-path="url(#SVGID_6_)" fill="none" stroke="#8A6147" stroke-width="1.0658" stroke-miterlimit="10" d="M9.351,222.533
				c2.014-3.203,5.949-4.518,9.573-5.604c2.291-0.687,4.581-1.373,6.872-2.06"/>
			<path clip-path="url(#SVGID_6_)" fill="none" stroke="#8A6147" stroke-width="1.0658" stroke-miterlimit="10" d="M23.61,224.305
				c-2.047-5.389-11.67-12.59-13.071-13.095"/>
			<path clip-path="url(#SVGID_6_)" fill="none" stroke="#8A6147" stroke-width="1.0658" stroke-miterlimit="10" d="M11.965,207.969
				c4.368,2.006,9.199,2.996,14.004,2.873"/>
		</g>
	</g>
	<g>
		<path fill="none" stroke="#8A6147" stroke-width="1.0658" stroke-miterlimit="10" d="M3.183,228.016
			c-0.657-2.508,0.606-5.087,1.933-7.314c2.523-4.234,5.426-8.24,8.663-11.956c-5.581,5.508-7.975,13.898-7.817,21.738"/>
		<g>
			<circle fill="#F04B4B" cx="3.145" cy="227.977" r="0.984"/>
			<circle fill="#DA92BF" cx="3.501" cy="229.755" r="0.984"/>
		</g>
		<g>
			<circle fill="#F04B4B" cx="5.949" cy="230.103" r="0.984"/>
			<circle fill="#DA92BF" cx="5.673" cy="231.894" r="0.984"/>
		</g>
		<circle fill="#8A6147" cx="13.538" cy="209.054" r="1.287"/>
	</g>
	<g>
		<path fill="#8A6147" d="M72.778,250.832c1.584-1.705,3.774-2.826,6.076-3.147c-0.198-0.697-0.369-1.467-0.514-2.327
			c-1.9,1.165-4.18,1.702-6.405,1.541c-0.956,1.308-4.427,6.355-3.773,9.837c0.536,0.401,1.191,0.761,1.901,1.107
			C70.044,255.277,71.03,252.712,72.778,250.832z"/>
		<path fill="#8A6147" d="M90.955,263.241c-1.267-0.442-2.773-1.514-3.849-2.673c-2.555,0.904-4.816,2.643-6.361,4.872
			c1.436,1.087,2.88,1.831,4.273,2.299c2.157-1.818,4.725-3.152,7.456-3.858C92.053,263.653,91.558,263.451,90.955,263.241z"/>
	</g>
	<g>
		<defs>
			<path id="SVGID_7_" d="M90.955,263.241c-1.715-0.598-3.871-2.351-4.8-3.912c-3.613-6.066-6.671-6.947-7.836-14.094
				c-2.623-16.099,1.889-33.093-1.97-48.941c-0.961-3.947-0.202-8.666-1.19-12.606c2.045-14.787,1.822-38.518-1.388-56.096
				c-7.471,2.307-14.424,6.273-20.215,11.526c0.41,2.662,0.393,5.141,0.519,8.041c0.435,10.034,5.905,23.082,7.279,33.031
				c0.472,3.419,3.668,11.278,4.432,14.644c1.341,5.908-2.437,11.098-2.034,19.324c0.506,10.342,6.243,22.297,8.425,32.419
				c0,0-4.77,6.13-4.013,10.159c2.393,1.788,7.1,2.795,8.963,5.13c6.677,8.367,14.747,7.219,17.451,4.622
				C93.867,264.583,93.026,263.963,90.955,263.241z"/>
		</defs>
		<clipPath id="SVGID_8_">
			<use xlink:href="#SVGID_7_"  overflow="visible"/>
		</clipPath>
		<g clip-path="url(#SVGID_8_)">
			<path fill="none" stroke="#8A6147" stroke-width="1.0658" stroke-miterlimit="10" d="M69.442,245.429
				c2.292-3.56,5.809-8.905,9.997-9.529"/>
			<path fill="none" stroke="#8A6147" stroke-width="1.0658" stroke-miterlimit="10" d="M79.263,241.275
				c-2.66-4.708-6.976-7.036-12.01-9.012"/>
			<path fill="none" stroke="#8A6147" stroke-width="1.0658" stroke-miterlimit="10" d="M66.939,235.876
				c3.073-3.568,7.027-8.859,11.411-10.579"/>
			<path fill="none" stroke="#8A6147" stroke-width="1.0658" stroke-miterlimit="10" d="M78.898,230.315
				c-3.258-5.008-9.59-7.821-15.49-6.881"/>
			<path fill="none" stroke="#8A6147" stroke-width="1.0658" stroke-miterlimit="10" d="M63.938,225.019
				c3.656-5.314,9.098-12.219,15.233-14.212"/>
			<path fill="none" stroke="#8A6147" stroke-width="1.0658" stroke-miterlimit="10" d="M80.087,219.804
				c-4.138-5.73-11.844-12.18-18.731-10.592"/>
			<path fill="none" stroke="#8A6147" stroke-width="1.0658" stroke-miterlimit="10" d="M61.958,208.269
				c5.295-2.607,12.482-3.318,17.404-2.438"/>
		</g>
	</g>
	<g>
		<path fill="#E69885" d="M56.416,34.684c-0.916,0.358-1.489,0.933-2.196,1.127c0.098,0.781,1.503,2.471,1.857,2.496
			c0.072-0.059,0.143-0.111,0.21-0.144c0.027-0.014,1.225-1.22-0.384-2.074c0.74-0.373,1.583-0.164,1.431-1.504
			c-0.081-0.028-0.166-0.048-0.251-0.05C56.853,34.528,56.629,34.6,56.416,34.684z"/>
	</g>
	<path fill="#B0BEC2" d="M53.573,133.85c1.635-3.391,3.27-6.781,4.905-10.172c0.196-0.407,0.446-0.858,0.816-0.896
		c0.379-0.039,0.705,0.412,0.777,0.893c0.072,0.481-0.047,0.973-0.183,1.43c-0.814,2.731-2.319,5.112-4.232,6.688"/>
	<path fill="#B0BEC2" d="M48.378,134.41c-1.59-1.178-2.517-3.018-3.551-4.706c-1.034-1.688-6.492-4.596-8.4-5.12
		c-0.426,3.241,6.787,5.402,8.802,8.647"/>
	<path fill="#B0BEC2" d="M47.277,136.479c-3.368-2.95-7.313-5.239-11.546-6.7c-0.972-0.335-1.981-0.631-3.008-0.59
		c-1.027,0.041-2.087,0.469-2.661,1.322c4.482-0.77,8.458,1.611,12.479,3.735C44.006,135.02,45.811,135.705,47.277,136.479z"/>
	<path fill="#B0BEC2" d="M70.202,124.568c-2.33-0.782-4.95-0.136-7.048,1.143c-2.099,1.279-3.775,3.132-5.418,4.959
		c-1.643,1.827-3.316,3.682-5.412,4.967c2.048-0.104,3.623-0.839,5.159-2.198c1.536-1.359,2.841-2.965,4.396-4.303
		C64.391,126.975,66.919,125.007,70.202,124.568z"/>
	<path fill="#B0BEC2" d="M61.389,114c0.615-1.135,1.229-2.269,1.844-3.404c0.627-1.158,1.269-2.362,1.361-3.675
		c0.147-2.073-1.437-3.683-2.036-1.122C61.936,108.457,62.102,111.297,61.389,114z"/>
	<path fill="#B0BEC2" d="M50.948,113.078c0.442,2.434,0.883,4.868,1.325,7.302c1.662-4.392,2.219-9.197,1.607-13.853
		c-0.258-1.961-1.737-6.26-3.236-2.553C49.562,106.648,50.457,110.37,50.948,113.078z"/>
	<path fill="none" stroke="#7F888A" stroke-width="0.3553" stroke-miterlimit="10" d="M53.821,120.839
		c1.247-6.354,0.972-13.745-0.795-19.975"/>
	<circle fill="#7F888A" cx="51.062" cy="104.385" r="1.644"/>
	<g>
		<line fill="none" stroke="#AA8676" stroke-width="0.3553" stroke-miterlimit="10" x1="26.917" y1="148.55" x2="28" y2="162.544"/>
		
			<line fill="none" stroke="#AA8676" stroke-width="0.3553" stroke-miterlimit="10" x1="19.021" y1="146.588" x2="19.021" y2="162.09"/>
		
			<line fill="none" stroke="#AA8676" stroke-width="0.3553" stroke-miterlimit="10" x1="20.443" y1="146.233" x2="20.443" y2="161.734"/>
		
			<line fill="none" stroke="#AA8676" stroke-width="0.3553" stroke-miterlimit="10" x1="21.509" y1="146.233" x2="21.509" y2="161.734"/>
		
			<line fill="none" stroke="#AA8676" stroke-width="0.3553" stroke-miterlimit="10" x1="25.153" y1="147.299" x2="26.223" y2="162.189"/>
		
			<line fill="none" stroke="#AA8676" stroke-width="0.3553" stroke-miterlimit="10" x1="23.342" y1="147.864" x2="24.532" y2="161.734"/>
		
			<line fill="none" stroke="#AA8676" stroke-width="0.3553" stroke-miterlimit="10" x1="22.515" y1="147.839" x2="22.515" y2="161.76"/>
	</g>
	<g>
		<g>
			<path fill="#C2CBCE" d="M41.093,48.764c-0.351-2.732-1.207-5.362-2.604-7.643c-1.76,0.811-2.432,3.047-2.182,4.969
				c0.119,0.919,0.399,1.8,0.726,2.668c0.877,0.772,1.754,1.543,2.631,2.315C40.113,50.272,40.602,49.517,41.093,48.764z"/>
			<path fill="#FFFAEE" d="M39.663,51.073c-0.877-0.772-1.754-1.543-2.631-2.315c0.356,0.947,0.769,1.88,1.1,2.834
				c1.289,3.711,1.303,7.852,0.039,11.572c2.524-4.149,3.558-9.442,2.921-14.4C40.602,49.517,40.113,50.272,39.663,51.073z"/>
		</g>
		<g>
			<circle fill="none" stroke="#FDB734" stroke-width="0.3495" stroke-miterlimit="10" cx="38.467" cy="36.26" r="3.369"/>
			<circle fill="#DA92BF" cx="38.585" cy="41.08" r="0.777"/>
		</g>
	</g>
	<path fill="none" stroke="#E5C697" stroke-width="1.0658" stroke-miterlimit="10" d="M28.255,51.298
		c4.176,12.527,2.512,26.527,0.803,39.62c-2.605,19.95-2.721,29.236-5.326,49.187"/>
	<path fill="#F5D2B9" d="M28.483,106.389c-1.939,0.546-3.828,2.038-5.415,0.799c-9.415-7.348-7.91-4.284-12.078-12.057
		c0.295-3.476,2.176-8.601,4.606-14.261c-2.638-1.631-5.419-3.027-8.298-4.18c-3.211,8.972-6.334,18.547-5.69,20.263
		c3.319,8.841,11.492,10.78,22.726,16.938c1.208,0.662,2.442,1.249,3.511,2.119c1.289,1.049,2.998,2.421,4.762,3.668
		c0.865-1.943,1.635-4.079,2.242-6.135c-0.472-0.704-0.829-1.418-1.008-2.109c0.922-0.602,2.155-0.4,3.173,0.021
		c1.018,0.42,1.827,1.285,2.921,1.161c0.522-0.059,1.083-0.315,1.159-0.835C37.152,109.441,31.759,106.392,28.483,106.389z"/>
	<path fill="none" stroke="#7F888A" stroke-width="0.3553" stroke-miterlimit="10" d="M35.141,112.239
		c-0.378,3.473-1.867,6.817-4.197,9.421"/>
	<g>
		<path fill="#E5C697" d="M4.846,133.135c-1.474,4.347-2.967,8.81-2.825,13.398c0.142,4.588,2.266,9.402,6.366,11.466
			c2.353,1.185,5.201,1.343,7.671,0.427c7.463-2.767,9.341-11.692,7.987-19.536c-4.778-2.049-10.185-3.078-14.963-5.127
			C7.387,133.036,6.298,131.998,4.846,133.135z"/>
		<g>
			<defs>
				<path id="SVGID_9_" d="M4.846,133.135c-1.474,4.347-2.967,8.81-2.825,13.398c0.142,4.588,2.266,9.402,6.366,11.466
					c2.353,1.185,5.201,1.343,7.671,0.427c7.463-2.767,9.341-11.692,7.987-19.536c-4.778-2.049-10.185-3.078-14.963-5.127
					C7.387,133.036,6.298,131.998,4.846,133.135z"/>
			</defs>
			<clipPath id="SVGID_10_">
				<use xlink:href="#SVGID_9_"  overflow="visible"/>
			</clipPath>
			<g clip-path="url(#SVGID_10_)">
				<path fill="none" stroke="#F8D8A1" stroke-width="1.1251" stroke-miterlimit="10" d="M0.359,149.298
					c6.918,5.728,15.34,8.22,23.448,6.937"/>
				<path fill="none" stroke="#F8D8A1" stroke-width="1.1251" stroke-miterlimit="10" d="M0.359,144.125
					c6.918,5.728,15.34,8.22,23.448,6.937"/>
				<path fill="none" stroke="#F8D8A1" stroke-width="1.1251" stroke-miterlimit="10" d="M0.849,138.952
					c6.918,5.728,16.32,8.22,24.428,6.937"/>
				<path fill="none" stroke="#F8D8A1" stroke-width="1.1251" stroke-miterlimit="10" d="M0.849,133.779
					c6.918,5.728,16.32,8.22,24.428,6.937"/>
			</g>
			<g clip-path="url(#SVGID_10_)">
				<path fill="none" stroke="#F8D8A1" stroke-width="0.8163" stroke-miterlimit="10" d="M0.359,151.644
					c6.918,5.728,15.34,8.22,23.448,6.937"/>
				<path fill="none" stroke="#F8D8A1" stroke-width="0.8163" stroke-miterlimit="10" d="M0.359,146.471
					c6.918,5.728,15.34,8.22,23.448,6.937"/>
				<path fill="none" stroke="#F8D8A1" stroke-width="0.8163" stroke-miterlimit="10" d="M0.849,141.298
					c6.918,5.728,16.32,8.22,24.428,6.937"/>
				<path fill="none" stroke="#F8D8A1" stroke-width="0.8163" stroke-miterlimit="10" d="M0.849,136.124
					c6.918,5.728,16.32,8.22,24.428,6.937"/>
			</g>
		</g>
		<path fill="#CCA777" d="M24.469,139.097c-5.712-0.859-14.668-2.929-19.539-6.033c-0.864,5.318,1.248,11.031,4.727,15.144
			C15.675,148.207,21.22,144.163,24.469,139.097z"/>
		<path fill="#F8D8A1" d="M24.469,137.628c-5.712-0.859-13.688-2.929-18.559-6.033c-0.864,5.318,0.268,11.031,3.747,15.144
			C15.675,146.737,21.22,142.693,24.469,137.628z"/>
		<circle fill="#DA92BF" cx="4.865" cy="140.316" r="1.224"/>
		<circle fill="#FDB734" cx="6.945" cy="144.641" r="1.224"/>
		<circle fill="#DA92BF" cx="21.098" cy="143.07" r="1.224"/>
		<circle fill="#FDB734" cx="16.916" cy="146.27" r="1.224"/>
		<circle fill="#F04B4B" cx="12.462" cy="147.494" r="1.224"/>
		<circle fill="#F04B4B" cx="4.865" cy="136.059" r="1.224"/>
		<g>
			<defs>
				<path id="SVGID_11_" d="M24.469,137.628c-5.712-0.859-13.688-2.929-18.559-6.033c-0.864,5.318,0.268,11.031,3.747,15.144
					C15.675,146.737,21.22,142.693,24.469,137.628z"/>
			</defs>
			<clipPath id="SVGID_12_">
				<use xlink:href="#SVGID_11_"  overflow="visible"/>
			</clipPath>
			
				<path clip-path="url(#SVGID_12_)" fill="none" stroke="#F04B4B" stroke-width="1.0658" stroke-linecap="round" stroke-miterlimit="10" d="
				M6.945,130.434c0.288,4.686,0.229,8.608,3.446,14.207c3.693-0.621,6.673-2.201,9.904-4.095c0.9-0.527,1.787-1.112,2.456-1.912
				c0.669-0.8,1.102-1.849,0.963-2.882"/>
			
				<path clip-path="url(#SVGID_12_)" fill="none" stroke="#DA92BF" stroke-width="1.0658" stroke-linecap="round" stroke-miterlimit="10" d="
				M9.034,130.93c0.306,3.314,1.358,6.556,3.056,9.418c2.501-0.349,6.644-1.555,9.007-4.235"/>
			<path clip-path="url(#SVGID_12_)" fill="none" stroke="#FDB734" stroke-width="0.7105" stroke-miterlimit="10" d="M8.011,127.946
				c0.288,4.686,0.229,8.608,3.446,14.207c3.693-0.621,6.673-2.201,9.904-4.095c0.9-0.527,1.787-1.112,2.456-1.912
				c0.669-0.8,1.102-1.849,0.963-2.882"/>
			
				<path clip-path="url(#SVGID_12_)" fill="none" stroke="#F04B4B" stroke-width="1.0658" stroke-linecap="round" stroke-miterlimit="10" d="
				M10.101,128.442c0.306,3.314,1.358,6.556,3.056,9.418c2.501-0.349,6.644-1.555,9.007-4.235"/>
		</g>
	</g>
	<path fill="#F04B4B" d="M9.522,146.861c-1.79,2.268-2.117,5.593-0.804,8.166c1.058-0.567,1.836-0.941,2.893-1.508
		C10.006,151.67,8.993,149.252,9.522,146.861z"/>
	<path fill="#B0BEC2" d="M35.559,102.363c-0.303,1.785-0.351,3.614-0.141,5.412c0.469-0.072,0.948-0.145,1.417-0.218
		c0.167-1.734,0.279-3.582,0.446-5.316C36.687,101.984,36.135,102.065,35.559,102.363z"/>
	<path fill="#B0BEC2" d="M42.258,101.99c-0.303,1.785-0.351,3.614-0.141,5.412c0.469-0.072,0.948-0.146,1.417-0.218
		c0.167-1.734,0.279-3.582,0.446-5.316C43.386,101.612,42.834,101.692,42.258,101.99z"/>
	<path fill="#B0BEC2" d="M57.856,100.053c0.552,1.725,0.856,3.528,0.902,5.339c-0.475-0.005-0.959-0.01-1.434-0.016
		c-0.41-1.693-0.781-3.507-1.191-5.2C56.686,99.837,57.244,99.839,57.856,100.053z"/>
	<path fill="#B0BEC2" d="M62.322,98.937c0.552,1.725,1.601,3.156,1.646,4.966c-0.475-0.005-0.959-0.01-1.434-0.016
		c-0.41-1.693-1.153-3.135-1.563-4.828C61.524,98.721,61.71,98.723,62.322,98.937z"/>
	
		<line fill="none" stroke="#FDB734" stroke-width="1.4877" stroke-linecap="round" stroke-miterlimit="10" x1="24.451" y1="107.031" x2="22.515" y2="113.628"/>
	
		<line fill="none" stroke="#FDB734" stroke-width="0.7438" stroke-linecap="round" stroke-miterlimit="10" x1="22.59" y1="106.658" x2="20.654" y2="113.256"/>
	
		<line fill="none" stroke="#FDB734" stroke-width="0.7438" stroke-linecap="round" stroke-miterlimit="10" x1="21.473" y1="105.542" x2="19.538" y2="112.139"/>
</g>
</svg>
