<?xml version="1.0" encoding="utf-8"?>
<!-- Generator: Adobe Illustrator 17.0.0, SVG Export Plug-In . SVG Version: 6.00 Build 0)  -->
<!DOCTYPE svg PUBLIC "-//W3C//DTD SVG 1.1//EN" "http://www.w3.org/Graphics/SVG/1.1/DTD/svg11.dtd">
<svg version="1.1" id="Layer_1" xmlns="http://www.w3.org/2000/svg" xmlns:xlink="http://www.w3.org/1999/xlink" x="0px" y="0px"
	 width="105.588px" height="318.244px" viewBox="0 0 105.588 318.244" enable-background="new 0 0 105.588 318.244"
	 xml:space="preserve">
<g>
	<path fill="#A75B26" d="M36.606,13.46c-1.262,1.379-2.544,2.788-3.329,4.485c-0.785,1.697-1.007,3.76-0.125,5.409
		c0.498,0.932,1.346,1.777,1.312,2.834c-0.05,1.533-1.808,2.295-2.969,3.298c-2.106,1.819-2.33,5.413-0.467,7.479
		c0.754,0.836,1.755,1.407,2.585,2.168c0.83,0.761,1.516,1.845,1.321,2.953c-0.297,1.687-2.352,2.442-3.152,3.957
		c-0.755,1.428-0.21,3.241,0.79,4.51c0.999,1.269,2.386,2.164,3.599,3.23c1.213,1.067,2.315,2.442,2.414,4.054
		c0.099,1.612-1.236,3.358-2.838,3.153c1.603,0.433,2.604,0.116,3.723-1.112c1.119-1.227,1.481-3.094,0.901-4.65
		c-1.055-2.836-4.803-4.43-4.859-7.455c-0.051-2.751,3.135-4.872,2.807-7.605c-0.322-2.686-3.87-4.159-4.034-6.859
		c-0.112-1.851,1.417-3.32,2.523-4.808C40.106,24.068,40.21,17.649,36.606,13.46z"/>
	<path fill="#A75B26" d="M34.894,12.222C37.776,4.588,46.137,0.499,54.296,0.538c8.16,0.039,15.567,4.204,18.376,11.865
		c2.809,7.661,0.38,16.949-5.82,22.253c-2.057,1.76-4.451,3.091-6.5,4.86c-2.049,1.768-3.8,4.151-3.909,6.855
		c-0.583-6.989-2.279-14.71-5.734-20.814c-3.454-6.104-9.09-11.203-15.901-12.878C34.769,12.247,34.74,12.628,34.894,12.222z"/>
	<path fill="#A75B26" d="M42.023,49.857c-2.591,4.416-5.804,8.467-9.515,11.996c-2.796,2.659-6.157,5.669-5.824,9.513
		c0.086,0.993,0.429,1.978,0.292,2.965c-0.318,2.298-3.06,3.718-3.271,6.029c-0.206,2.254,2.051,3.892,4.092,4.871
		c2.041,0.98,4.425,2.129,4.876,4.347c0.425,2.086-1.119,4.061-1.326,6.18c-0.213,2.18,1.048,4.294,2.747,5.677
		c1.698,1.383,3.793,2.167,5.846,2.929c-1.48-1.418-1.19-2.704-0.056-4.411c1.135-1.707,2.951-2.81,4.652-3.954
		c5.3-3.564,10.231-8.448,11.501-14.707c1.016-5.006-0.46-10.197-2.563-14.853C50.444,59.729,47.403,54.883,42.023,49.857z"/>
	<path fill="#A75B26" d="M36.448,42.801c0.037,2.726-3.224,3.825-3.62,6.522c-0.479,3.257,4.68,4.76,5.143,8.019
		c0.292,2.055-1.408,3.798-2.963,5.173c7.445-3.241,12.665-11.051,12.813-19.17c0.102-5.621-3.551-18.188-11.372-16.113
		c-2.989,0.793-6.139,4.445-5.968,7.632C30.717,39.235,36.393,38.752,36.448,42.801z"/>
	<path fill="#A75B26" d="M33.46,63.834c-2.711-1.483-5.169-3.252-7.311-5.359c-0.006,0.257-0.046,0.513-0.138,0.77
		c-0.714,1.991-3.597,2.014-5.12,3.482c-2.627,2.531,0.223,7.162-1.123,10.553c-0.499,1.258-1.545,2.228-2.111,3.457
		c-1.487,3.235,1.858,7.496,5.39,7.042c-1.883-1.385-4.027-5.034-2.077-6.323c3.332-2.203,1.422-7.017,2.637-9.015
		c1.584-2.606,3.799-2.829,6.828-3.186c1.192-0.14,2.451,0.139,3.568-0.298c0.296-0.116,0.555-0.267,0.784-0.445
		C34.323,64.293,33.877,64.062,33.46,63.834z"/>
	<path fill="#A75B26" d="M75.09,22.571c-0.585-2.397,0.43-4.902,0.249-7.363c-0.209-2.854-1.977-5.321-3.68-7.621
		c-2.573-3.473-4.872-7.362-9.097-6.449c-0.924-1.322-8.251,2.119-8.687,3.672c-0.436,1.553,0.294,3.163,0.917,4.651
		c0.623,1.488,1.14,3.251,0.338,4.651c-1.399,2.445-5.297,1.641-7.52,3.37c-2.587,2.012-1.633,6.063-0.495,9.137
		c1.138,3.074,1.898,7.229-0.839,9.031c-1.674,1.102-4.09,0.777-5.551,2.15c-2.615,2.457,0.43,7.227-1.372,10.331
		c-1.77,3.05-7.107,2.622-8.471,5.873c-0.406,0.968-0.353,2.078-0.311,3.168c1.232,3.294,3.006,6.276,5.215,9.223
		c0.661,0.882,1.55,2.017,2.581,3.085c2.044-1.503,3.231-4.812,5.481-6.433c4.103-2.957,10.546,0.48,14.65-2.475
		c2.866-2.064,3.292-6.419,6.144-8.501c2.275-1.66,5.775-1.619,7.305-3.984c2.041-3.155-1.264-7.697,0.543-10.992
		c1.305-2.38,4.808-3.084,5.693-5.65C79.235,28.401,75.854,25.701,75.09,22.571z"/>
	<path fill="#8F441F" d="M60.712,17.372c2.207,0.481,3.561,2.863,3.678,5.118c0.117,2.256-0.7,4.44-1.385,6.592
		c-0.686,2.152-1.252,4.473-0.638,6.646c0.798,2.823,3.515,5.198,3.059,8.097c-0.276,1.752-1.676,3.099-3.111,4.142
		c-1.435,1.043-3.026,1.966-4.028,3.43c-1.001,1.464-1.173,3.704,0.184,4.847c-2.878-1.942-4.598-6.239-2.819-9.221
		c1.011-1.695,2.768-3,3.202-4.926c0.394-1.751-0.428-3.54-1.408-5.044c-0.98-1.503-2.162-2.936-2.62-4.671
		c-0.775-2.935,0.682-5.948,2.096-8.634C58.088,21.533,59.545,19.587,60.712,17.372z"/>
	<path fill="#744136" d="M19.395,305.946c4.402-1.557,7.963-4.471,12.505-5.612c0.878-0.221,1.806-0.814,2.564-1.288
		c0.758-0.474,1.745-1.411,1.384-2.199c-0.295-0.643-1.544-0.971-2.287-0.964c-0.743,0.008-1.449,0.283-2.138,0.544
		c-6.592,2.493-13.537,4.882-20.607,5.449c-2.35,0.188-5.122-0.84-5.942,1.718c-0.798,2.488,1.683,3.286,3.8,3.671
		C13.436,308.132,15.837,307.205,19.395,305.946z"/>
	<path fill="#744136" d="M81.855,303.415c-0.458,1.147-1.761,8.253-1.891,9.481c-0.13,1.228,0.112,2.999,0.923,3.931
		c0.914,1.049,2.365,0.981,3.74,1.196c1.485,0.232,3.01,0.33,4.487,0.05c1.477-0.28,2.911-0.515,3.893-1.653
		c1.613-1.868,0.976-10.206-0.678-12.038c-1.061-1.175-1.968,3.043-3.549,2.957c-1.581-0.086-3.153,0.294-4.646,0.818"/>
	<path fill="#191918" d="M79.335,89.705c0.384-3.57-0.493-8.504-1.524-11.944c-1.032-3.44-2.175-5.358-5.753-5.659
		c-2.599-0.219-5.141,1.103-6.975,2.958c-1.834,1.855-3.074,4.202-4.255,6.528c-4.221,8.315-8.377,18.724-2.691,27.429
		c5.115,7.829,13.314,4.945,17.414-2.238C78.495,101.621,78.713,95.497,79.335,89.705z"/>
	<g>
		<g>
			<path fill="#F5D2B9" d="M88.972,285.035c0.403-9.05,2.096-19.39,2.499-28.439c0.468-10.511-5.381-20.655-8.834-30.594
				c-4.584-13.193-1.405-31.649-2.115-45.272c-0.711-13.654-1.371-25.81-3.584-41.566c-0.942-6.703-4.926-14.419-8.541-21.647
				c-3.065-6.128-5.792-13.422-2.039-19.154c6.121-9.347,10.903-20.68,11.451-33.904c0.211-5.104,1.326-14.131-6.731-13.779
				c-5.203,0.227-10.001-0.352-10.704-3.484c-0.157-0.697-0.279-1.402-0.376-2.104c-3.847,1.639-8.27,1.918-12.292,0.774
				c-0.997,6.641-5.239,8.046-9.038,8.312c-2.584,3.933-9.835,17.218-4.881,32.396c0.299,4.194,1.142,9.791-0.199,14.477
				c-2.444,8.54-2.975,8.187-6.907,16.419c-2.104,4.405-5.918,10.691-7.74,18.581c-4.977,21.561,4.807,54.011,7.51,73.553
				c-1.196,4.768-0.277,10.477-1.44,15.254c-4.669,19.176,0.791,39.739-2.383,59.218c-1.409,8.647-1.555,7.857-7.497,13.993
				c-1.525,1.575-4.56,3.045-6.741,3.271c-1.165,0.121-1.955,0.285-2.591,0.606c-1.461,0.737-1.506,2.674,0.071,3.11
				c4.822,1.334,10.503,3.547,18.711-2.892c2.844-2.231,7.441-2.009,10.336-4.173c0.916-4.876-4.856-10.942-4.856-10.942
				c2.641-12.247,9.582-28.063,10.194-40.577c0.487-9.954-3.184-17.584-1.561-24.733c0.924-4.072,3.891-12.231,4.462-16.368
				c1.662-12.038,2.427-27.826,2.953-39.967c0.195-4.508-1.249-8.174-0.158-12.553c0,0,1.867-0.322,2.407-0.025
				c-0.001,2.605,1.569,20.534,5.57,31.073c5.503,14.495,7.189,25.445,16.428,44.802c2.575,10.633,4.72,24.707,7.294,35.341
				c1.771,7.316,4.416,16.049,4.01,23.565l0.184,0.731c0.027,2.047-0.021,3.629,0.224,5.662c1.031,8.558-1.634,13.606-1.699,19.786
				c-0.04,3.786,4.158,1.857,5.679,1.957c1.521,0.1,7.709,0.977,7.704-2.054C93.736,303.165,88.504,295.546,88.972,285.035z"/>
			<path fill="#E3B99D" d="M59.998,45.092c-0.639-4.586-0.178-13.095-0.605-14.41c-0.478-4.636-4.275-2.257-6.772-1.391
				c-1.562,0.541-3.171,10.374-4.8,10.654c0.178,2.406,0.122,4.347-0.115,5.921C51.728,47.01,56.15,46.731,59.998,45.092z"/>
		</g>
	</g>
	<g>
		<g>
			<path fill="#86839C" d="M70.824,122.394c-5.569,1.933-11.694,2.64-17.33,2.819c-9.544,0.305-19.583-0.813-28.65-4.101
				c-2.047,3.998-4.536,9.015-5.903,14.938c-1.983,8.589-1.62,18.907-0.298,29.447c5.577,0.861,11.129,1.944,16.782,2.019
				c3.519,0.047,7.059,0.003,10.599-0.153c0.029-0.661,0.058-1.318,0.086-1.96c0.195-4.508-1.249-8.174-0.158-12.553
				c0,0,1.867-0.322,2.407-0.025c-0.001,1.425,0.47,7.439,1.551,14.318c5.594-0.387,11.165-1.084,16.625-2.204
				c4.239-0.87,8.644-2.032,12.795-3.734c-0.534-6.861-1.258-13.98-2.391-22.043C76.206,133.951,73.632,128.126,70.824,122.394z"/>
			<path fill="#E3B99D" d="M59.998,45.092c-0.639-4.586-0.178-13.095-0.605-14.41c-0.478-4.636-4.275-2.257-6.772-1.391
				c-1.562,0.541-3.171,10.374-4.8,10.654c0.178,2.406,0.122,4.347-0.115,5.921C51.728,47.01,56.15,46.731,59.998,45.092z"/>
		</g>
	</g>
	<path fill="#A4A2BD" d="M18.23,162.469c-0.324,2.036-0.369,4.104-0.133,6.149c9.149,2.959,19.445,3.324,28.856,1.024
		c-0.212-1.973-0.605-4.004-0.817-5.977C38.333,164.999,27.964,165.49,18.23,162.469z"/>
	<path fill="#A4A2BD" d="M79.691,160.005c0.544,1.995,0.782,4.05,0.709,6.11c-9.818,3.873-21.138,5.279-31.726,3.941
		c0.053-1.986,0.301-4.048,0.355-6.034C57.755,164.559,69.234,163.999,79.691,160.005z"/>
	<g>
		<path fill="#F5D2B9" d="M41.853,55.412c-2.017-2.617-9.461-1.328-11.57-4.038c-8.641-11.107-15.059-11.74-17.48-19.068
			c2.451-2.87,18.507-16.957,23.468-19.799c0.104-0.338,1.026-0.443,1.105-0.422c0.112-0.003,0.207,0.016,0.28,0.063
			c0.01,0.003,0.021,0.006,0.031,0.009c2.754,0.561,5.81-3.219,6.4-4.014c2.371-3.193,3.699-3.184,6.951-4.676
			c1.555-0.714,1.036-3.233-1.447-2.958c-1.379,0.153-2.719-0.134-4.081-0.344C45.055,0.095,44.599,0.034,44.138,0
			c-0.15,0.111-0.308,0.224-0.473,0.34c-2.475,1.74-5.195,3.606-7.446,5.264c-1.209,0.891-4.301,2.783-4.494,2.877
			c-0.9,0.439-1.79,0.868-2.669,1.289c-0.031,0.015-0.062,0.03-0.094,0.045c-0.793,0.38-1.576,0.753-2.351,1.123
			C21.37,13.434,1.564,22.935,0.017,31.924c-0.724,4.207,22.083,31.882,24.984,34.333c9.252,7.816,13.136,15.139,15.969,12.609
			C38.873,75.895,44.441,58.771,41.853,55.412z"/>
		<path fill="#F5D2B9" d="M55.529,0.17c-1.812,0.131-3.623,0.705-5.435,0.835c-1.134,0.082-2.291,0.169-3.339,0.607
			c-1.049,0.438-1.99,0.854-2.221,1.967c3.279,0.753,10.601-0.2,10.786-2.798C55.358,0.249,55.79,0.636,55.529,0.17z"/>
	</g>
	<path fill="#8F441F" d="M42.271,8.813c5.414-4.804,11.979-3.702,18.487-0.535c1.963,5.272,2.242,9.101-1.533,13.272
		c-1.488,1.643-3.477,3.326-3.286,5.534"/>
	<g>
		<g>
			<path fill="#F5D2B9" d="M57.655,35.415c-0.781,5.447-8.569,7.489-14.443,9.843c-1.216,0.487-2.252-0.086-3.157-1.033
				c-0.633-0.663-0.282-1.418-0.291-2.638c-0.004-0.61-0.858-1.569-1.427-1.789c-0.036-0.014-1.548-1.539,0.374-2.807
				c-0.982-0.383-2.166,0.142-2.121-1.604c0.335-0.5,0.102-2.289,0.102-2.289c-0.821-0.466-2.771-0.795-2.899-2.136
				c3.128-4.252,4.558-5.955,3.395-8.591c-2.042-4.628-0.856-10.817,2.339-14.738c4.42,0.553,9.358,0.893,12.371,4.174
				c3.013,3.281,2.028,8.249,4.609,12.932c-0.172-1.488,4.102-6.333,5.812-1.99c0.549,1.394,0.574,4.338-0.249,5.589
				c-0.823,1.252-2.163,2.518-3.63,2.825C58.441,31.164,58.138,32.048,57.655,35.415z"/>
		</g>
		<g>
			<path fill="#ACA9A4" d="M39.978,22.788c-0.351-0.362-0.077-0.92,0.003-1.064c2.404-0.697,4.677,0.346,4.632,2.135
				C42.859,23.734,41.175,24.021,39.978,22.788z"/>
			<path fill="#FFFFFF" d="M39.966,22.749c1.692-0.369,3.546-0.172,4.648,1.11c-1.166,1.144-3.04,1.171-3.884,1.69
				C39.994,25.037,39.966,22.749,39.966,22.749z"/>
			<path fill="#A75B26" d="M46.744,19.123c-3.306-2.75-5.763-1.045-8.505-0.082c-0.114,0.366-0.2,1.299-0.133,1.793
				C40.323,19.186,44.213,18.018,46.744,19.123z"/>
			<g>
				<path fill="#AEB69F" d="M39.966,22.749c0.275-0.06,0.555-0.103,0.834-0.131c0.092-0.009,0.183-0.016,0.275-0.022
					c0.163,0.505,0.299,1.018,0.31,1.545c0.014,0.655-0.155,0.964-0.655,1.408c-0.207-0.288-0.401-0.392-0.509-0.899
					C40.04,23.804,40.029,23.805,39.966,22.749z"/>
			</g>
			<g>
				<path fill="#1C1C1B" d="M39.942,23.685c0.06-0.3-0.088-0.587-0.017-0.91l0.007-0.032l0.034-0.008l0.607-0.139
					c0.206-0.025,0.415-0.034,0.624-0.052c0.418-0.001,0.839,0.026,1.251,0.117c0.409,0.098,0.807,0.234,1.193,0.403
					c0.383,0.175,0.748,0.385,1.088,0.633l0.195,0.143L44.752,24c-0.605,0.566-1.373,0.867-2.121,1.052
					c-0.746,0.211-1.508,0.308-2.193,0.667c0.611-0.492,1.398-0.687,2.106-0.947c0.709-0.265,1.423-0.537,1.929-1.056l0.023,0.303
					c-0.332-0.216-0.668-0.423-1.023-0.601c-0.358-0.169-0.729-0.308-1.111-0.412c-0.384-0.095-0.773-0.174-1.172-0.204
					c-0.399-0.019-0.797-0.002-1.202,0.04l0.041-0.04C39.939,23.07,40.046,23.394,39.942,23.685z"/>
			</g>
			<path fill="#1C1C1B" d="M39.729,22.074c-0.274-0.039-0.591-0.086-0.73-0.373c-0.011,0.46,0.298,0.845,0.649,0.997
				c0.348,0.151,0.725,0.122,1.091,0.106c0.206-0.009,1.948-0.165,3.197,0.458C43.237,22.253,40.249,22.148,39.729,22.074z"/>
		</g>
		<g>
			<path fill="#CE4C9B" d="M37.571,34.979c1.196,0.34,2.172,1.139,3.085,1.298c-0.03,0.995-1.059,3.43-2.319,3.523
				c-0.038,0.003-1.636-1.54,0.286-2.807c-0.975-0.38-2.062,0.134-2.032-1.57C36.69,35.378,37.292,34.899,37.571,34.979z"/>
		</g>
	</g>
	<path fill="#A75B26" d="M46.421,6.855c0.025,2.057-1.654,3.764-3.477,4.731c-1.822,0.967-3.881,1.453-5.652,2.511
		c-1.771,1.058-3.288,2.977-2.951,5.007c0.127,0.765,0.51,1.503,0.429,2.274c-0.119,1.134-1.202,1.929-2.282,2.306
		c-1.08,0.376-2.257,0.491-3.269,1.023c-2.069,1.088-2.909,4.002-1.734,6.017c0.518,0.888,1.388,1.852,0.955,2.785
		c-0.247,0.532-0.845,0.799-1.41,0.965c-0.564,0.165-1.172,0.288-1.609,0.681c-0.436,0.393-0.582,1.178-0.117,1.537
		c-0.739-0.253-1.139-1.724-0.796-2.423c0.343-0.7,0.94-1.291,1.085-2.056c0.177-0.938-0.369-1.839-0.648-2.752
		c-0.545-1.781,0-3.848,1.354-5.133c0.875-0.83,2.044-1.346,2.782-2.3c0.887-1.147,0.982-2.69,1.228-4.117
		c0.817-4.739,3.769-9.071,7.889-11.577c1.256-0.764,2.656-1.374,4.127-1.416C43.795,4.874,45.638,5.614,46.421,6.855z"/>
	<path fill="#A75B26" d="M41.551,3.777c2.606-0.658,5.336-0.822,8.002-0.481c0.712,0.091,1.633,0.523,1.444,1.216
		c-0.105,0.386-0.523,0.583-0.896,0.727c-3.02,1.166-7.379,3.081-10.672,2.843C34.502,7.726,39.394,4.321,41.551,3.777z"/>
	<path fill="none" stroke="#A75B26" stroke-width="0.4429" stroke-miterlimit="10" d="M47.404,8.586
		c0.761,1.561,0.419,3.506-0.559,4.94c-0.979,1.435-2.506,2.415-4.109,3.083c-1.603,0.668-3.305,1.06-4.967,1.562
		c-0.855,0.258-1.716,0.555-2.434,1.086c-0.718,0.531-1.281,1.338-1.318,2.23"/>
	<path fill="#A75B26" d="M47.877,10.788c-0.376,1.687-1.736,3.007-3.256,3.83c-1.52,0.823-3.219,1.24-4.858,1.791
		c-1.638,0.551-3.283,1.278-4.443,2.56c-0.582,0.644-1.039,1.478-0.954,2.342c0.085,0.864,0.887,1.68,1.742,1.532
		c-1.734,0.345-3.29-1.572-3.125-3.333c0.164-1.76,1.521-3.191,3.015-4.135c1.495-0.944,3.186-1.552,4.65-2.543
		c2.01-1.36,2.535-3.702,4.223-5.122C46.929,5.98,48.282,8.968,47.877,10.788z"/>
	<g>
		<path fill="#A75B26" d="M49.396,9.258c0,0,0.194-0.042,0.512-0.187c0.16-0.071,0.351-0.166,0.56-0.313
			c0.2-0.156,0.452-0.311,0.77-0.369c0.307-0.087,0.674-0.025,1.039,0.05c0.363,0.077,0.719,0.096,1.092-0.16
			c0.187-0.104,0.381-0.244,0.581-0.285c0.199-0.04,0.399,0.004,0.599,0.07c0.401,0.144,0.787,0.47,1.181,0.53
			c0.197,0.044,0.396,0.051,0.607-0.05c0.211-0.098,0.433-0.275,0.649-0.385c0.438-0.248,0.817-0.062,1.171,0.13
			c0.352,0.212,0.671,0.496,0.986,0.667c0.159,0.084,0.312,0.162,0.474,0.175c0.162,0.014,0.335-0.044,0.499-0.083
			C60.45,8.953,60.7,9.101,60.932,9.18c0.228,0.096,0.423,0.194,0.578,0.291c0.309,0.196,0.468,0.358,0.468,0.358
			c0.098,0.1,0.096,0.26-0.003,0.358c-0.033,0.032-0.072,0.053-0.113,0.064l-0.01,0.003c0,0-0.223,0.058-0.581,0.071
			c-0.179,0.006-0.39-0.007-0.627-0.038c-0.231-0.056-0.51-0.034-0.758-0.254c-0.125-0.104-0.254-0.229-0.404-0.286
			c-0.15-0.057-0.319-0.05-0.492-0.041c-0.348,0.022-0.741,0.211-1.119,0.29c-0.378,0.07-0.752,0.108-1.09-0.206
			c-0.171-0.153-0.338-0.373-0.519-0.514c-0.181-0.144-0.375-0.181-0.571-0.181c-0.395,0.013-0.8,0.318-1.177,0.427
			c-0.38,0.123-0.738,0.029-1.106-0.2c-0.367-0.214-0.73-0.196-1.042-0.045c-0.307,0.174-0.577,0.33-0.857,0.329
			c-0.272,0.018-0.556-0.051-0.815-0.052c-0.255-0.017-0.469,0.001-0.642,0.023c-0.348,0.041-0.535,0.106-0.535,0.106
			c-0.116,0.041-0.242-0.02-0.283-0.135c-0.041-0.116,0.02-0.242,0.135-0.283C49.377,9.263,49.387,9.26,49.396,9.258z"/>
	</g>
	<g>
		<path fill="#A75B26" d="M53.327,14.835c0,0,0-0.211,0.098-0.485c0.054-0.133,0.13-0.283,0.242-0.433
			c0.096-0.155,0.278-0.296,0.568-0.347c0.285-0.052,0.547-0.132,0.721-0.347c0.193-0.189,0.334-0.472,0.53-0.711
			c0.196-0.239,0.468-0.389,0.811-0.414c0.341-0.031,0.684-0.045,0.92-0.254c0.118-0.103,0.188-0.302,0.29-0.445
			c0.097-0.151,0.247-0.2,0.397-0.243c0.299-0.089,0.664-0.012,0.968-0.031c0.303-0.022,0.557-0.123,0.737-0.386
			c0.181-0.262,0.369-0.487,0.598-0.54c0.875-0.345,1.569-0.166,1.569-0.166c0.136,0.035,0.218,0.174,0.183,0.31
			c-0.01,0.039-0.028,0.073-0.052,0.101l-0.013,0.015c0,0-0.118,0.138-0.345,0.292c-0.224,0.164-0.563,0.314-0.98,0.468
			c-0.199,0.103-0.475,0.048-0.784-0.034c-0.309-0.08-0.555,0.053-0.777,0.251c-0.22,0.206-0.4,0.506-0.63,0.698
			c-0.118,0.091-0.238,0.177-0.411,0.162c-0.169-0.007-0.371-0.07-0.524-0.037c-0.292,0.091-0.472,0.388-0.648,0.658
			c-0.182,0.263-0.395,0.447-0.665,0.536c-0.268,0.09-0.595,0.102-0.812,0.235c-0.227,0.118-0.345,0.354-0.411,0.594
			c-0.065,0.236-0.202,0.364-0.352,0.488c-0.146,0.117-0.294,0.198-0.425,0.257c-0.271,0.108-0.482,0.116-0.482,0.116
			c-0.17,0.007-0.312-0.125-0.319-0.295C53.327,14.844,53.327,14.838,53.327,14.835z"/>
	</g>
	<g>
		<path fill="#A75B26" d="M54.751,20.036c0.005,0.003-0.041-0.078-0.061-0.189c-0.031-0.117-0.07-0.286-0.047-0.456
			c0.018-0.357,0.23-0.754,0.778-1.052c0.263-0.155,0.555-0.319,0.73-0.574c0.208-0.235,0.264-0.585,0.303-0.977
			c0.048-0.384,0.242-0.698,0.582-0.901c0.348-0.197,0.716-0.369,0.882-0.706c0.213-0.293,0.289-0.707,0.456-1.039
			c0.169-0.329,0.427-0.576,0.801-0.696c0.376-0.118,0.719-0.245,0.914-0.487c0.203-0.234,0.186-0.659,0.34-0.89
			c0.164-0.221,0.369-0.369,0.55-0.501c0.18-0.133,0.356-0.229,0.508-0.3c0.302-0.145,0.522-0.177,0.522-0.177
			c0.149-0.022,0.288,0.082,0.309,0.231c0.004,0.026,0.004,0.053,0,0.078l-0.001,0.009c0,0-0.033,0.224-0.174,0.526
			c-0.069,0.152-0.162,0.327-0.291,0.505c-0.127,0.179-0.27,0.382-0.485,0.544c-0.226,0.152-0.654,0.142-0.886,0.347
			c-0.236,0.2-0.314,0.572-0.392,0.952c-0.076,0.382-0.282,0.654-0.585,0.852c-0.305,0.196-0.709,0.317-0.975,0.56
			c-0.277,0.229-0.347,0.627-0.434,0.989c-0.094,0.357-0.326,0.594-0.691,0.742c-0.366,0.148-0.736,0.293-0.868,0.573
			c-0.15,0.27-0.165,0.603-0.186,0.906c-0.019,0.62-0.28,0.987-0.592,1.165c-0.142,0.097-0.312,0.139-0.431,0.165
			c-0.109,0.032-0.202,0.028-0.197,0.031C54.966,20.265,54.823,20.171,54.751,20.036z"/>
	</g>
	<g>
		<path fill="#A75B26" d="M55.926,22.61c0.005,0.004-0.018-0.081-0.005-0.196c0.004-0.122,0.013-0.299,0.074-0.484
			c0.121-0.371,0.345-0.862,1.017-1.129c0.328-0.14,0.669-0.303,0.86-0.61c0.194-0.303,0.086-0.852,0.169-1.257
			c0.074-0.412,0.407-0.649,0.817-0.867c0.399-0.223,0.64-0.573,0.604-1.061c-0.063-0.508,0.104-0.877,0.56-1.098
			c0.441-0.229,0.79-0.514,0.564-1.054c-0.183-0.516,0.221-0.734,0.541-0.981c0.145-0.129,0.254-0.271,0.295-0.435
			c0.041-0.164-0.065-0.382-0.111-0.566c-0.081-0.197-0.016-0.328,0.045-0.453c0.058-0.127,0.12-0.244,0.185-0.353
			c0.131-0.216,0.266-0.399,0.397-0.545c0.254-0.293,0.48-0.44,0.48-0.44l0.021-0.013c0.124-0.081,0.29-0.046,0.371,0.078
			c0.014,0.021,0.024,0.044,0.031,0.067c0,0,0.076,0.243,0.066,0.633c0,0.196-0.026,0.428-0.078,0.688
			c-0.027,0.129-0.062,0.265-0.108,0.405c-0.042,0.141-0.085,0.291-0.279,0.387c-0.159,0.109-0.383,0.196-0.463,0.348
			c-0.081,0.152-0.098,0.336-0.082,0.543c0.017,0.404,0.065,0.857-0.466,1.044c-0.578,0.161-0.593,0.6-0.523,1.107
			c0.086,0.515-0.123,0.893-0.563,1.133c-0.474,0.224-0.675,0.586-0.709,1.063c-0.024,0.482-0.117,0.934-0.456,1.19
			c-0.334,0.26-0.828,0.364-1.03,0.661c-0.252,0.259-0.329,0.632-0.388,0.986c-0.101,0.721-0.522,1.055-0.852,1.26
			c-0.164,0.103-0.333,0.153-0.449,0.185c-0.108,0.04-0.196,0.036-0.19,0.041C56.104,22.888,55.961,22.768,55.926,22.61z"/>
	</g>
	<g>
		<defs>
			<path id="SVGID_1_" d="M96.58,78.859c-1.28-2.794-2.561-5.535-3.747-8.038c-2.682-5.665-4.866-10.112-5.385-11.183
				c-4.547-9.378-15.281-10.47-18.367-8.447c2.567,6.71,8.367,16.485,13.75,26.007c1.448,2.561,2.861,5.1,4.177,7.56
				c3.516,6.571,6.314,12.555,7.03,16.715c-4.074,6.403-4.074,6.403-14.662,16.237c-1.786,1.658-4.218,0.055-6.611-0.403
				c-3.949,0.343-8.784,4.128-13.294,7.356c0.145,0.618,0.849,0.869,1.484,0.886c1.332,0.036,2.217-1.09,3.401-1.702
				c1.184-0.612,2.649-0.984,3.824-0.353c-0.144,0.851-0.5,1.749-0.996,2.646c0.945,2.416,7.254,4.547,8.699,3.15
				c1.198-1.159,2.625-2.895,4.013-3.818c12.905-8.586,22.557-11.771,25.643-22.773C106.136,100.563,101.38,89.343,96.58,78.859z"/>
		</defs>
		<clipPath id="SVGID_2_">
			<use xlink:href="#SVGID_1_"  overflow="visible"/>
		</clipPath>
		<path clip-path="url(#SVGID_2_)" fill="#F5D2B9" d="M96.58,78.859c-1.28-2.794-2.561-5.535-3.747-8.038
			c-2.682-5.665-4.866-10.112-5.385-11.183c-4.547-9.378-15.281-10.47-18.367-8.447c2.567,6.71,8.367,16.485,13.75,26.007
			c1.448,2.561,2.861,5.1,4.177,7.56c3.516,6.571,6.314,12.555,7.03,16.715c-4.074,6.403-4.074,6.403-14.662,16.237
			c-1.786,1.658-4.218,0.055-6.611-0.403c-3.949,0.343-8.784,4.128-13.294,7.356c0.145,0.618,0.849,0.869,1.484,0.886
			c1.332,0.036,2.217-1.09,3.401-1.702c1.184-0.612,2.649-0.984,3.824-0.353c-0.144,0.851-0.5,1.749-0.996,2.646
			c0.945,2.416,7.254,4.547,8.699,3.15c1.198-1.159,2.625-2.895,4.013-3.818c12.905-8.586,22.557-11.771,25.643-22.773
			C106.136,100.563,101.38,89.343,96.58,78.859z"/>
		<g clip-path="url(#SVGID_2_)">
			
				<path fill="none" stroke="#86839C" stroke-width="0.4429" stroke-linecap="round" stroke-linejoin="round" stroke-miterlimit="10" d="
				M86.02,77.8c0.58-1.574,1.214-2.831,2.545-3.53c1.331-0.699,2.992-0.733,4.351-0.089C91.771,76.747,88.736,78.516,86.02,77.8z"/>
			
				<path fill="#86839C" stroke="#86839C" stroke-width="0.4429" stroke-linecap="round" stroke-linejoin="round" stroke-miterlimit="10" d="
				M90.083,76.84c0.299-0.129,0.554-0.359,0.711-0.644c0.743-1.356-1.129-2.885-2.301-1.928
				C87.202,75.321,88.562,77.497,90.083,76.84z"/>
			
				<path fill="none" stroke="#86839C" stroke-width="0.4429" stroke-linecap="round" stroke-linejoin="round" stroke-miterlimit="10" d="
				M87.512,78.733c0,0.312,0,0.625,0,0.937"/>
			
				<path fill="none" stroke="#86839C" stroke-width="0.4429" stroke-linecap="round" stroke-linejoin="round" stroke-miterlimit="10" d="
				M88.935,78.568c0.016,0.827,0.032,1.653,0.049,2.48"/>
			
				<path fill="none" stroke="#86839C" stroke-width="0.4429" stroke-linecap="round" stroke-linejoin="round" stroke-miterlimit="10" d="
				M90.754,78.047c0.572,0.843,0.694,1.686,1.266,2.529"/>
			
				<path fill="none" stroke="#86839C" stroke-width="0.4429" stroke-linecap="round" stroke-linejoin="round" stroke-miterlimit="10" d="
				M91.767,77.407c0.425,0.272,0.849,0.544,1.274,0.816"/>
			
				<path fill="none" stroke="#86839C" stroke-width="0.4429" stroke-linecap="round" stroke-linejoin="round" stroke-miterlimit="10" d="
				M92.366,76.226c0.479,0.084,0.958,0.169,1.437,0.253"/>
		</g>
		
			<path clip-path="url(#SVGID_2_)" fill="none" stroke="#86839C" stroke-width="0.4429" stroke-linecap="round" stroke-linejoin="round" stroke-miterlimit="10" d="
			M81.771,75.321c3.92-1.081,7.458-2.897,10.595-5.484"/>
		
			<path clip-path="url(#SVGID_2_)" fill="none" stroke="#86839C" stroke-width="0.4429" stroke-linecap="round" stroke-linejoin="round" stroke-miterlimit="10" d="
			M86.431,83.356c3.826-0.25,7.509-2.201,9.864-5.226"/>
		
			<path clip-path="url(#SVGID_2_)" fill="none" stroke="#86839C" stroke-width="0.4429" stroke-linecap="round" stroke-linejoin="round" stroke-miterlimit="10" d="
			M87.684,85.381c3.826-0.25,7.509-2.201,9.864-5.226"/>
		
			<path clip-path="url(#SVGID_2_)" fill="#86839C" stroke="#86839C" stroke-width="0.4429" stroke-linecap="round" stroke-linejoin="round" stroke-miterlimit="10" d="
			M87.168,70.959c-0.036,0.725-0.072,1.449-0.108,2.174c0.611-0.407,1.225-0.702,1.835-1.109
			C88.236,71.675,87.827,71.308,87.168,70.959z"/>
		
			<path clip-path="url(#SVGID_2_)" fill="#86839C" stroke="#86839C" stroke-width="0.4429" stroke-linecap="round" stroke-linejoin="round" stroke-miterlimit="10" d="
			M84.707,72.433c-0.13,0.714-0.26,1.428-0.39,2.141c0.658-0.324,1.306-0.537,1.964-0.86C85.673,73.282,85.315,72.865,84.707,72.433
			z"/>
		
			<path clip-path="url(#SVGID_2_)" fill="#86839C" stroke="#86839C" stroke-width="0.4429" stroke-linecap="round" stroke-linejoin="round" stroke-miterlimit="10" d="
			M82.51,73.133c-0.246,0.682-0.493,1.365-0.739,2.047c0.703-0.21,1.377-0.313,2.079-0.523C83.322,74.13,83.038,73.66,82.51,73.133z
			"/>
		
			<path clip-path="url(#SVGID_2_)" fill="#86839C" stroke="#86839C" stroke-width="0.4429" stroke-linecap="round" stroke-linejoin="round" stroke-miterlimit="10" d="
			M89.262,69.79c0.063,0.723,0.126,1.446,0.19,2.168c0.549-0.486,1.118-0.862,1.667-1.349C90.418,70.354,89.963,70.046,89.262,69.79
			z"/>
		
			<path clip-path="url(#SVGID_2_)" fill="#86839C" stroke="#86839C" stroke-width="0.4429" stroke-linecap="round" stroke-linejoin="round" stroke-miterlimit="10" d="
			M91.092,68.255c0.063,0.723,0.126,1.446,0.19,2.168c0.549-0.486,1.118-0.862,1.667-1.349
			C92.248,68.819,91.793,68.511,91.092,68.255z"/>
		
			<path clip-path="url(#SVGID_2_)" fill="#86839C" stroke="#86839C" stroke-width="0.4429" stroke-linecap="round" stroke-linejoin="round" stroke-miterlimit="10" d="
			M92.386,81.951c-0.036,0.725-0.072,1.449-0.108,2.174c0.611-0.407,1.225-0.702,1.835-1.109
			C93.454,82.667,93.045,82.3,92.386,81.951z"/>
		
			<path clip-path="url(#SVGID_2_)" fill="#86839C" stroke="#86839C" stroke-width="0.4429" stroke-linecap="round" stroke-linejoin="round" stroke-miterlimit="10" d="
			M89.926,82.974c-0.13,0.714-0.26,1.428-0.39,2.141c0.658-0.324,1.306-0.537,1.964-0.86C90.892,83.823,90.534,83.406,89.926,82.974
			z"/>
		
			<path clip-path="url(#SVGID_2_)" fill="#86839C" stroke="#86839C" stroke-width="0.4429" stroke-linecap="round" stroke-linejoin="round" stroke-miterlimit="10" d="
			M87.728,83.674c-0.246,0.682-0.493,1.365-0.739,2.047c0.703-0.21,1.377-0.313,2.079-0.523
			C88.54,84.672,88.256,84.201,87.728,83.674z"/>
		
			<path clip-path="url(#SVGID_2_)" fill="#86839C" stroke="#86839C" stroke-width="0.4429" stroke-linecap="round" stroke-linejoin="round" stroke-miterlimit="10" d="
			M94.481,80.331c0.063,0.723,0.126,1.446,0.19,2.168c0.549-0.486,1.118-0.862,1.667-1.349
			C95.637,80.895,95.181,80.587,94.481,80.331z"/>
		
			<path clip-path="url(#SVGID_2_)" fill="#86839C" stroke="#86839C" stroke-width="0.4429" stroke-linecap="round" stroke-linejoin="round" stroke-miterlimit="10" d="
			M96.311,78.796c0.063,0.723,0.127,1.446,0.19,2.168c0.549-0.486,1.118-0.862,1.667-1.349
			C97.467,79.36,97.011,79.052,96.311,78.796z"/>
	</g>
	<path fill="#A75B26" d="M72.616,21.779c1.495,2.453,1.995,5.493,1.364,8.295c-0.287,1.274-0.8,2.523-0.761,3.829
		c0.116,3.976,5.174,6.858,4.451,10.769c-0.278,1.501-1.375,2.691-2.281,3.92c-0.906,1.229-1.682,2.788-1.197,4.236
		c0.626,1.869,3.01,2.599,3.882,4.366c0.796,1.614,0.04,3.648-1.285,4.865c-1.325,1.217-3.094,1.806-4.806,2.363
		c2.624-0.544,3.284-3.856,2.132-6.275c-1.022-2.148-3.709-3.409-4.032-5.766c-0.419-3.064,3.424-5.139,3.892-8.196
		c0.46-3.008-2.44-5.457-3.125-8.422c-0.57-2.469,0.449-4.985,1.192-7.408C72.784,25.933,74.174,23.777,72.616,21.779z"/>
	<path fill="#8F441F" d="M62.426,8.119c3.329-0.593,6.899,1.88,7.513,5.205c0.296,1.599-0.017,3.239-0.067,4.864
		c-0.05,1.625,0.238,3.404,1.44,4.499c1.551,1.413,4.308,1.406,5.22,3.296c0.533,1.103,0.163,2.45-0.505,3.477
		c-0.668,1.027-1.604,1.849-2.347,2.823c-1.675,2.195-2.104,5.71-0.008,7.507c0.826,0.709,1.979,1.108,2.48,2.074
		c0.817,1.575-0.611,3.342-1.92,4.54c0.437-2.31-1.312-4.23-2.9-5.963c-1.588-1.733-3.3-3.828-2.9-6.144
		c0.337-1.951,2.119-3.428,2.401-5.387c0.279-1.935-0.979-3.75-2.354-5.14c-1.375-1.39-2.984-2.664-3.727-4.472
		c-0.791-1.926-0.457-4.101-0.577-6.18C64.055,11.038,64.427,8.695,62.426,8.119z"/>
	<path fill="#A75B26" d="M32.833,36.608c2.086,0.944,1.816,4.239,0.149,5.808c-1.668,1.568-4.061,2.008-6.208,2.802
		c-2.147,0.794-4.379,2.369-4.506,4.655c-0.097,1.758,1.107,3.52,0.556,5.193c-0.663,2.016-3.258,2.435-5.079,3.525
		c-2.041,1.221-3.279,3.667-3.053,6.035c0.226,2.367,1.904,4.536,4.139,5.349c-1.81-2.305-3.72-5.951-1.838-8.197
		c1.396-1.666,3.831-1.844,5.976-2.193c2.145-0.349,4.617-1.393,4.945-3.541c0.295-1.932-1.347-3.979-0.487-5.734
		c0.665-1.358,2.407-1.668,3.792-2.276c2.305-1.012,3.994-3.31,4.271-5.812C35.766,39.718,34.861,38.099,32.833,36.608z"/>
	<path fill="#C3AECE" d="M62.932,70.494c-5.821-1.547-11.753-0.145-16.897,2.749c-0.135,0.211-0.363,0.349-0.607,0.304
		c-0.32,0.07-0.573-0.161-0.661-0.461C41.179,70,37.74,67.121,33.243,66.784c-1.394,5.601-1.844,12.473,0.544,19.789
		c0.068,0.957,0.164,1.989,0.257,3.064c3.285-0.329,6.506-1.137,9.807-1.379c3.162-0.231,6.305,0.18,9.374,0.94
		c3.458,0.857,6.71,2.257,10.088,3.349c1.893,0.612,3.652,1.262,5.256,2.243c2.873-4.921,5.318-10.338,6.979-16.235
		C72.176,74.892,67.438,71.691,62.932,70.494z"/>
	<g>
		<path fill="#673090" d="M64.566,50.397c0.276-0.942,1.736-0.783,1.721,0.199c-0.809,53.135,7.092,39.364,4.844,43.259
			c-3.781,6.552-2.904,9.003-2.784,12.359c0.166,4.636,1.695,8.834,3.694,13.02c4.233,8.864,11.151,46.26,10.504,46.11
			c-12.346-2.873-21.39-17.599-42.447-14.295c-12.273,1.926-23.808,15.765-23.881,15.037c-0.583-5.818-1.298-20.863,4.225-37.227
			c9.457-28.017,6.933-37.38,11.078-56.495c1.246-5.747,6.278-14.411,9.524-19.311c0.332-0.501,1.164-0.21,1.057,0.381
			c-4.96,27.309,2.873,34.941,3.167,34.45C52.22,76.283,62.465,57.572,64.566,50.397z"/>
		<g>
			<path fill="none" stroke="#D1C8C2" stroke-width="0.8858" stroke-linecap="round" stroke-miterlimit="10" d="M18.286,153.235
				c-1.69,7.667-1.989,15.622-0.879,23.388"/>
			<path fill="none" stroke="#D1C8C2" stroke-width="0.8858" stroke-linecap="round" stroke-miterlimit="10" d="M21.534,152.333
				c-1.821,7.899-1.757,16.226,0.186,24.096"/>
			<path fill="none" stroke="#D1C8C2" stroke-width="0.8858" stroke-linecap="round" stroke-miterlimit="10" d="M25.935,149.481
				c-1.477,8.239-1.394,16.756,0.243,24.965"/>
			<path fill="none" stroke="#D1C8C2" stroke-width="0.8858" stroke-linecap="round" stroke-miterlimit="10" d="M29.531,148.883
				c-1.202,7.269-0.664,14.82,1.558,21.845"/>
			<path fill="none" stroke="#D1C8C2" stroke-width="0.8858" stroke-linecap="round" stroke-miterlimit="10" d="M33.051,146.02
				c-0.599,7.572-0.244,15.219,1.054,22.702"/>
			<path fill="none" stroke="#D1C8C2" stroke-width="0.8858" stroke-linecap="round" stroke-miterlimit="10" d="M37.247,148.021
				c0.248,6.312,0.496,12.623,0.744,18.935"/>
			<path fill="none" stroke="#D1C8C2" stroke-width="0.8858" stroke-linecap="round" stroke-miterlimit="10" d="M41.996,146.865
				c0.344,5.93,0.689,11.86,1.033,17.789"/>
			<path fill="none" stroke="#D1C8C2" stroke-width="0.8858" stroke-linecap="round" stroke-miterlimit="10" d="M46.358,149.173
				c0.332,5.166,0.665,10.332,0.997,15.498"/>
			<path fill="none" stroke="#D1C8C2" stroke-width="0.8858" stroke-linecap="round" stroke-miterlimit="10" d="M49.915,147.445
				c0.286,5.45,0.572,10.899,0.857,16.349"/>
			<path fill="none" stroke="#D1C8C2" stroke-width="0.8858" stroke-linecap="round" stroke-miterlimit="10" d="M52.315,148.344
				c1.42,5.908,2.84,11.816,4.26,17.724"/>
			<path fill="none" stroke="#D1C8C2" stroke-width="0.8858" stroke-linecap="round" stroke-miterlimit="10" d="M57.834,148.609
				c1.094,6.111,2.187,12.223,3.281,18.334"/>
			<path fill="none" stroke="#D1C8C2" stroke-width="0.8858" stroke-linecap="round" stroke-miterlimit="10" d="M65.082,151.463
				c0.286,5.163,0.573,10.326,0.859,15.488"/>
			<path fill="none" stroke="#D1C8C2" stroke-width="0.8858" stroke-linecap="round" stroke-miterlimit="10" d="M69.358,153.478
				c1.17,4.885,1.08,10.066-0.256,14.907"/>
			<path fill="none" stroke="#D1C8C2" stroke-width="0.8858" stroke-linecap="round" stroke-miterlimit="10" d="M73.133,158.348
				c-0.382,4.268,0.17,8.617,1.606,12.654"/>
			<path fill="none" stroke="#D1C8C2" stroke-width="0.8858" stroke-linecap="round" stroke-miterlimit="10" d="M76.105,159.516
				c-0.869,4.552-0.313,9.365,1.573,13.598"/>
			<path fill="none" stroke="#D1C8C2" stroke-width="0.8858" stroke-linecap="round" stroke-miterlimit="10" d="M81.665,175.727
				c-2.171-4.349-2.962-9.375-2.231-14.181C78.927,166.027,79.572,171.733,81.665,175.727z"/>
		</g>
	</g>
	<path fill="#A75B26" d="M66.78,41.814c1.414,1.984,0.165,4.773-1.447,6.6c-1.612,1.827-3.68,3.53-4.065,5.936
		c-0.665,4.162,4.1,8.084,2.693,12.057c-0.527,1.487-1.829,2.554-3.155,3.409c-1.326,0.855-2.76,1.598-3.817,2.768
		c-1.057,1.171-1.662,2.929-0.975,4.349c0.446,0.921,1.335,1.528,2.083,2.226c0.749,0.698,1.421,1.669,1.212,2.671
		c-0.263,1.262-1.71,1.828-2.949,2.183c1.096,0.094,1.328-1.801,0.927-2.826c-0.401-1.024-1.347-1.715-2.04-2.569
		c-1.671-2.06-1.721-5.272-0.113-7.383c1.193-1.567,3.175-2.58,3.814-4.443c0.661-1.928-0.368-3.979-0.686-5.992
		c-0.545-3.446,1.038-6.868,2.925-9.803C63.073,48.063,65.693,45.13,66.78,41.814z"/>
	<g>
		<g>
			<path fill="#F8F2EF" d="M30.663,113.215c0.259-1.112,0.523-2.214,0.891-3.327c0.178-0.559,0.459-1.05,0.735-1.552
				c0.275-0.501,0.559-0.994,0.85-1.483c0.293-0.488,0.565-0.989,0.867-1.47c0.297-0.485,0.602-0.963,0.856-1.475
				c0.255-0.51,0.572-0.983,0.965-1.404c0.325-0.466,0.587-0.972,0.952-1.41c0.181-0.22,0.457-0.375,0.622-0.605
				c0.162-0.232,0.316-0.469,0.465-0.711c0.29-0.488,0.56-0.99,0.859-1.472c0.635-0.939,1.316-1.844,1.988-2.756
				c1.355-1.817,2.723-3.616,4.172-5.368l0.502-0.607l0.324,0.709c1.77,3.872,3.503,7.76,5.347,11.597l1.367,2.885
				c0.221,0.484,0.665,0.864,1.005,1.292c0.327,0.435,0.486,0.947,0.679,1.445c0.335,1.018,0.547,2.093,0.983,3.064
				c0.219,0.485,0.499,0.941,0.695,1.437c0.259,0.466,0.088,1.133,0.439,1.556l0.183,0.22l-0.339,0.037
				c-1.057,0.116-2.109,0.37-3.165,0.581c-0.528,0.104-1.057,0.189-1.587,0.244c-0.53,0.04-1.06,0.128-1.595-0.053
				c-0.535-0.174-1.069-0.36-1.599-0.321c-0.531-0.001-1.061,0.005-1.591,0.057c-1.06,0.074-2.122,0.206-3.185,0.193
				c-0.531,0.011-1.063-0.072-1.593-0.169c-0.53-0.101-1.06-0.166-1.59-0.212c-1.06-0.051-2.124,0.005-3.188-0.001
				c-0.266-0.006-0.533,0.01-0.798-0.015c-0.264-0.045-0.529-0.056-0.795-0.066l-1.595-0.095c-0.529-0.063-1.071-0.036-1.594-0.164
				C31.672,113.646,31.155,113.465,30.663,113.215z M30.663,113.215c0.557-0.098,1.083-0.094,1.615-0.121
				c0.531-0.025,1.042,0.125,1.569,0.15l1.576,0.126c0.263,0.022,0.527,0.029,0.792,0.011c0.264-0.001,0.527,0.04,0.79,0.058
				c1.054,0.078,2.109,0.197,3.168,0.177c0.53-0.031,1.059-0.077,1.589-0.168c0.53-0.092,1.058-0.172,1.586-0.157
				c1.057-0.013,2.115,0.11,3.174,0.157c0.53,0.038,1.059,0.035,1.588,0.014c0.53,0.019,1.055-0.188,1.58-0.381
				c0.524-0.205,1.054-0.144,1.583-0.13c0.529,0.028,1.06,0.079,1.591,0.153c1.062,0.144,2.129,0.327,3.189,0.352l-0.156,0.258
				c-0.098-0.541-0.719-0.839-0.91-1.337c-0.254-0.468-0.424-0.977-0.655-1.456c-0.463-0.958-1.151-1.812-1.716-2.723
				c-0.257-0.467-0.548-0.919-0.671-1.449c-0.109-0.536-0.115-1.121-0.344-1.601l-1.332-2.901c-1.755-3.878-3.62-7.705-5.449-11.549
				l0.826,0.103c-1.388,1.764-2.763,3.554-4.099,5.365c-0.677,0.9-1.312,1.83-1.993,2.727l-1.081,1.304
				c-0.174,0.222-0.346,0.446-0.496,0.684c-0.151,0.238-0.19,0.551-0.326,0.799c-0.267,0.498-0.642,0.924-0.923,1.411
				c-0.22,0.527-0.521,1-0.874,1.442c-0.654,0.914-1.215,1.889-1.767,2.862c-0.28,0.486-0.556,0.973-0.797,1.477
				c-0.24,0.503-0.53,0.988-0.823,1.456l-0.946,1.404L30.663,113.215z"/>
		</g>
		<g>
			<path fill="#F8F2EF" d="M33.365,124.108c0.149-0.823,0.293-1.64,0.523-2.477c0.113-0.418,0.316-0.776,0.522-1.14l0.624-1.078
				l0.632-1.07c0.216-0.353,0.44-0.7,0.613-1.08c0.172-0.38,0.405-0.723,0.713-1.015c0.242-0.335,0.417-0.714,0.695-1.024
				c0.137-0.156,0.371-0.247,0.492-0.413c0.119-0.168,0.229-0.342,0.334-0.52c0.201-0.361,0.383-0.737,0.594-1.092
				c0.455-0.688,0.956-1.342,1.443-2.006c0.987-1.32,1.979-2.629,3.04-3.9l0.505-0.605l0.321,0.708
				c1.277,2.816,2.518,5.649,3.87,8.43l0.997,2.094c0.159,0.352,0.542,0.6,0.821,0.897c0.266,0.303,0.363,0.683,0.494,1.049
				c0.212,0.754,0.301,1.565,0.614,2.272c0.158,0.353,0.376,0.677,0.51,1.041c0.197,0.334-0.035,0.869,0.255,1.161l0.208,0.209
				l-0.364,0.049c-0.768,0.104-1.53,0.348-2.296,0.549c-0.383,0.1-0.767,0.18-1.152,0.231c-0.385,0.036-0.77,0.121-1.16-0.064
				c-0.39-0.176-0.779-0.366-1.164-0.329c-0.386-0.006-0.771,0.005-1.156,0.047c-0.77,0.079-1.542,0.203-2.315,0.192
				c-0.386,0.012-0.773-0.071-1.158-0.167c-0.385-0.106-0.77-0.161-1.155-0.206c-0.77-0.047-1.544,0.017-2.318,0.028
				c-0.193-0.004-0.388,0.012-0.58-0.009c-0.192-0.041-0.385-0.05-0.578-0.056l-1.161-0.065c-0.385-0.051-0.783-0.007-1.162-0.121
				C34.088,124.493,33.713,124.337,33.365,124.108z M33.365,124.108c0.414-0.119,0.797-0.14,1.184-0.184
				c0.387-0.039,0.754,0.094,1.136,0.107l1.142,0.096c0.191,0.017,0.382,0.022,0.575,0c0.192-0.003,0.382,0.03,0.573,0.044
				c0.764,0.072,1.529,0.182,2.298,0.157c0.385-0.035,0.769-0.075,1.154-0.174c0.385-0.093,0.768-0.173,1.151-0.159
				c0.767-0.011,1.535,0.107,2.304,0.166c0.384,0.032,0.769,0.035,1.153,0.016c0.385,0.022,0.765-0.182,1.145-0.373
				c0.379-0.202,0.764-0.137,1.148-0.119c0.385,0.032,0.77,0.087,1.156,0.166c0.772,0.153,1.549,0.346,2.32,0.384l-0.156,0.258
				c-0.037-0.409-0.596-0.575-0.726-0.941c-0.193-0.336-0.301-0.713-0.47-1.06c-0.34-0.694-0.905-1.284-1.346-1.931
				c-0.196-0.335-0.425-0.655-0.486-1.053c-0.048-0.404,0.008-0.857-0.159-1.205l-0.963-2.109c-1.263-2.823-2.635-5.594-3.972-8.382
				l0.826,0.103c-1,1.283-2,2.582-2.967,3.896c-0.492,0.652-0.947,1.331-1.448,1.977c-0.261,0.316-0.547,0.613-0.816,0.924
				c-0.13,0.158-0.257,0.319-0.365,0.493c-0.108,0.174-0.104,0.423-0.196,0.607c-0.18,0.37-0.468,0.668-0.667,1.025
				c-0.136,0.397-0.352,0.741-0.622,1.052c-0.493,0.65-0.888,1.364-1.29,2.067c-0.202,0.352-0.401,0.705-0.571,1.072
				c-0.169,0.365-0.381,0.717-0.61,1.044l-0.75,0.984L33.365,124.108z"/>
		</g>
		<g>
			<path fill="#F8F2EF" d="M36.395,127.32c0.373,0.334,0.754,0.685,1.155,0.988c0.188,0.159,0.319,0.348,0.425,0.554
				c0.114,0.203,0.231,0.396,0.361,0.595c0.27,0.389,0.497,0.808,0.827,1.155c0.181,0.163,0.311,0.361,0.362,0.614
				c0.114,0.21,0.311,0.362,0.396,0.592c0.045,0.113-0.002,0.291,0.057,0.395c0.065,0.1,0.14,0.192,0.221,0.28
				c0.17,0.171,0.362,0.327,0.525,0.502c0.3,0.37,0.552,0.773,0.833,1.157l1.645,2.328l-0.809,0.023
				c1.027-1.521,2.072-3.029,3.045-4.585l0.722-1.172c0.133-0.187,0.048-0.515,0.067-0.776c0.029-0.254,0.213-0.408,0.37-0.58
				c0.355-0.316,0.825-0.559,1.086-0.936c0.13-0.189,0.203-0.415,0.355-0.59c0.092-0.214,0.585-0.168,0.594-0.435l0.158,0.276
				c-0.515,0.097-1.024,0.33-1.538,0.524c-0.257,0.097-0.514,0.171-0.773,0.222c-0.259,0.039-0.517,0.108-0.781-0.074
				c-0.264-0.173-0.526-0.373-0.785-0.339c-0.259-0.007-0.518,0.004-0.777,0.044c-0.517,0.076-1.036,0.199-1.556,0.188
				c-0.26,0.01-0.52-0.066-0.778-0.166c-0.259-0.104-0.518-0.157-0.776-0.2c-0.518-0.043-1.038,0.028-1.56,0.049
				c-0.13-0.001-0.261,0.017-0.391-0.001c-0.129-0.038-0.258-0.044-0.389-0.047l-0.783-0.038l-0.394-0.023
				c-0.132,0-0.266,0.005-0.39-0.06C36.868,127.665,36.618,127.53,36.395,127.32z M36.395,127.32
				c0.288-0.136,0.547-0.181,0.809-0.239c0.262-0.055,0.502,0.069,0.759,0.07l0.764,0.069c0.127,0.013,0.256,0.016,0.386-0.009
				c0.129-0.006,0.256,0.025,0.383,0.035c0.511,0.062,1.024,0.164,1.54,0.136c0.258-0.036,0.516-0.08,0.774-0.179
				c0.258-0.098,0.515-0.172,0.772-0.16c0.514-0.011,1.029,0.108,1.545,0.171c0.258,0.032,0.516,0.039,0.773,0.023
				c0.258,0.024,0.512-0.186,0.766-0.368c0.253-0.194,0.511-0.138,0.769-0.111c0.258,0.037,0.517,0.095,0.777,0.178
				c0.52,0.162,1.044,0.36,1.562,0.413l0.597,0.061l-0.439,0.215c-0.24,0.118,0.004,0.549-0.153,0.72
				c-0.097,0.21-0.273,0.37-0.392,0.566c-0.236,0.393-0.265,0.921-0.408,1.375c-0.092,0.213-0.157,0.445-0.377,0.575
				c-0.23,0.124-0.564,0.182-0.68,0.379l-0.773,1.139c-1.019,1.526-1.966,3.098-2.931,4.659l-0.367,0.594l-0.442-0.57
				c-0.585-0.756-1.137-1.533-1.697-2.306c-0.273-0.391-0.568-0.767-0.819-1.174c-0.111-0.213-0.197-0.445-0.299-0.665
				c-0.054-0.108-0.115-0.21-0.186-0.306c-0.077-0.092-0.26-0.109-0.351-0.192c-0.186-0.162-0.261-0.4-0.418-0.582
				c-0.22-0.138-0.363-0.33-0.446-0.564c-0.202-0.442-0.507-0.813-0.769-1.213l-0.413-0.605c-0.15-0.195-0.275-0.408-0.344-0.65
				C36.544,128.313,36.501,127.808,36.395,127.32z"/>
		</g>
		<g>
			<path fill="#F8F2EF" d="M27.964,110.62c0,0,0.065-0.118,0.187-0.338c0.129-0.213,0.287-0.557,0.523-0.961
				c0.113-0.203,0.301-0.378,0.527-0.551c0.211-0.185,0.44-0.385,0.684-0.599c0.231-0.231,0.511-0.431,0.771-0.68
				c0.127-0.129,0.251-0.271,0.416-0.368c0.197-0.055,0.337-0.189,0.487-0.319c0.142-0.14,0.32-0.239,0.56-0.256
				c0.201-0.071,0.345-0.226,0.502-0.373c0.296-0.318,0.649-0.582,1.042-0.805c0.762-0.484,1.574-0.979,2.443-1.436
				c0.862-0.472,1.781-0.9,2.708-1.345c0.938-0.42,1.891-0.846,2.844-1.272c0.475-0.216,0.957-0.416,1.438-0.612
				c0.527-0.077,0.777-0.858,1.332-0.854c0.502-0.129,1.061-0.092,1.542-0.239c0.243-0.067,0.461-0.199,0.697-0.274
				c0.12-0.034,0.234-0.08,0.375-0.052c0.139,0.024,0.282,0.059,0.393,0.007c0.896-0.384,1.54-1.422,2.534-1.283
				c0.263,0.08,0.491,0.067,0.691-0.02c0.209-0.061,0.406-0.147,0.597-0.237c0.382-0.186,0.744-0.385,1.119-0.496
				c0.367-0.135,0.789-0.045,1.139-0.116c0.359-0.045,0.665-0.193,0.961-0.31c0.577-0.276,1.129-0.365,1.552-0.533
				c0.216-0.073,0.408-0.137,0.572-0.204c0.17-0.05,0.337-0.018,0.462-0.026c0.26,0.016,0.409,0.058,0.409,0.058
				s-0.099,0.119-0.304,0.281c-0.107,0.065-0.227,0.187-0.394,0.242c-0.173,0.038-0.368,0.095-0.586,0.158
				c-0.444,0.103-0.947,0.342-1.576,0.454c-0.308,0.075-0.644,0.132-0.962,0.303c-0.327,0.144-0.617,0.46-0.99,0.57
				c-0.366,0.132-0.775,0.185-1.192,0.261c-0.207,0.041-0.416,0.089-0.62,0.163c-0.211,0.052-0.4,0.181-0.559,0.405
				c-0.157,0.23-0.365,0.32-0.595,0.353c-0.225,0.047-0.461,0.071-0.705,0.082c-0.489,0.015-1,0.005-1.474,0.124
				c-0.119,0.029-0.207,0.146-0.298,0.253c-0.09,0.111-0.208,0.147-0.321,0.196c-0.231,0.088-0.48,0.13-0.705,0.242
				c-0.457,0.206-0.848,0.601-1.304,0.832c-0.403,0.364-1.104-0.018-1.539,0.286c-0.481,0.186-0.963,0.375-1.438,0.58
				c-0.962,0.383-1.897,0.828-2.81,1.277c-0.909,0.456-1.798,0.918-2.631,1.407c-0.844,0.471-1.644,0.951-2.386,1.433
				c-0.697,0.538-1.6,0.717-2.035,1.429c-0.513,0.587-1.214,0.849-1.624,1.319c-0.469,0.411-0.814,0.805-1.192,1.081
				c-0.394,0.252-0.731,0.424-0.939,0.562C28.079,110.55,27.964,110.62,27.964,110.62z"/>
		</g>
		<path fill="#F8F2EF" d="M53.25,95.491c2.374-0.358,4.693-0.517,6.138-0.325c-0.699,1.54-3.081,4.138-3.78,5.678
			C55.418,97.491,54.41,96.792,53.25,95.491z"/>
		<g>
			<g>
				<path fill="#F8F2EF" d="M61.326,112.438c0,0-0.502-0.313-1.38-0.86c-0.426-0.279-0.809-0.729-1.331-1.176
					c-0.256-0.225-0.542-0.463-0.867-0.677c-0.166-0.104-0.343-0.2-0.486-0.347c-0.112-0.188-0.283-0.308-0.46-0.428
					c-0.508-0.752-1.466-1.011-2.24-1.61c-0.808-0.555-1.677-1.115-2.588-1.678c-0.895-0.589-1.86-1.134-2.826-1.712
					c-0.987-0.541-1.974-1.122-3.009-1.612l-1.536-0.76c-0.462-0.357-1.243-0.04-1.663-0.461c-0.48-0.298-0.893-0.734-1.384-0.99
					c-0.242-0.135-0.512-0.204-0.757-0.322c-0.121-0.063-0.247-0.114-0.34-0.237c-0.095-0.119-0.186-0.25-0.315-0.29
					c-1.021-0.357-2.254-0.073-3.004-0.832c-0.169-0.239-0.373-0.385-0.602-0.455c-0.22-0.095-0.446-0.161-0.672-0.218
					c-0.448-0.124-0.899-0.19-1.296-0.35c-0.407-0.134-0.721-0.475-1.077-0.644c-0.349-0.188-0.718-0.258-1.056-0.347
					c-0.686-0.144-1.241-0.403-1.732-0.509c-0.241-0.066-0.456-0.126-0.647-0.166c-0.185-0.06-0.322-0.181-0.442-0.249
					c-0.232-0.166-0.347-0.288-0.347-0.288s0.16-0.04,0.444-0.054c0.138,0.008,0.319-0.019,0.508,0.032
					c0.184,0.07,0.398,0.138,0.639,0.214c0.477,0.163,1.077,0.297,1.719,0.592c0.326,0.132,0.665,0.292,1.059,0.356
					c0.382,0.098,0.843,0.038,1.246,0.197c0.41,0.138,0.809,0.36,1.225,0.577c0.206,0.113,0.419,0.219,0.646,0.299
					c0.217,0.105,0.466,0.137,0.756,0.078c0.292-0.064,0.534,0.01,0.754,0.146c0.226,0.119,0.442,0.273,0.656,0.435
					c0.425,0.334,0.841,0.711,1.319,0.962c0.12,0.062,0.275,0.045,0.427,0.037c0.154-0.012,0.276,0.049,0.405,0.097
					c0.253,0.106,0.485,0.263,0.748,0.355c0.519,0.198,1.131,0.216,1.666,0.416c0.599,0.066,0.845,0.875,1.415,1.012l1.533,0.792
					c1.018,0.538,2.036,1.077,3.038,1.607c0.983,0.566,1.976,1.078,2.896,1.648c0.933,0.548,1.809,1.12,2.632,1.675
					c0.206,0.139,0.414,0.268,0.609,0.41c0.192,0.147,0.357,0.325,0.528,0.487c0.171,0.162,0.331,0.332,0.547,0.418
					c0.257,0.03,0.444,0.151,0.61,0.291c0.168,0.137,0.321,0.287,0.533,0.354c0.179,0.109,0.317,0.264,0.458,0.404
					c0.281,0.284,0.602,0.48,0.859,0.731c0.271,0.234,0.524,0.452,0.758,0.655c0.238,0.197,0.467,0.377,0.6,0.596
					C61.027,111.929,61.326,112.438,61.326,112.438z"/>
			</g>
			<path fill="#F8F2EF" d="M33.775,94.313c-2.081-0.203-3.199-0.21-4.436,0.076c0.721,1.494,1.627,3.034,2.348,4.528
				C31.599,95.554,32.869,95.689,33.775,94.313z"/>
		</g>
		<g>
			<path fill="none" stroke="#F8F2EF" stroke-width="0.4429" stroke-miterlimit="10" d="M57.729,109.106
				c1.623-0.187,3.246-0.374,4.869-0.56"/>
			<path fill="none" stroke="#F8F2EF" stroke-width="0.4429" stroke-miterlimit="10" d="M63.452,110.483
				c-1.252,0.144-2.505,0.288-3.757,0.431c-0.084,1.502-0.41,3.005-0.494,4.508"/>
			<path fill="none" stroke="#F8F2EF" stroke-width="0.4429" stroke-miterlimit="10" d="M57.883,109.069
				c-0.075,1.595-0.15,3.191-0.225,4.786"/>
		</g>
		<g>
			<path fill="none" stroke="#F8F2EF" stroke-width="0.4429" stroke-miterlimit="10" d="M31.196,107.801
				c-0.094,1.631-0.188,3.262-0.283,4.893"/>
			<path fill="none" stroke="#F8F2EF" stroke-width="0.4429" stroke-miterlimit="10" d="M28.858,113.203
				c0.073-1.259,0.146-2.517,0.219-3.775c-1.466-0.34-1.54-0.919-3.005-1.26"/>
			<path fill="none" stroke="#F8F2EF" stroke-width="0.4429" stroke-miterlimit="10" d="M31.206,107.959
				c-1.559-0.348-1.767-0.695-3.326-1.042"/>
		</g>
		<path fill="#F8F2EF" d="M34.692,115.914c0.553,0.422,0.428,1.441-0.211,1.717c-0.639,0.275-1.466-0.333-1.393-1.025
			c0.073-0.692,1.009-1.114,1.576-0.712"/>
		<path fill="#F8F2EF" d="M50.564,116.119c0.604-0.408,1.566-0.041,1.745,0.666c0.179,0.707-0.492,1.487-1.217,1.416
			s-1.233-0.966-0.92-1.625"/>
		<path fill="#F8F2EF" d="M36.637,109.716c0.541-0.185,1.181,0.358,1.088,0.921s-0.875,0.871-1.327,0.522
			c-0.452-0.349-0.353-1.183,0.169-1.416"/>
		<path fill="#F8F2EF" d="M47.983,109.898c0.283-0.515,1.137-0.562,1.475-0.081c0.338,0.481,0.004,1.268-0.577,1.36
			c-0.581,0.091-1.14-0.555-0.967-1.117"/>
		<path fill="#F8F2EF" d="M39.45,106.766c0.287-0.47,1.092-0.471,1.38-0.001c0.288,0.47-0.079,1.187-0.629,1.228
			c-0.55,0.042-1.02-0.612-0.806-1.12"/>
		<path fill="#F8F2EF" d="M46.351,106.052c-0.43,0.276-0.249,1.07,0.252,1.17c0.501,0.1,0.975-0.49,0.81-0.973
			c-0.165-0.483-0.839-0.681-1.267-0.401"/>
		<path fill="#F8F2EF" d="M44.381,104.257c-0.364,0.017-0.671,0.401-0.588,0.755s0.553,0.56,0.86,0.364
			c0.307-0.196,0.305-0.73-0.012-0.909c-0.317-0.178-0.785,0.124-0.737,0.485"/>
	</g>
	<path fill="#F5D2B9" d="M75.981,118.745c-1.252-1.61-3.64-1.686-5.659-1.398c-2.019,0.288-4.195,0.772-6.008-0.162
		c0.492,2.446,2.756,3.989,5.235,3.709c0.941-0.106,1.41-0.134,2.338,0.054c0.928,0.187,1.923,0.356,2.796-0.009
		C75.558,120.574,76.562,119.492,75.981,118.745z"/>
	<path fill="#F5D2B9" d="M77.063,119.57c-1.806-0.356-3.629-0.714-5.471-0.687c-1.842,0.027-3.279,1.821-4.741,2.924
		c-1.462,1.102-6.237,5.236-2.984,6.533c1.979,1.258,4.374,1.403,6.353,2.661c1.531,0.973,3.017-0.796,4.47-1.877
		c1.418-1.055,2.864-1.238,3.85-2.693C79.525,124.976,77.789,121.167,77.063,119.57z"/>
	<path fill="#F5D2B9" d="M65.002,123.907c-3.02,1.572-4.816,5.204-4.234,8.558c2.199,0.413,4.229,0.256,6.466,0.252
		c2.238-0.005,4.525-0.454,6.414-1.653c1.348-0.855,2.539-2.319,2.289-3.896c-0.205-1.294-1.352-2.276-2.599-2.679
		c-1.246-0.402-2.589-0.335-3.897-0.263"/>
	<path fill="#F5D2B9" d="M68.124,135.261c-0.159-0.373,0.251-0.806,0.58-1.043c1.846-1.331,3.217-3.307,3.818-5.502
		c0.439-1.602,2.889-1.475,4.155-0.399C75.27,132.265,72.275,134.68,68.124,135.261z"/>
	<path fill="#744136" d="M8.388,301.339c2.437,0.041,4.7,0.838,6.828,2.028c0.989,0.553,2.025,1.896,1.906,3.023
		c1.59-0.214,2.71-0.662,4.033-1.569c0.57-1.512-0.496-3.343-1.766-4.341c-1.271-0.998-4.046-1.562-5.662-1.58
		C11.938,299.457,10.603,299.985,8.388,301.339z"/>
	<path fill="#CE4C9B" d="M23.985,302.904c-0.367,0.36-0.939,0.854-1.411,1.057c-0.057-1.739-1.209-3.301-2.663-4.257
		c-1.453-0.956-3.18-1.396-4.887-1.732c0.235-0.34,0.5-0.68,0.765-0.99c1.907-0.242,3.631,0.383,5.192,1.504
		C22.542,299.607,23.604,301.02,23.985,302.904z"/>
	<path fill="#744136" d="M25.441,301.808c-0.174-1.908-1.124-3.734-2.588-4.971s-3.423-1.419-5.333-1.272
		c0-0.442,0.392-0.806,0.644-1.076c0.807-0.865,4.312,0.174,5.828,1.689c1.516,1.515,2.279,2.784,2.327,4.926
		C26.118,301.808,25.772,301.895,25.441,301.808z"/>
	<path fill="#744136" d="M28.063,288.087c2.389,2.623,1.953,8.407,1.95,11.955c0.753-0.161,1.661-0.334,2.414-0.494
		c0.305-4.066-0.772-8.221-2.804-11.756c0.571-0.144,1.209-0.122,1.251-0.314c0.084-0.473,0.175-1.335,0.259-1.809
		c-3.02-0.418-5.934-0.078-8.981-0.184c-0.169,0.751-0.263,1.474-0.431,2.225C23.474,287.978,27.099,288.073,28.063,288.087z"/>
	<path fill="#744136" d="M80.149,312.579c2.93-2.822,11.002-1.725,13.604-1.032c0.138-0.658-0.205-3.968-0.932-4.825
		c-2.16-0.714-4.306-0.733-6.567-0.487c-1.131,0.123-2.273,0.248-3.349,0.617c-1.076,0.369-2.25,0.824-2.265,1.961
		C80.639,308.814,79.841,310.911,80.149,312.579z"/>
	<path fill="#CE4C9B" d="M80.817,306.39c3.759-2.008,8.017-2.443,12.071-1.128c0.187-0.802-0.297-1.679-0.662-2.317
		c-1.915-0.659-7.758-1.201-10.406,1.092C81.309,304.478,80.681,305.738,80.817,306.39z"/>
	<path fill="#744136" d="M81.475,302.682c3.759-2.008,6.746-1.935,10.801-0.62c0.272-0.681-0.585-1.543-0.95-2.178
		c-1.915-0.659-6.412-1.408-9.06,0.885C81.755,301.211,81.264,302.04,81.475,302.682z"/>
	<path fill="#744136" d="M81.475,289.855c2.743-1.021,4.943-1.68,8.177-0.746c0.099,0.683,0.185,1.423,0.285,2.106
		c-3.105-0.648-5.811-0.551-8.551,1.046C81.536,291.238,81.324,290.88,81.475,289.855z"/>
	<path fill="#A75B26" d="M82.375,124.723c-0.716-3.053-1.732-4.737-3.464-7l4.484-4.069c0,0,3.865,2.218,5.146,7.582L82.375,124.723
		z"/>
	<g>
		<g>
			<path fill="#FFE7B5" d="M60.381,46.229c0.233-2.183,0.202-4.404-0.084-6.598c-0.74,0.587-1.473,1.171-2.298,1.799
				c-0.869-0.974-1.738-1.948-2.606-2.922c-0.392,1.107-0.622,2.289-0.708,3.445c-0.066,0.896-0.062,1.793-0.029,2.691
				c0.953,1.021,1.906,2.042,2.859,3.064C58.42,47.265,59.411,46.736,60.381,46.229z"/>
			<path fill="#D1C8C2" d="M60.298,39.631c-0.251-1.926-0.692-3.83-1.31-5.665c-1.758,0.948-2.918,2.635-3.594,4.542
				c0.869,0.974,1.738,1.948,2.606,2.922C58.824,40.802,59.558,40.218,60.298,39.631z"/>
			<path fill="#F8F2EF" d="M57.516,47.708c-0.953-1.021-1.906-2.042-2.859-3.064c0.083,2.254,0.368,4.511,0.309,6.768
				c-0.008,0.294-0.025,0.59-0.048,0.887c0.424,0.833,0.848,1.667,1.271,2.5c0.69-0.385,1.411-0.678,2.132-0.971
				c1.107-2.395,1.778-4.967,2.059-7.598C59.411,46.736,58.42,47.265,57.516,47.708z"/>
			<path fill="#C3AECE" d="M54.918,52.298c-0.224,2.887-1.201,5.834-3.5,7.54c2.457,0.348,4.39-1.614,5.689-3.728
				c0.454-0.739,0.854-1.503,1.215-2.284c-0.721,0.293-1.443,0.587-2.132,0.971C55.766,53.965,55.342,53.132,54.918,52.298z"/>
		</g>
		<path fill="none" stroke="#A75B26" stroke-width="0.8858" stroke-linecap="round" stroke-miterlimit="10" d="M58.816,30.346
			c0.035,1.03-0.243,2.576-0.196,3.96"/>
		<circle fill="#CE4C9B" cx="58.62" cy="34.306" r="1.062"/>
	</g>
	<path fill="none" stroke="#A75B26" stroke-width="0.4429" stroke-miterlimit="10" d="M44.712,51.52
		c-1.863,8.592-1.396,17.677,1.338,26.032c7.578-8.478,13.501-18.561,17.689-29.133"/>
	<path fill="#CE4C9B" d="M44.181,80.762c0.065-0.976,2.003-3.448,2.003-3.448s1.596,2.705,1.532,3.681
		c-0.064,0.976-0.908,1.715-1.884,1.651C44.855,82.582,44.116,81.738,44.181,80.762z"/>
	<path fill="none" stroke="#191918" stroke-width="3.5433" stroke-miterlimit="10" d="M68.449,49.58
		c-0.595,12.145,0.637,31.527,7.255,40.455"/>
	<path fill="#191918" d="M30.261,79.014c-1.183-11.489,3.105-18.779,9.578-26.422l4.999-0.825
		C34.275,62.516,30.261,79.014,30.261,79.014z"/>
</g>
</svg>
