<?xml version="1.0" encoding="utf-8"?>
<!-- Generator: Adobe Illustrator 17.0.0, SVG Export Plug-In . SVG Version: 6.00 Build 0)  -->
<!DOCTYPE svg PUBLIC "-//W3C//DTD SVG 1.1//EN" "http://www.w3.org/Graphics/SVG/1.1/DTD/svg11.dtd">
<svg version="1.1" id="Layer_1" xmlns="http://www.w3.org/2000/svg" xmlns:xlink="http://www.w3.org/1999/xlink" x="0px" y="0px"
	 width="87.502px" height="263.732px" viewBox="0 0 87.502 263.732" enable-background="new 0 0 87.502 263.732"
	 xml:space="preserve">
<g>
	<path fill="#A75B26" d="M30.336,11.154c-1.046,1.143-2.109,2.31-2.759,3.717c-0.65,1.406-0.834,3.116-0.104,4.482
		c0.413,0.773,1.116,1.473,1.087,2.348c-0.041,1.271-1.498,1.902-2.46,2.733c-1.745,1.507-1.931,4.486-0.387,6.198
		c0.625,0.693,1.454,1.166,2.142,1.797c0.688,0.63,1.256,1.529,1.095,2.448c-0.246,1.398-1.949,2.024-2.612,3.279
		c-0.625,1.184-0.174,2.686,0.654,3.738s1.977,1.793,2.982,2.677c1.005,0.884,1.919,2.023,2.001,3.359
		c0.082,1.336-1.024,2.782-2.352,2.613c1.329,0.359,2.158,0.096,3.085-0.921c0.927-1.017,1.227-2.564,0.747-3.854
		c-0.875-2.35-3.98-3.671-4.026-6.178c-0.042-2.28,2.598-4.038,2.327-6.302c-0.267-2.226-3.207-3.447-3.343-5.684
		c-0.093-1.534,1.174-2.751,2.091-3.984C33.236,19.946,33.322,14.626,30.336,11.154z"/>
	<path fill="#A75B26" d="M28.917,10.128c2.389-6.326,9.317-9.715,16.079-9.682c6.762,0.033,12.9,3.484,15.228,9.833
		c2.328,6.349,0.315,14.046-4.823,18.442c-1.704,1.458-3.689,2.562-5.387,4.027c-1.698,1.465-3.149,3.44-3.239,5.681
		c-0.483-5.792-1.889-12.19-4.752-17.249c-2.863-5.059-7.533-9.284-13.178-10.672C28.813,10.15,28.79,10.465,28.917,10.128z"/>
	<path fill="#A75B26" d="M34.825,41.317c-2.147,3.66-4.81,7.017-7.885,9.941c-2.317,2.203-5.102,4.698-4.827,7.883
		c0.071,0.823,0.355,1.639,0.242,2.457c-0.263,1.905-2.536,3.081-2.711,4.996c-0.171,1.868,1.7,3.225,3.391,4.037
		c1.691,0.812,3.667,1.764,4.041,3.603c0.352,1.729-0.927,3.365-1.099,5.121c-0.176,1.806,0.869,3.558,2.276,4.704
		c1.407,1.146,3.143,1.796,4.845,2.427c-1.226-1.175-0.986-2.241-0.046-3.656c0.94-1.415,2.446-2.329,3.855-3.277
		c4.392-2.954,8.478-7.001,9.531-12.188c0.842-4.149-0.381-8.451-2.124-12.309C41.803,49.498,39.284,45.482,34.825,41.317z"/>
	<path fill="#A75B26" d="M30.205,35.47c0.031,2.259-2.672,3.17-3,5.405c-0.397,2.699,3.878,3.945,4.262,6.646
		c0.242,1.703-1.167,3.147-2.455,4.287c6.17-2.686,10.496-9.158,10.618-15.886c0.085-4.658-2.942-15.072-9.424-13.353
		c-2.477,0.657-5.088,3.684-4.946,6.325C25.456,32.514,30.159,32.115,30.205,35.47z"/>
	<path fill="#A75B26" d="M27.728,52.9c-2.247-1.229-4.284-2.695-6.059-4.441c-0.005,0.213-0.038,0.425-0.114,0.638
		c-0.592,1.65-2.981,1.669-4.243,2.885c-2.177,2.098,0.185,5.935-0.931,8.746c-0.414,1.042-1.281,1.846-1.749,2.865
		c-1.232,2.681,1.54,6.212,4.467,5.836c-1.561-1.148-3.338-4.171-1.721-5.24c2.761-1.826,1.179-5.815,2.185-7.471
		c1.313-2.16,3.149-2.344,5.659-2.64c0.988-0.116,2.031,0.115,2.957-0.247c0.246-0.096,0.46-0.221,0.65-0.369
		C28.444,53.28,28.074,53.089,27.728,52.9z"/>
	<path fill="#A75B26" d="M62.228,18.705c-0.484-1.986,0.356-4.062,0.206-6.101c-0.173-2.365-1.639-4.41-3.05-6.315
		c-2.132-2.878-4.038-6.101-7.539-5.345C51.08-0.153,45.008,2.7,44.647,3.986c-0.362,1.287,0.244,2.621,0.76,3.854
		c0.516,1.233,0.944,2.694,0.28,3.854c-1.16,2.026-4.39,1.36-6.232,2.793c-2.144,1.668-1.354,5.024-0.41,7.572
		c0.943,2.547,1.573,5.99-0.695,7.484c-1.387,0.914-3.39,0.644-4.601,1.781c-2.167,2.036,0.356,5.989-1.137,8.561
		c-1.467,2.527-5.89,2.173-7.02,4.867c-0.336,0.802-0.292,1.722-0.258,2.626c1.021,2.73,2.491,5.201,4.322,7.643
		c0.548,0.731,1.285,1.672,2.139,2.557c1.694-1.245,2.678-3.987,4.542-5.331c3.4-2.45,8.74,0.398,12.141-2.051
		c2.375-1.71,2.728-5.319,5.092-7.045c1.885-1.376,4.786-1.341,6.054-3.301c1.691-2.615-1.047-6.379,0.45-9.109
		c1.082-1.972,3.984-2.556,4.718-4.682C65.663,23.536,62.861,21.299,62.228,18.705z"/>
	<path fill="#8F441F" d="M50.312,14.396c1.829,0.399,2.951,2.372,3.048,4.242c0.097,1.869-0.58,3.679-1.148,5.463
		c-0.568,1.784-1.038,3.706-0.529,5.508c0.661,2.34,2.913,4.308,2.535,6.71c-0.228,1.452-1.389,2.568-2.578,3.433
		s-2.508,1.629-3.338,2.843c-0.83,1.213-0.972,3.07,0.152,4.016c-2.385-1.61-3.811-5.171-2.336-7.642
		c0.838-1.405,2.294-2.486,2.653-4.082c0.327-1.451-0.355-2.934-1.167-4.18c-0.812-1.246-1.792-2.433-2.172-3.871
		c-0.642-2.432,0.565-4.929,1.737-7.155C48.138,17.845,49.345,16.232,50.312,14.396z"/>
	<path fill="#744136" d="M16.073,253.541c3.648-1.29,6.599-3.705,10.363-4.651c0.728-0.183,1.497-0.675,2.125-1.067
		c0.628-0.392,1.446-1.169,1.147-1.822c-0.244-0.533-1.28-0.805-1.895-0.799c-0.615,0.006-1.2,0.234-1.772,0.451
		c-5.463,2.066-11.218,4.046-17.077,4.516c-1.948,0.156-4.244-0.697-4.924,1.423c-0.661,2.062,1.395,2.723,3.149,3.042
		C11.135,255.352,13.124,254.584,16.073,253.541z"/>
	<path fill="#744136" d="M67.834,251.443c-0.379,0.951-1.459,6.84-1.567,7.857c-0.108,1.018,0.092,2.486,0.765,3.258
		c0.757,0.87,1.96,0.813,3.099,0.991c1.231,0.192,2.495,0.273,3.718,0.041c1.224-0.232,2.412-0.427,3.226-1.37
		c1.337-1.548,0.809-8.458-0.562-9.976c-0.879-0.973-1.631,2.522-2.941,2.451c-1.31-0.071-2.613,0.243-3.85,0.678"/>
	<path fill="#191918" d="M65.746,74.339c0.318-2.959-0.408-7.048-1.263-9.898c-0.855-2.85-1.802-4.44-4.768-4.69
		c-2.154-0.182-4.26,0.914-5.78,2.451c-1.52,1.537-2.548,3.482-3.526,5.41c-3.498,6.891-6.942,15.517-2.23,22.731
		c4.239,6.488,11.033,4.098,14.431-1.855C65.05,84.214,65.23,79.14,65.746,74.339z"/>
	<g>
		<g>
			<path fill="#F5D2B9" d="M73.732,236.212c0.334-7.5,1.737-16.068,2.071-23.568c0.388-8.71-4.459-17.117-7.321-25.353
				c-3.799-10.934-1.165-26.228-1.753-37.518c-0.59-11.315-1.136-21.389-2.97-34.447c-0.78-5.555-4.083-11.949-7.078-17.939
				c-2.54-5.079-4.8-11.123-1.689-15.873c5.073-7.746,9.035-17.138,9.489-28.096c0.175-4.23,1.099-11.71-5.578-11.418
				c-4.312,0.188-8.288-0.292-8.871-2.888c-0.13-0.578-0.231-1.162-0.312-1.743c-3.188,1.358-6.853,1.59-10.187,0.641
				c-0.827,5.503-4.341,6.668-7.489,6.889C29.903,48.157,23.894,59.166,28,71.744c0.247,3.475,0.946,8.114-0.165,11.997
				c-2.025,7.077-2.465,6.784-5.724,13.606c-1.744,3.651-4.904,8.859-6.414,15.398c-4.125,17.868,3.984,44.76,6.224,60.954
				c-0.991,3.951-0.23,8.683-1.193,12.641c-3.869,15.891,0.655,32.932-1.975,49.075c-1.168,7.166-1.289,6.511-6.213,11.596
				c-1.264,1.305-3.779,2.523-5.586,2.711c-0.965,0.1-1.62,0.236-2.147,0.502c-1.211,0.611-1.248,2.216,0.059,2.578
				c3.996,1.106,8.704,2.939,15.506-2.396c2.357-1.849,6.166-1.665,8.566-3.459c0.759-4.04-4.024-9.068-4.024-9.068
				c2.189-10.15,7.941-23.256,8.448-33.627c0.404-8.249-2.638-14.572-1.294-20.497c0.766-3.375,3.224-10.136,3.698-13.564
				c1.377-9.976,2.011-23.06,2.447-33.121c0.162-3.736-1.035-6.774-0.131-10.403c0,0,1.547-0.267,1.995-0.021
				c-0.001,2.159,1.3,17.016,4.616,25.751c4.56,12.012,5.958,21.087,13.614,37.128c2.134,8.812,3.911,20.475,6.045,29.287
				c1.468,6.063,3.659,13.3,3.323,19.529l0.152,0.606c0.022,1.697-0.018,3.007,0.185,4.692c0.854,7.092-1.354,11.275-1.408,16.397
				c-0.033,3.138,3.446,1.539,4.706,1.622c1.26,0.083,6.389,0.81,6.385-1.702C77.68,251.236,73.344,244.923,73.732,236.212z"/>
			<path fill="#E3B99D" d="M49.721,37.368c-0.53-3.801-0.147-10.852-0.501-11.941c-0.396-3.842-3.543-1.87-5.612-1.153
				c-1.295,0.449-2.628,8.597-3.978,8.829c0.147,1.994,0.101,3.602-0.095,4.907C42.867,38.957,46.532,38.726,49.721,37.368z"/>
		</g>
	</g>
	<g>
		<g>
			<path fill="#86839C" d="M58.693,101.429c-4.615,1.602-9.691,2.187-14.361,2.336c-7.909,0.252-16.229-0.674-23.743-3.399
				c-1.696,3.313-3.759,7.471-4.892,12.379c-1.643,7.118-1.342,15.668-0.247,24.403c4.622,0.713,9.223,1.611,13.907,1.673
				c2.916,0.039,5.85,0.003,8.783-0.127c0.024-0.548,0.048-1.092,0.071-1.624c0.162-3.736-1.035-6.774-0.131-10.403
				c0,0,1.547-0.267,1.995-0.021c-0.001,1.181,0.39,6.165,1.285,11.866c4.635-0.32,9.252-0.898,13.778-1.826
				c3.513-0.721,7.163-1.684,10.603-3.094c-0.443-5.686-1.043-11.585-1.982-18.267C63.153,111.006,61.02,106.179,58.693,101.429z"/>
			<path fill="#E3B99D" d="M49.721,37.368c-0.53-3.801-0.147-10.852-0.501-11.941c-0.396-3.842-3.543-1.87-5.612-1.153
				c-1.295,0.449-2.628,8.597-3.978,8.829c0.147,1.994,0.101,3.602-0.095,4.907C42.867,38.957,46.532,38.726,49.721,37.368z"/>
		</g>
	</g>
	<path fill="#A4A2BD" d="M15.107,134.64c-0.269,1.688-0.306,3.401-0.111,5.096c7.582,2.452,16.114,2.755,23.913,0.848
		c-0.175-1.635-0.502-3.318-0.677-4.953C31.767,136.736,23.174,137.144,15.107,134.64z"/>
	<path fill="#A4A2BD" d="M66.041,132.598c0.451,1.653,0.648,3.356,0.588,5.063c-8.136,3.209-17.518,4.375-26.292,3.266
		c0.044-1.646,0.25-3.355,0.294-5.001C47.862,136.372,57.375,135.908,66.041,132.598z"/>
	<g>
		<path fill="#F5D2B9" d="M34.684,45.921c-1.672-2.169-7.841-1.1-9.588-3.347c-7.161-9.205-12.479-9.729-14.486-15.802
			c2.031-2.379,15.337-14.052,19.448-16.408c0.086-0.28,0.85-0.367,0.916-0.35c0.093-0.003,0.172,0.013,0.232,0.052
			c0.009,0.003,0.017,0.005,0.026,0.008c2.282,0.465,4.814-2.667,5.304-3.326c1.965-2.646,3.065-2.639,5.76-3.875
			c1.289-0.591,0.858-2.679-1.199-2.451c-1.143,0.127-2.253-0.111-3.382-0.285C37.338,0.079,36.96,0.028,36.577,0
			c-0.124,0.092-0.255,0.186-0.392,0.282c-2.051,1.442-4.305,2.988-6.17,4.362c-1.002,0.738-3.564,2.306-3.724,2.384
			c-0.746,0.364-1.483,0.719-2.212,1.069c-0.026,0.012-0.052,0.025-0.078,0.037c-0.657,0.315-1.306,0.624-1.948,0.93
			c-4.344,2.069-20.757,9.943-22.039,17.392c-0.6,3.487,18.3,26.421,20.705,28.452c7.667,6.478,10.886,12.546,13.234,10.449
			C32.214,62.895,36.829,48.704,34.684,45.921z"/>
		<path fill="#F5D2B9" d="M46.017,0.141c-1.501,0.108-3.003,0.584-4.504,0.692c-0.94,0.068-1.898,0.14-2.767,0.503
			c-0.869,0.363-1.649,0.707-1.841,1.63c2.717,0.624,8.785-0.166,8.939-2.319C45.876,0.206,46.234,0.527,46.017,0.141z"/>
	</g>
	<path fill="#8F441F" d="M35.031,7.303c4.487-3.981,9.927-3.068,15.321-0.444c1.627,4.369,1.858,7.542-1.27,10.998
		c-1.233,1.362-2.882,2.756-2.724,4.586"/>
	<g>
		<g>
			<path fill="#F5D2B9" d="M47.779,29.349c-0.647,4.514-7.101,6.206-11.969,8.157c-1.008,0.404-1.866-0.071-2.616-0.856
				c-0.525-0.549-0.234-1.175-0.241-2.186c-0.004-0.505-0.711-1.3-1.182-1.482c-0.03-0.011-1.283-1.276,0.31-2.326
				c-0.814-0.317-1.795,0.117-1.758-1.33c0.277-0.414,0.085-1.897,0.085-1.897c-0.68-0.387-2.297-0.659-2.403-1.77
				c2.592-3.523,3.777-4.935,2.813-7.12c-1.692-3.835-0.709-8.964,1.939-12.214c3.663,0.458,7.755,0.74,10.252,3.459
				c2.497,2.719,1.68,6.836,3.82,10.717c-0.142-1.233,3.399-5.248,4.817-1.649c0.455,1.155,0.476,3.595-0.206,4.632
				c-0.682,1.037-1.793,2.087-3.008,2.341C48.431,25.826,48.18,26.558,47.779,29.349z"/>
		</g>
		<g>
			<path fill="#ACA9A4" d="M33.131,18.885c-0.291-0.3-0.064-0.762,0.003-0.882c1.992-0.578,3.876,0.286,3.838,1.769
				C35.517,19.669,34.123,19.906,33.131,18.885z"/>
			<path fill="#FFFFFF" d="M33.12,18.852c1.402-0.306,2.938-0.142,3.851,0.92c-0.966,0.948-2.519,0.97-3.218,1.4
				C33.143,20.748,33.12,18.852,33.12,18.852z"/>
			<path fill="#A75B26" d="M38.738,15.848c-2.74-2.279-4.776-0.866-7.048-0.068c-0.095,0.303-0.166,1.076-0.11,1.486
				C33.416,15.899,36.64,14.932,38.738,15.848z"/>
			<g>
				<path fill="#AEB69F" d="M33.12,18.852c0.228-0.05,0.46-0.086,0.692-0.109c0.076-0.008,0.152-0.013,0.227-0.018
					c0.135,0.419,0.248,0.844,0.257,1.28c0.011,0.543-0.129,0.799-0.543,1.166c-0.172-0.239-0.332-0.325-0.422-0.745
					C33.181,19.727,33.172,19.728,33.12,18.852z"/>
			</g>
			<g>
				<path fill="#1C1C1B" d="M33.101,19.628c0.013-0.125,0.012-0.25-0.011-0.369c-0.021-0.125-0.02-0.252-0.003-0.385l0.003-0.026
					l0.031-0.007l0.503-0.115c0.171-0.021,0.344-0.028,0.517-0.043c0.346,0,0.695,0.022,1.036,0.097
					c0.339,0.082,0.669,0.194,0.989,0.334c0.317,0.145,0.62,0.319,0.902,0.525l0.161,0.118l-0.142,0.133
					c-0.502,0.469-1.138,0.718-1.757,0.872c-0.618,0.175-1.25,0.255-1.817,0.553c0.507-0.407,1.158-0.569,1.745-0.785
					c0.588-0.22,1.18-0.445,1.599-0.875l0.019,0.251c-0.275-0.179-0.554-0.35-0.848-0.498c-0.297-0.14-0.604-0.255-0.921-0.342
					c-0.318-0.079-0.64-0.144-0.971-0.169c-0.331-0.016-0.661-0.002-0.996,0.033l0.034-0.033c-0.026,0.114-0.04,0.234-0.033,0.358
					C33.147,19.385,33.131,19.506,33.101,19.628z"/>
			</g>
			<path fill="#1C1C1B" d="M32.924,18.293c-0.227-0.032-0.49-0.071-0.605-0.309c-0.009,0.381,0.247,0.7,0.538,0.827
				c0.288,0.125,0.601,0.101,0.904,0.088c0.171-0.008,1.614-0.137,2.65,0.38C35.831,18.441,33.354,18.354,32.924,18.293z"/>
		</g>
		<g>
			<path fill="#CE4C9B" d="M31.135,28.987c0.991,0.282,1.8,0.944,2.557,1.076c-0.025,0.824-0.878,2.843-1.921,2.919
				c-0.032,0.002-1.356-1.276,0.237-2.326c-0.808-0.315-1.709,0.111-1.684-1.301C30.405,29.318,30.904,28.921,31.135,28.987z"/>
		</g>
	</g>
	<path fill="#A75B26" d="M38.47,5.681c0.021,1.705-1.371,3.119-2.881,3.921c-1.51,0.802-3.216,1.204-4.684,2.081
		c-1.468,0.877-2.725,2.467-2.446,4.149c0.105,0.634,0.423,1.245,0.355,1.884c-0.099,0.94-0.996,1.599-1.891,1.911
		c-0.895,0.312-1.87,0.407-2.709,0.848c-1.715,0.901-2.411,3.316-1.437,4.987c0.429,0.736,1.15,1.535,0.791,2.308
		c-0.205,0.441-0.7,0.662-1.168,0.799c-0.468,0.137-0.972,0.239-1.333,0.565c-0.362,0.326-0.483,0.977-0.097,1.273
		c-0.613-0.209-0.944-1.428-0.66-2.008c0.284-0.58,0.779-1.07,0.899-1.704c0.147-0.777-0.306-1.524-0.537-2.281
		c-0.452-1.476,0-3.189,1.122-4.253c0.725-0.688,1.694-1.115,2.305-1.906c0.735-0.951,0.814-2.229,1.018-3.412
		c0.677-3.927,3.124-7.518,6.537-9.594c1.041-0.633,2.201-1.139,3.42-1.174C36.294,4.039,37.821,4.652,38.47,5.681z"/>
	<path fill="#A75B26" d="M34.433,3.13c2.16-0.545,4.422-0.681,6.632-0.398c0.59,0.075,1.354,0.434,1.197,1.007
		c-0.087,0.32-0.433,0.483-0.742,0.603c-2.502,0.966-6.115,2.554-8.844,2.356C28.592,6.403,32.646,3.581,34.433,3.13z"/>
	<path fill="none" stroke="#A75B26" stroke-width="0.367" stroke-miterlimit="10" d="M39.285,7.115
		c0.631,1.293,0.347,2.905-0.464,4.094c-0.811,1.189-2.077,2.001-3.405,2.555c-1.328,0.554-2.739,0.878-4.116,1.294
		c-0.708,0.214-1.422,0.46-2.017,0.9c-0.595,0.44-1.061,1.109-1.092,1.848"/>
	<path fill="#A75B26" d="M39.676,8.94c-0.311,1.398-1.439,2.492-2.698,3.174c-1.26,0.682-2.668,1.028-4.026,1.484
		c-1.358,0.456-2.721,1.059-3.682,2.121c-0.483,0.534-0.861,1.225-0.79,1.941c0.071,0.716,0.735,1.392,1.444,1.27
		c-1.437,0.286-2.726-1.303-2.59-2.762c0.136-1.459,1.26-2.644,2.499-3.427c1.239-0.783,2.64-1.286,3.854-2.107
		c1.665-1.127,2.1-3.068,3.499-4.244C38.891,4.956,40.012,7.432,39.676,8.94z"/>
	<g>
		<path fill="#A75B26" d="M40.935,7.672c0,0,0.161-0.035,0.425-0.155c0.133-0.059,0.291-0.138,0.464-0.26
			C41.99,7.129,42.199,7,42.462,6.952c0.254-0.076,0.559-0.015,0.861,0.041c0.301,0.058,0.596,0.083,0.905-0.133
			c0.155-0.086,0.316-0.202,0.481-0.236c0.165-0.033,0.331,0.003,0.496,0.058c0.332,0.119,0.652,0.389,0.979,0.439
			c0.163,0.037,0.328,0.042,0.503-0.042c0.175-0.081,0.359-0.228,0.538-0.319c0.363-0.206,0.677-0.051,0.97,0.108
			c0.292,0.175,0.556,0.411,0.817,0.553c0.131,0.069,0.259,0.134,0.393,0.145c0.134,0.013,0.279-0.04,0.413-0.065
			c0.277-0.084,0.484,0.039,0.676,0.105c0.189,0.08,0.35,0.161,0.479,0.241c0.256,0.162,0.388,0.296,0.388,0.296
			c0.081,0.083,0.08,0.215-0.003,0.296c-0.027,0.026-0.059,0.044-0.093,0.053l-0.008,0.002c0,0-0.185,0.048-0.482,0.059
			c-0.148,0.005-0.323-0.006-0.52-0.031c-0.191-0.047-0.423-0.027-0.627-0.214c-0.106-0.079-0.211-0.188-0.336-0.233
			c-0.124-0.047-0.264-0.042-0.408-0.034c-0.288,0.019-0.614,0.175-0.927,0.241c-0.313,0.058-0.623,0.09-0.904-0.171
			c-0.141-0.127-0.281-0.309-0.431-0.426c-0.15-0.12-0.311-0.15-0.474-0.15c-0.327,0.011-0.663,0.263-0.976,0.354
			c-0.315,0.102-0.612,0.024-0.917-0.165c-0.304-0.18-0.605-0.157-0.864-0.037c-0.255,0.139-0.478,0.277-0.71,0.273
			c-0.225,0.015-0.461-0.043-0.675-0.043c-0.212-0.014-0.389,0-0.532,0.019c-0.288,0.034-0.444,0.088-0.444,0.088
			c-0.096,0.034-0.201-0.016-0.235-0.112s0.016-0.201,0.112-0.235C40.919,7.676,40.928,7.674,40.935,7.672z"/>
	</g>
	<g>
		<path fill="#A75B26" d="M44.193,12.294c0,0,0-0.175,0.082-0.402c0.045-0.109,0.106-0.236,0.202-0.357
			c0.078-0.13,0.229-0.247,0.469-0.289c0.236-0.043,0.453-0.109,0.598-0.288c0.16-0.157,0.277-0.391,0.439-0.589
			c0.162-0.198,0.388-0.323,0.672-0.343c0.283-0.026,0.567-0.037,0.762-0.211c0.099-0.085,0.156-0.25,0.24-0.368
			c0.082-0.123,0.204-0.167,0.329-0.201c0.248-0.074,0.55-0.01,0.802-0.026c0.253-0.015,0.459-0.107,0.611-0.32
			c0.15-0.216,0.305-0.405,0.496-0.446c0.724-0.289,1.299-0.139,1.299-0.139c0.113,0.029,0.181,0.145,0.151,0.258
			c-0.008,0.032-0.023,0.06-0.043,0.084l-0.011,0.012c0,0-0.098,0.115-0.286,0.242c-0.186,0.135-0.466,0.262-0.813,0.386
			c-0.164,0.089-0.393,0.04-0.65-0.027C49.29,9.208,49.082,9.31,48.9,9.477c-0.182,0.171-0.332,0.42-0.522,0.578
			c-0.097,0.077-0.198,0.145-0.341,0.134c-0.14-0.006-0.308-0.059-0.434-0.031c-0.243,0.075-0.391,0.322-0.537,0.545
			c-0.151,0.218-0.327,0.37-0.551,0.445c-0.222,0.074-0.493,0.085-0.673,0.194c-0.188,0.098-0.286,0.293-0.34,0.492
			c-0.054,0.195-0.167,0.302-0.293,0.403c-0.118,0.1-0.243,0.165-0.351,0.214c-0.225,0.09-0.4,0.096-0.4,0.096
			c-0.141,0.006-0.259-0.104-0.264-0.244C44.193,12.301,44.193,12.297,44.193,12.294z"/>
	</g>
	<g>
		<path fill="#A75B26" d="M45.373,16.604c0,0-0.116-0.245-0.09-0.535c0.015-0.296,0.191-0.625,0.645-0.872
			c0.218-0.129,0.46-0.264,0.605-0.476c0.172-0.195,0.219-0.485,0.251-0.809c0.046-0.315,0.197-0.581,0.482-0.746
			c0.288-0.164,0.593-0.306,0.731-0.585c0.177-0.243,0.239-0.586,0.378-0.861c0.138-0.275,0.358-0.474,0.664-0.577
			c0.312-0.098,0.596-0.203,0.757-0.404c0.168-0.194,0.154-0.546,0.281-0.738c0.138-0.181,0.307-0.305,0.456-0.415
			c0.149-0.11,0.295-0.19,0.421-0.249c0.25-0.12,0.432-0.146,0.432-0.146c0.124-0.018,0.239,0.068,0.256,0.192
			c0.003,0.022,0.003,0.044,0,0.064l-0.001,0.008c0,0-0.027,0.185-0.144,0.435c-0.057,0.126-0.135,0.271-0.241,0.419
			c-0.107,0.148-0.226,0.314-0.402,0.451c-0.187,0.126-0.542,0.118-0.734,0.287c-0.196,0.166-0.26,0.474-0.324,0.789
			c-0.066,0.313-0.231,0.544-0.485,0.706c-0.252,0.162-0.587,0.263-0.808,0.464c-0.23,0.19-0.288,0.52-0.359,0.819
			c-0.074,0.298-0.276,0.488-0.573,0.615c-0.303,0.122-0.61,0.243-0.719,0.475c-0.125,0.224-0.137,0.5-0.154,0.751
			c-0.016,0.514-0.232,0.818-0.491,0.965c-0.248,0.154-0.521,0.162-0.521,0.162C45.549,16.8,45.429,16.72,45.373,16.604z"/>
	</g>
	<g>
		<path fill="#A75B26" d="M46.347,18.737c0,0-0.042-0.255,0.057-0.564c0.1-0.308,0.286-0.714,0.843-0.936
			c0.271-0.116,0.555-0.251,0.713-0.506c0.161-0.251,0.072-0.706,0.14-1.041c0.061-0.341,0.338-0.538,0.677-0.719
			c0.331-0.185,0.53-0.475,0.501-0.879c-0.056-0.423,0.092-0.724,0.464-0.91c0.365-0.189,0.654-0.426,0.468-0.873
			c-0.151-0.427,0.183-0.608,0.449-0.813c0.12-0.107,0.21-0.224,0.245-0.36c0.034-0.136-0.054-0.317-0.092-0.469
			c-0.067-0.163-0.013-0.272,0.038-0.376c0.048-0.105,0.099-0.203,0.156-0.292c0.106-0.181,0.218-0.332,0.327-0.452
			c0.21-0.243,0.398-0.365,0.398-0.365l0.017-0.011c0.103-0.067,0.24-0.038,0.307,0.065c0.011,0.017,0.02,0.037,0.026,0.055
			c0,0,0.063,0.202,0.055,0.525c0,0.163-0.02,0.355-0.067,0.569c-0.019,0.108-0.049,0.22-0.087,0.336
			c-0.035,0.117-0.07,0.241-0.231,0.321c-0.132,0.091-0.317,0.163-0.384,0.288c-0.067,0.126-0.081,0.278-0.068,0.45
			c0.014,0.335,0.054,0.71-0.386,0.865c-0.479,0.134-0.492,0.497-0.434,0.917c0.066,0.423-0.098,0.742-0.466,0.939
			c-0.393,0.186-0.56,0.485-0.588,0.881c-0.02,0.4-0.097,0.774-0.378,0.986c-0.277,0.216-0.686,0.302-0.854,0.548
			c-0.209,0.215-0.273,0.524-0.322,0.817c-0.084,0.598-0.433,0.874-0.706,1.044c-0.274,0.17-0.53,0.187-0.53,0.187
			C46.493,18.976,46.37,18.873,46.347,18.737z"/>
	</g>
	<g>
		<defs>
			<path id="SVGID_1_" d="M80.037,65.352c-1.06-2.316-2.123-4.587-3.105-6.662c-2.222-4.695-4.032-8.38-4.462-9.267
				c-3.768-7.772-12.663-8.676-15.221-7c2.127,5.561,6.934,13.661,11.395,21.552c1.2,2.122,2.371,4.226,3.462,6.265
				c2.914,5.446,5.232,10.405,5.826,13.852c-3.376,5.306-3.376,5.306-12.151,13.456c-1.48,1.374-3.495,0.045-5.479-0.334
				c-3.273,0.284-7.279,3.421-11.017,6.096c0.12,0.512,0.704,0.72,1.23,0.735c1.104,0.03,1.838-0.903,2.819-1.41
				c0.981-0.507,2.195-0.815,3.169-0.293c-0.12,0.705-0.414,1.449-0.826,2.193c0.783,2.002,6.011,3.768,7.209,2.61
				c0.993-0.96,2.175-2.399,3.326-3.164c10.695-7.116,18.693-9.755,21.25-18.872C87.956,83.338,84.015,74.04,80.037,65.352z"/>
		</defs>
		<clipPath id="SVGID_2_">
			<use xlink:href="#SVGID_1_"  overflow="visible"/>
		</clipPath>
		<path clip-path="url(#SVGID_2_)" fill="#F5D2B9" d="M80.037,65.352c-1.06-2.316-2.123-4.587-3.105-6.662
			c-2.222-4.695-4.032-8.38-4.462-9.267c-3.768-7.772-12.663-8.676-15.221-7c2.127,5.561,6.934,13.661,11.395,21.552
			c1.2,2.122,2.371,4.226,3.462,6.265c2.914,5.446,5.232,10.405,5.826,13.852c-3.376,5.306-3.376,5.306-12.151,13.456
			c-1.48,1.374-3.495,0.045-5.479-0.334c-3.273,0.284-7.279,3.421-11.017,6.096c0.12,0.512,0.704,0.72,1.23,0.735
			c1.104,0.03,1.838-0.903,2.819-1.41c0.981-0.507,2.195-0.815,3.169-0.293c-0.12,0.705-0.414,1.449-0.826,2.193
			c0.783,2.002,6.011,3.768,7.209,2.61c0.993-0.96,2.175-2.399,3.326-3.164c10.695-7.116,18.693-9.755,21.25-18.872
			C87.956,83.338,84.015,74.04,80.037,65.352z"/>
		<g clip-path="url(#SVGID_2_)">
			
				<path fill="none" stroke="#86839C" stroke-width="0.367" stroke-linecap="round" stroke-linejoin="round" stroke-miterlimit="10" d="
				M71.285,64.474c0.481-1.305,1.006-2.346,2.109-2.925c1.103-0.579,2.479-0.607,3.605-0.074
				C76.052,63.601,73.537,65.067,71.285,64.474z"/>
			
				<path fill="#86839C" stroke="#86839C" stroke-width="0.367" stroke-linecap="round" stroke-linejoin="round" stroke-miterlimit="10" d="
				M74.653,63.679c0.248-0.107,0.459-0.297,0.589-0.534c0.616-1.123-0.936-2.391-1.907-1.598
				C72.266,62.42,73.393,64.222,74.653,63.679z"/>
			
				<path fill="none" stroke="#86839C" stroke-width="0.367" stroke-linecap="round" stroke-linejoin="round" stroke-miterlimit="10" d="
				M72.522,65.247c0,0.259,0,0.518,0,0.776"/>
			
				<path fill="none" stroke="#86839C" stroke-width="0.367" stroke-linecap="round" stroke-linejoin="round" stroke-miterlimit="10" d="
				M73.702,65.11c0.013,0.685,0.027,1.37,0.04,2.055"/>
			
				<path fill="none" stroke="#86839C" stroke-width="0.367" stroke-linecap="round" stroke-linejoin="round" stroke-miterlimit="10" d="
				M75.209,64.679c0.474,0.699,0.575,1.397,1.049,2.096"/>
			
				<path fill="none" stroke="#86839C" stroke-width="0.367" stroke-linecap="round" stroke-linejoin="round" stroke-miterlimit="10" d="
				M76.048,64.148c0.352,0.225,0.704,0.451,1.056,0.676"/>
			
				<path fill="none" stroke="#86839C" stroke-width="0.367" stroke-linecap="round" stroke-linejoin="round" stroke-miterlimit="10" d="
				M76.545,63.169c0.397,0.07,0.794,0.14,1.191,0.21"/>
		</g>
		
			<path clip-path="url(#SVGID_2_)" fill="none" stroke="#86839C" stroke-width="0.367" stroke-linecap="round" stroke-linejoin="round" stroke-miterlimit="10" d="
			M67.764,62.419c3.249-0.896,6.18-2.401,8.78-4.545"/>
		
			<path clip-path="url(#SVGID_2_)" fill="none" stroke="#86839C" stroke-width="0.367" stroke-linecap="round" stroke-linejoin="round" stroke-miterlimit="10" d="
			M71.626,69.078c3.171-0.207,6.223-1.824,8.175-4.331"/>
		
			<path clip-path="url(#SVGID_2_)" fill="none" stroke="#86839C" stroke-width="0.367" stroke-linecap="round" stroke-linejoin="round" stroke-miterlimit="10" d="
			M72.665,70.757c3.171-0.207,6.223-1.824,8.175-4.331"/>
		
			<path clip-path="url(#SVGID_2_)" fill="#86839C" stroke="#86839C" stroke-width="0.367" stroke-linecap="round" stroke-linejoin="round" stroke-miterlimit="10" d="
			M72.237,58.805c-0.03,0.601-0.06,1.201-0.089,1.802c0.506-0.337,1.015-0.582,1.521-0.919
			C73.122,59.398,72.783,59.094,72.237,58.805z"/>
		
			<path clip-path="url(#SVGID_2_)" fill="#86839C" stroke="#86839C" stroke-width="0.367" stroke-linecap="round" stroke-linejoin="round" stroke-miterlimit="10" d="
			M70.198,60.026c-0.108,0.592-0.215,1.183-0.323,1.775c0.545-0.268,1.082-0.445,1.627-0.713
			C70.998,60.73,70.702,60.384,70.198,60.026z"/>
		
			<path clip-path="url(#SVGID_2_)" fill="#86839C" stroke="#86839C" stroke-width="0.367" stroke-linecap="round" stroke-linejoin="round" stroke-miterlimit="10" d="
			M68.377,60.606c-0.204,0.566-0.408,1.131-0.612,1.697c0.582-0.174,1.141-0.259,1.723-0.434
			C69.05,61.433,68.815,61.043,68.377,60.606z"/>
		
			<path clip-path="url(#SVGID_2_)" fill="#86839C" stroke="#86839C" stroke-width="0.367" stroke-linecap="round" stroke-linejoin="round" stroke-miterlimit="10" d="
			M73.973,57.836c0.052,0.599,0.105,1.198,0.157,1.797c0.455-0.403,0.926-0.715,1.381-1.118
			C74.931,58.303,74.553,58.048,73.973,57.836z"/>
		
			<path clip-path="url(#SVGID_2_)" fill="#86839C" stroke="#86839C" stroke-width="0.367" stroke-linecap="round" stroke-linejoin="round" stroke-miterlimit="10" d="
			M75.489,56.564c0.052,0.599,0.105,1.198,0.157,1.797c0.455-0.403,0.926-0.715,1.381-1.118
			C76.447,57.031,76.07,56.776,75.489,56.564z"/>
		
			<path clip-path="url(#SVGID_2_)" fill="#86839C" stroke="#86839C" stroke-width="0.367" stroke-linecap="round" stroke-linejoin="round" stroke-miterlimit="10" d="
			M76.561,67.913c-0.03,0.601-0.06,1.201-0.089,1.802c0.506-0.337,1.015-0.582,1.521-0.919
			C77.447,68.507,77.108,68.203,76.561,67.913z"/>
		
			<path clip-path="url(#SVGID_2_)" fill="#86839C" stroke="#86839C" stroke-width="0.367" stroke-linecap="round" stroke-linejoin="round" stroke-miterlimit="10" d="
			M74.522,68.762c-0.108,0.592-0.215,1.183-0.323,1.775c0.545-0.268,1.082-0.445,1.628-0.713
			C75.323,69.465,75.026,69.119,74.522,68.762z"/>
		
			<path clip-path="url(#SVGID_2_)" fill="#86839C" stroke="#86839C" stroke-width="0.367" stroke-linecap="round" stroke-linejoin="round" stroke-miterlimit="10" d="
			M72.701,69.342c-0.204,0.566-0.408,1.131-0.612,1.697c0.582-0.174,1.141-0.259,1.723-0.434
			C73.374,70.168,73.139,69.778,72.701,69.342z"/>
		
			<path clip-path="url(#SVGID_2_)" fill="#86839C" stroke="#86839C" stroke-width="0.367" stroke-linecap="round" stroke-linejoin="round" stroke-miterlimit="10" d="
			M78.297,66.571c0.052,0.599,0.105,1.198,0.157,1.797c0.455-0.403,0.926-0.715,1.381-1.118
			C79.255,67.038,78.878,66.783,78.297,66.571z"/>
		
			<path clip-path="url(#SVGID_2_)" fill="#86839C" stroke="#86839C" stroke-width="0.367" stroke-linecap="round" stroke-linejoin="round" stroke-miterlimit="10" d="
			M79.814,65.3c0.052,0.599,0.105,1.198,0.157,1.797c0.455-0.403,0.926-0.715,1.381-1.118C80.772,65.767,80.394,65.512,79.814,65.3z
			"/>
	</g>
	<path fill="#A75B26" d="M60.178,18.049c1.239,2.032,1.653,4.552,1.13,6.874c-0.238,1.056-0.663,2.091-0.631,3.173
		c0.096,3.295,4.288,5.683,3.688,8.925c-0.23,1.244-1.14,2.23-1.891,3.249c-0.751,1.019-1.394,2.31-0.992,3.51
		c0.519,1.549,2.494,2.154,3.217,3.618c0.66,1.337,0.033,3.023-1.065,4.032c-1.098,1.009-2.564,1.497-3.982,1.958
		c2.175-0.451,2.721-3.195,1.767-5.2c-0.847-1.78-3.074-2.825-3.341-4.778c-0.347-2.539,2.837-4.259,3.225-6.792
		c0.381-2.492-2.022-4.523-2.59-6.979c-0.473-2.046,0.372-4.131,0.988-6.139C60.317,21.491,61.469,19.705,60.178,18.049z"/>
	<path fill="#8F441F" d="M51.733,6.728c2.758-0.491,5.717,1.558,6.226,4.313c0.245,1.325-0.014,2.684-0.056,4.031
		c-0.042,1.347,0.197,2.821,1.193,3.728c1.286,1.171,3.57,1.166,4.326,2.731c0.441,0.914,0.135,2.03-0.418,2.881
		c-0.553,0.851-1.329,1.533-1.945,2.34c-1.388,1.819-1.743,4.732-0.006,6.221c0.685,0.587,1.64,0.918,2.055,1.719
		c0.677,1.305-0.507,2.769-1.591,3.762c0.362-1.914-1.087-3.506-2.403-4.942c-1.316-1.436-2.735-3.172-2.403-5.092
		c0.279-1.617,1.756-2.841,1.99-4.465c0.231-1.604-0.811-3.108-1.951-4.259c-1.14-1.152-2.473-2.208-3.089-3.706
		c-0.656-1.596-0.379-3.399-0.479-5.121C53.083,9.148,53.391,7.206,51.733,6.728z"/>
	<path fill="#A75B26" d="M27.209,30.337c1.729,0.782,1.505,3.513,0.123,4.813c-1.382,1.3-3.365,1.664-5.145,2.322
		c-1.779,0.658-3.629,1.963-3.734,3.858c-0.081,1.457,0.917,2.917,0.461,4.304c-0.55,1.671-2.7,2.018-4.209,2.921
		c-1.691,1.012-2.717,3.039-2.53,5.001c0.187,1.962,1.578,3.759,3.43,4.433c-1.5-1.91-3.082-4.931-1.523-6.793
		c1.157-1.381,3.175-1.528,4.952-1.817c1.778-0.289,3.826-1.154,4.098-2.935c0.244-1.601-1.117-3.298-0.404-4.752
		c0.551-1.125,1.995-1.383,3.142-1.886c1.911-0.838,3.31-2.743,3.54-4.817C29.64,32.915,28.89,31.573,27.209,30.337z"/>
	<path fill="#C3AECE" d="M52.152,58.419c-4.824-1.282-9.74-0.12-14.003,2.278c-0.112,0.175-0.301,0.289-0.503,0.252
		c-0.265,0.058-0.475-0.134-0.548-0.382c-2.974-2.557-5.823-4.943-9.55-5.222c-1.155,4.642-1.529,10.337,0.451,16.4
		c0.056,0.793,0.136,1.648,0.213,2.539c2.723-0.272,5.391-0.943,8.127-1.143c2.62-0.192,5.225,0.149,7.768,0.779
		c2.866,0.71,5.56,1.87,8.36,2.775c1.569,0.507,3.026,1.046,4.356,1.859c2.381-4.078,4.407-8.567,5.784-13.454
		C59.813,62.063,55.887,59.411,52.152,58.419z"/>
	<g>
		<path fill="#673090" d="M53.506,41.764c0.229-0.781,1.438-0.649,1.426,0.165c-0.671,44.033,5.877,32.621,4.014,35.85
			c-3.134,5.43-2.407,7.461-2.307,10.242c0.138,3.842,1.404,7.321,3.061,10.79c3.508,7.346,9.241,38.336,8.705,38.212
			c-10.231-2.381-17.726-14.584-35.176-11.846c-10.171,1.596-19.73,13.065-19.79,12.462c-0.483-4.822-1.076-17.289,3.501-30.85
			c7.837-23.218,5.746-30.977,9.18-46.818c1.033-4.763,5.202-11.942,7.893-16.003c0.275-0.416,0.965-0.174,0.876,0.316
			c-4.111,22.631,2.381,28.956,2.625,28.549C43.276,63.216,51.766,47.711,53.506,41.764z"/>
		<g>
			<path fill="none" stroke="#D1C8C2" stroke-width="0.7341" stroke-linecap="round" stroke-miterlimit="10" d="M15.154,126.987
				c-1.4,6.354-1.648,12.946-0.729,19.382"/>
			<path fill="none" stroke="#D1C8C2" stroke-width="0.7341" stroke-linecap="round" stroke-miterlimit="10" d="M17.845,126.24
				c-1.509,6.546-1.456,13.447,0.154,19.969"/>
			<path fill="none" stroke="#D1C8C2" stroke-width="0.7341" stroke-linecap="round" stroke-miterlimit="10" d="M21.493,123.876
				c-1.224,6.828-1.155,13.886,0.201,20.689"/>
			<path fill="none" stroke="#D1C8C2" stroke-width="0.7341" stroke-linecap="round" stroke-miterlimit="10" d="M24.473,123.381
				c-0.996,6.024-0.55,12.281,1.291,18.103"/>
			<path fill="none" stroke="#D1C8C2" stroke-width="0.7341" stroke-linecap="round" stroke-miterlimit="10" d="M27.389,121.008
				c-0.496,6.275-0.202,12.612,0.873,18.814"/>
			<path fill="none" stroke="#D1C8C2" stroke-width="0.7341" stroke-linecap="round" stroke-miterlimit="10" d="M30.867,122.667
				c0.206,5.23,0.411,10.461,0.617,15.691"/>
			<path fill="none" stroke="#D1C8C2" stroke-width="0.7341" stroke-linecap="round" stroke-miterlimit="10" d="M34.803,121.709
				c0.285,4.914,0.571,9.828,0.856,14.742"/>
			<path fill="none" stroke="#D1C8C2" stroke-width="0.7341" stroke-linecap="round" stroke-miterlimit="10" d="M38.417,123.622
				c0.275,4.281,0.551,8.562,0.826,12.843"/>
			<path fill="none" stroke="#D1C8C2" stroke-width="0.7341" stroke-linecap="round" stroke-miterlimit="10" d="M41.365,122.19
				c0.237,4.516,0.474,9.032,0.711,13.549"/>
			<path fill="none" stroke="#D1C8C2" stroke-width="0.7341" stroke-linecap="round" stroke-miterlimit="10" d="M43.354,122.934
				c1.177,4.896,2.354,9.792,3.53,14.688"/>
			<path fill="none" stroke="#D1C8C2" stroke-width="0.7341" stroke-linecap="round" stroke-miterlimit="10" d="M47.928,123.154
				c0.906,5.065,1.813,10.129,2.719,15.194"/>
			<path fill="none" stroke="#D1C8C2" stroke-width="0.7341" stroke-linecap="round" stroke-miterlimit="10" d="M53.934,125.519
				c0.237,4.278,0.475,8.557,0.712,12.835"/>
			<path fill="none" stroke="#D1C8C2" stroke-width="0.7341" stroke-linecap="round" stroke-miterlimit="10" d="M57.478,127.189
				c0.969,4.048,0.895,8.341-0.213,12.354"/>
			<path fill="none" stroke="#D1C8C2" stroke-width="0.7341" stroke-linecap="round" stroke-miterlimit="10" d="M60.606,131.224
				c-0.316,3.537,0.141,7.141,1.331,10.486"/>
			<path fill="none" stroke="#D1C8C2" stroke-width="0.7341" stroke-linecap="round" stroke-miterlimit="10" d="M63.069,132.193
				c-0.721,3.772-0.259,7.761,1.304,11.269"/>
			<path fill="none" stroke="#D1C8C2" stroke-width="0.7341" stroke-linecap="round" stroke-miterlimit="10" d="M67.676,145.627
				c-1.799-3.604-2.454-7.769-1.849-11.752C65.407,137.588,65.942,142.317,67.676,145.627z"/>
		</g>
	</g>
	<path fill="#A75B26" d="M55.341,34.652c1.171,1.644,0.137,3.955-1.199,5.469c-1.336,1.514-3.05,2.925-3.369,4.919
		c-0.551,3.449,3.398,6.699,2.231,9.992c-0.436,1.232-1.516,2.117-2.614,2.825c-1.099,0.708-2.287,1.324-3.163,2.294
		c-0.876,0.97-1.378,2.428-0.808,3.604c0.37,0.763,1.106,1.266,1.726,1.845c0.62,0.578,1.178,1.383,1.004,2.214
		c-0.218,1.046-1.417,1.515-2.444,1.809c0.908,0.078,1.1-1.493,0.768-2.342c-0.332-0.849-1.116-1.421-1.69-2.129
		c-1.385-1.707-1.426-4.369-0.094-6.118c0.989-1.299,2.631-2.138,3.161-3.682c0.548-1.598-0.305-3.297-0.569-4.966
		c-0.451-2.856,0.86-5.692,2.424-8.124C52.27,39.83,54.441,37.4,55.341,34.652z"/>
	<g>
		<g>
			<path fill="#F8F2EF" d="M25.411,93.823c0.215-0.921,0.433-1.834,0.739-2.757c0.147-0.463,0.38-0.87,0.609-1.286
				c0.228-0.415,0.463-0.824,0.704-1.229c0.458-0.826,0.991-1.602,1.428-2.44c0.211-0.423,0.474-0.814,0.799-1.164
				c0.269-0.386,0.487-0.806,0.789-1.169c0.15-0.183,0.379-0.31,0.515-0.501c0.134-0.192,0.262-0.389,0.385-0.589
				c0.24-0.404,0.464-0.821,0.712-1.22c0.526-0.778,1.091-1.528,1.647-2.284c1.123-1.505,2.257-2.997,3.457-4.449l0.416-0.503
				l0.269,0.588c1.467,3.208,2.903,6.431,4.431,9.611l1.132,2.391c0.183,0.401,0.551,0.716,0.833,1.071
				c0.271,0.36,0.403,0.785,0.562,1.197c0.276,0.844,0.455,1.734,0.815,2.539c0.182,0.402,0.414,0.78,0.576,1.191
				c0.215,0.386,0.073,0.939,0.364,1.29l0.152,0.183l-0.281,0.031c-0.876,0.096-1.748,0.306-2.623,0.481
				c-0.437,0.086-0.876,0.156-1.315,0.202c-0.439,0.033-0.878,0.106-1.322-0.044c-0.443-0.144-0.886-0.299-1.325-0.266
				c-0.44-0.001-0.879,0.004-1.319,0.048c-0.879,0.062-1.758,0.17-2.639,0.16c-0.44,0.009-0.881-0.06-1.32-0.14
				c-0.439-0.084-0.879-0.138-1.318-0.175c-0.879-0.043-1.76,0.004-2.642-0.001c-0.22-0.005-0.442,0.009-0.661-0.012
				c-0.219-0.037-0.439-0.046-0.659-0.055L28,94.441c-0.439-0.053-0.888-0.03-1.321-0.136C26.247,94.18,25.818,94.03,25.411,93.823z
				 M25.411,93.823c0.462-0.081,0.898-0.078,1.338-0.101c0.44-0.02,0.864,0.104,1.3,0.125l1.306,0.104
				c0.218,0.018,0.437,0.024,0.657,0.009c0.219,0,0.436,0.033,0.655,0.048c0.873,0.065,1.748,0.164,2.625,0.147
				c0.439-0.026,0.878-0.064,1.317-0.139c0.439-0.077,0.877-0.143,1.315-0.13c0.876-0.011,1.752,0.092,2.63,0.13
				c0.439,0.031,0.877,0.029,1.316,0.012c0.439,0.016,0.875-0.155,1.309-0.316c0.434-0.17,0.873-0.12,1.312-0.108
				c0.439,0.023,0.878,0.066,1.319,0.127c0.88,0.119,1.764,0.271,2.643,0.292l-0.129,0.213c-0.082-0.448-0.596-0.695-0.754-1.108
				c-0.211-0.388-0.351-0.809-0.542-1.207c-0.385-0.793-0.952-1.502-1.422-2.256c-0.214-0.387-0.454-0.761-0.556-1.2
				c-0.091-0.444-0.095-0.929-0.285-1.327l-1.104-2.404c-1.454-3.214-3-6.386-4.516-9.571l0.684,0.085
				c-1.15,1.461-2.29,2.945-3.397,4.446c-0.561,0.746-1.087,1.517-1.651,2.26l-0.896,1.081c-0.144,0.184-0.286,0.369-0.411,0.567
				c-0.126,0.197-0.158,0.457-0.27,0.662c-0.221,0.413-0.532,0.766-0.765,1.169c-0.182,0.437-0.432,0.829-0.724,1.195
				c-0.542,0.757-1.007,1.565-1.465,2.372c-0.232,0.402-0.461,0.806-0.66,1.224c-0.199,0.416-0.439,0.819-0.682,1.207l-0.784,1.163
				L25.411,93.823z"/>
		</g>
		<g>
			<path fill="#F8F2EF" d="M27.65,102.85c0.124-0.682,0.242-1.359,0.433-2.053c0.094-0.347,0.262-0.643,0.432-0.945l0.517-0.894
				c0.332-0.603,0.729-1.162,1.032-1.782c0.142-0.315,0.335-0.599,0.591-0.841c0.2-0.278,0.345-0.592,0.576-0.849
				c0.114-0.129,0.307-0.204,0.408-0.342c0.099-0.139,0.19-0.283,0.277-0.431c0.167-0.299,0.317-0.611,0.492-0.905
				c0.377-0.57,0.792-1.112,1.196-1.662c0.818-1.094,1.64-2.179,2.519-3.232l0.418-0.501l0.266,0.587
				c1.059,2.334,2.087,4.681,3.207,6.986l0.826,1.735c0.132,0.292,0.449,0.497,0.68,0.743c0.22,0.251,0.301,0.566,0.41,0.869
				c0.176,0.625,0.25,1.297,0.509,1.883c0.131,0.293,0.312,0.561,0.423,0.863c0.164,0.277-0.029,0.72,0.211,0.962l0.172,0.173
				l-0.301,0.041c-0.636,0.086-1.267,0.288-1.902,0.455c-0.317,0.083-0.635,0.149-0.955,0.192c-0.319,0.03-0.638,0.1-0.961-0.053
				c-0.323-0.146-0.646-0.303-0.965-0.273c-0.32-0.003-0.639,0.001-0.958,0.043c-0.638,0.058-1.278,0.166-1.918,0.156
				c-0.32,0.01-0.64-0.059-0.959-0.139c-0.319-0.083-0.638-0.135-0.957-0.17c-0.638-0.039-1.279,0.015-1.921,0.019
				c-0.16-0.002-0.322,0.014-0.481-0.004c-0.159-0.034-0.319-0.041-0.479-0.046l-0.963-0.054c-0.319-0.042-0.649-0.006-0.963-0.101
				C28.249,103.169,27.938,103.039,27.65,102.85z M27.65,102.85c0.343-0.099,0.661-0.116,0.982-0.153
				c0.321-0.032,0.625,0.078,0.942,0.089l0.947,0.079c0.158,0.014,0.317,0.018,0.477,0c0.159-0.003,0.316,0.028,0.475,0.04
				c0.633,0.055,1.267,0.147,1.905,0.127c0.319-0.027,0.637-0.067,0.956-0.144c0.319-0.077,0.636-0.144,0.954-0.131
				c0.635-0.011,1.272,0.092,1.909,0.134c0.319,0.033,0.637,0.031,0.955,0.017c0.319,0.018,0.634-0.151,0.949-0.309
				c0.314-0.167,0.633-0.114,0.952-0.099c0.319,0.026,0.638,0.072,0.958,0.137c0.64,0.127,1.284,0.287,1.922,0.318l-0.129,0.213
				c-0.031-0.339-0.494-0.476-0.601-0.78c-0.16-0.279-0.249-0.591-0.39-0.879c-0.282-0.575-0.75-1.064-1.116-1.6
				c-0.162-0.278-0.352-0.543-0.403-0.872c-0.04-0.335,0.007-0.71-0.132-0.999l-0.798-1.748c-1.047-2.339-2.184-4.636-3.292-6.946
				l0.684,0.085c-0.829,1.063-1.657,2.139-2.459,3.229c-0.408,0.541-0.785,1.103-1.2,1.638c-0.216,0.261-0.453,0.508-0.676,0.766
				c-0.108,0.131-0.213,0.265-0.302,0.409c-0.09,0.144-0.086,0.351-0.162,0.503c-0.15,0.307-0.388,0.554-0.552,0.85
				c-0.113,0.329-0.292,0.614-0.516,0.872c-0.408,0.539-0.736,1.13-1.069,1.713c-0.167,0.292-0.333,0.584-0.474,0.888
				c-0.14,0.303-0.316,0.594-0.505,0.866l-0.621,0.816L27.65,102.85z"/>
		</g>
		<g>
			<path fill="#F8F2EF" d="M30.161,105.512c0.309,0.277,0.625,0.567,0.957,0.818c0.308,0.266,0.42,0.637,0.651,0.953
				c0.224,0.322,0.412,0.669,0.686,0.958c0.149,0.135,0.257,0.3,0.3,0.509c0.094,0.174,0.257,0.3,0.328,0.49
				c0.038,0.093-0.003,0.242,0.048,0.326c0.052,0.084,0.115,0.16,0.182,0.233c0.141,0.142,0.3,0.271,0.435,0.416
				c0.249,0.306,0.458,0.641,0.69,0.959l1.363,1.929l-0.67,0.019c0.848-1.262,1.724-2.506,2.516-3.805l0.606-0.966
				c0.104-0.159,0.039-0.427,0.056-0.643c0.025-0.21,0.178-0.337,0.306-0.481c0.295-0.262,0.683-0.463,0.9-0.776
				c0.108-0.157,0.168-0.344,0.294-0.489c0.075-0.178,0.487-0.138,0.491-0.362l0.133,0.231c-0.427,0.077-0.849,0.272-1.274,0.433
				c-0.213,0.08-0.426,0.142-0.64,0.184c-0.214,0.033-0.429,0.09-0.647-0.061c-0.218-0.142-0.436-0.311-0.65-0.279
				c-0.215-0.007-0.429,0.001-0.644,0.035c-0.429,0.063-0.859,0.165-1.29,0.156c-0.215,0.01-0.431-0.058-0.645-0.137
				c-0.214-0.086-0.429-0.13-0.643-0.166c-0.429-0.036-0.86,0.023-1.293,0.041c-0.108-0.001-0.217,0.014-0.324,0
				c-0.107-0.031-0.214-0.037-0.322-0.039l-0.649-0.032c-0.214-0.034-0.44,0.015-0.65-0.069
				C30.553,105.798,30.346,105.686,30.161,105.512z M30.161,105.512c0.239-0.113,0.454-0.15,0.671-0.198
				c0.217-0.042,0.417,0.056,0.629,0.058l0.633,0.057c0.106,0.011,0.212,0.013,0.32-0.008c0.107-0.005,0.212,0.02,0.318,0.029
				c0.423,0.052,0.849,0.136,1.276,0.113c0.214-0.03,0.428-0.066,0.642-0.148c0.214-0.077,0.427-0.144,0.64-0.133
				c0.426-0.009,0.853,0.09,1.281,0.141c0.214,0.028,0.427,0.032,0.641,0.017c0.214,0.024,0.425-0.153,0.635-0.303
				c0.21-0.161,0.424-0.115,0.637-0.092c0.214,0.031,0.428,0.079,0.644,0.147c0.431,0.133,0.865,0.3,1.294,0.34l0.52,0.049
				l-0.388,0.183c-0.202,0.095,0.002,0.454-0.129,0.596c-0.081,0.174-0.226,0.306-0.325,0.469c-0.196,0.326-0.22,0.763-0.338,1.139
				c-0.078,0.176-0.131,0.368-0.313,0.477c-0.19,0.104-0.461,0.154-0.563,0.315l-0.632,0.949c-0.859,1.255-1.634,2.564-2.437,3.856
				l-0.305,0.491l-0.365-0.472c-0.485-0.626-0.942-1.27-1.406-1.911c-0.226-0.324-0.471-0.635-0.679-0.973
				c-0.092-0.177-0.163-0.368-0.248-0.551c-0.046-0.089-0.094-0.175-0.155-0.253c-0.061-0.078-0.215-0.091-0.289-0.16
				c-0.154-0.134-0.216-0.332-0.347-0.482c-0.182-0.115-0.3-0.274-0.369-0.467c-0.167-0.366-0.42-0.674-0.637-1.006l-0.343-0.501
				c-0.124-0.163-0.227-0.339-0.285-0.538C30.285,106.335,30.249,105.916,30.161,105.512z"/>
		</g>
		<g>
			<path fill="#F8F2EF" d="M23.174,91.672c0,0,0.214-0.391,0.588-1.077c0.094-0.169,0.25-0.313,0.436-0.458
				c0.176-0.153,0.365-0.318,0.568-0.495c0.191-0.191,0.423-0.357,0.639-0.564c0.105-0.107,0.208-0.225,0.344-0.305
				c0.163-0.046,0.28-0.156,0.404-0.264c0.118-0.115,0.265-0.198,0.464-0.212c0.166-0.059,0.286-0.187,0.416-0.309
				c0.245-0.263,0.538-0.483,0.863-0.667c0.631-0.401,1.304-0.811,2.025-1.19c0.714-0.391,1.476-0.746,2.245-1.115
				c0.778-0.348,1.567-0.701,2.357-1.054c0.394-0.179,0.793-0.345,1.192-0.507c0.437-0.064,0.644-0.711,1.104-0.708
				c0.419-0.099,0.877-0.081,1.278-0.198c0.202-0.055,0.382-0.165,0.578-0.227c0.099-0.028,0.194-0.066,0.311-0.043
				c0.116,0.02,0.234,0.049,0.325,0.006c0.742-0.321,1.278-1.173,2.1-1.063c0.218,0.066,0.407,0.056,0.573-0.017
				c0.173-0.05,0.336-0.122,0.494-0.199c0.318-0.147,0.618-0.317,0.928-0.408c0.304-0.112,0.654-0.037,0.944-0.096
				c0.297-0.037,0.552-0.16,0.796-0.257c0.48-0.222,0.934-0.306,1.286-0.442c0.179-0.06,0.338-0.114,0.474-0.169
				c0.141-0.04,0.279-0.016,0.383-0.021c0.216,0.013,0.339,0.048,0.339,0.048s-0.082,0.099-0.252,0.233
				c-0.089,0.055-0.188,0.153-0.327,0.201c-0.143,0.032-0.305,0.079-0.486,0.131c-0.367,0.089-0.787,0.278-1.306,0.376
				c-0.255,0.062-0.533,0.109-0.797,0.251c-0.271,0.119-0.511,0.382-0.82,0.473c-0.303,0.111-0.643,0.15-0.986,0.22
				c-0.173,0.031-0.347,0.069-0.515,0.132c-0.175,0.043-0.331,0.15-0.463,0.336c-0.58,0.585-1.522,0.234-2.299,0.464
				c-0.098,0.024-0.171,0.121-0.247,0.21c-0.075,0.092-0.172,0.122-0.266,0.163c-0.191,0.073-0.398,0.108-0.584,0.2
				c-0.377,0.176-0.706,0.49-1.08,0.69c-0.334,0.302-0.915-0.015-1.275,0.237c-0.399,0.154-0.798,0.311-1.192,0.481
				c-0.798,0.317-1.572,0.686-2.328,1.059c-0.753,0.378-1.49,0.761-2.18,1.166c-0.7,0.391-1.363,0.788-1.977,1.188
				c-0.578,0.446-1.326,0.595-1.687,1.184c-0.425,0.487-1.006,0.704-1.346,1.093c-0.388,0.341-0.674,0.668-0.988,0.896
				C23.556,91.442,23.174,91.672,23.174,91.672z"/>
		</g>
		<path fill="#F8F2EF" d="M44.129,79.135c1.967-0.297,3.889-0.428,5.087-0.269c-0.579,1.276-2.553,3.429-3.132,4.705
			C45.926,80.792,45.09,80.212,44.129,79.135z"/>
		<g>
			<g>
				<path fill="#F8F2EF" d="M50.822,93.179c0,0-0.426-0.244-1.17-0.671c-0.357-0.229-0.666-0.636-1.097-1.025
					c-0.403-0.415-1.034-0.66-1.518-1.172c-0.409-0.621-1.171-0.875-1.828-1.348c-0.682-0.442-1.402-0.908-2.146-1.389
					c-0.726-0.512-1.547-0.928-2.349-1.404c-0.815-0.454-1.616-0.965-2.484-1.351L36.95,84.2c-0.38-0.301-1.025-0.043-1.37-0.398
					c-0.39-0.264-0.741-0.606-1.148-0.817c-0.202-0.109-0.426-0.164-0.631-0.26c-0.101-0.051-0.205-0.092-0.284-0.193
					c-0.08-0.098-0.155-0.204-0.261-0.239c-0.844-0.299-1.854-0.095-2.483-0.703c-0.141-0.195-0.311-0.314-0.501-0.369
					c-0.183-0.076-0.371-0.128-0.559-0.173c-0.373-0.097-0.742-0.164-1.071-0.299c-0.335-0.115-0.594-0.402-0.888-0.547
					c-0.29-0.154-0.597-0.205-0.878-0.275c-0.571-0.111-1.035-0.314-1.438-0.414c-0.199-0.058-0.376-0.11-0.533-0.146
					c-0.152-0.052-0.266-0.155-0.365-0.213c-0.191-0.141-0.286-0.244-0.286-0.244s0.132-0.032,0.366-0.039
					c0.114,0.008,0.263-0.012,0.419,0.033c0.151,0.061,0.328,0.119,0.526,0.186c0.391,0.148,0.892,0.248,1.427,0.483
					c0.271,0.106,0.555,0.232,0.882,0.282c0.315,0.085,0.695,0.039,1.027,0.176c0.339,0.116,0.665,0.312,1.011,0.487
					c0.172,0.091,0.349,0.177,0.538,0.241c0.181,0.085,0.388,0.109,0.63,0.058c0.243-0.056,0.445,0.003,0.628,0.113
					c0.187,0.101,0.364,0.231,0.541,0.367c0.35,0.281,0.693,0.599,1.087,0.811c0.098,0.054,0.228,0.037,0.354,0.029
					c0.128-0.011,0.23,0.038,0.337,0.077c0.211,0.085,0.404,0.213,0.623,0.286c0.435,0.154,0.939,0.174,1.382,0.341
					c0.494,0.06,0.695,0.736,1.165,0.854l1.276,0.644c0.859,0.416,1.678,0.908,2.509,1.347c0.816,0.467,1.66,0.854,2.407,1.352
					c0.757,0.481,1.488,0.946,2.182,1.386c0.172,0.113,0.347,0.215,0.51,0.332c0.158,0.126,0.293,0.278,0.433,0.416
					c0.14,0.138,0.27,0.282,0.448,0.358c0.214,0.031,0.368,0.136,0.504,0.255c0.139,0.116,0.271,0.233,0.452,0.289
					c0.152,0.089,0.269,0.214,0.388,0.327c0.233,0.232,0.521,0.383,0.717,0.597c0.408,0.411,0.831,0.701,1.076,1.046
					C50.559,92.767,50.822,93.179,50.822,93.179z"/>
			</g>
			<path fill="#F8F2EF" d="M27.99,78.158c-1.725-0.168-2.651-0.174-3.676,0.063c0.598,1.238,1.348,2.515,1.946,3.753
				C26.187,79.186,27.239,79.298,27.99,78.158z"/>
		</g>
		<g>
			<path fill="none" stroke="#F8F2EF" stroke-width="0.367" stroke-miterlimit="10" d="M47.84,90.417
				c1.345-0.155,2.69-0.31,4.035-0.464"/>
			<path fill="none" stroke="#F8F2EF" stroke-width="0.367" stroke-miterlimit="10" d="M52.584,91.558
				c-1.038,0.119-2.076,0.238-3.114,0.357c-0.07,1.245-0.34,2.491-0.41,3.735"/>
			<path fill="none" stroke="#F8F2EF" stroke-width="0.367" stroke-miterlimit="10" d="M47.968,90.387
				c-0.062,1.322-0.124,2.644-0.187,3.967"/>
		</g>
		<g>
			<path fill="none" stroke="#F8F2EF" stroke-width="0.367" stroke-miterlimit="10" d="M25.853,89.336
				c-0.078,1.352-0.156,2.703-0.234,4.055"/>
			<path fill="none" stroke="#F8F2EF" stroke-width="0.367" stroke-miterlimit="10" d="M23.915,93.813
				c0.061-1.043,0.121-2.086,0.182-3.129c-1.215-0.282-1.276-0.762-2.49-1.044"/>
			<path fill="none" stroke="#F8F2EF" stroke-width="0.367" stroke-miterlimit="10" d="M25.861,89.467
				c-1.292-0.288-1.464-0.576-2.756-0.864"/>
		</g>
		<path fill="#F8F2EF" d="M28.75,96.059c0.458,0.35,0.355,1.194-0.175,1.423c-0.529,0.228-1.215-0.276-1.154-0.85
			s0.836-0.923,1.306-0.59"/>
		<path fill="#F8F2EF" d="M41.903,96.229c0.501-0.338,1.297-0.034,1.446,0.552c0.148,0.586-0.408,1.232-1.009,1.173
			c-0.601-0.059-1.022-0.801-0.763-1.346"/>
		<path fill="#F8F2EF" d="M30.361,90.923c0.448-0.153,0.979,0.296,0.902,0.764c-0.077,0.467-0.725,0.722-1.1,0.432
			c-0.375-0.289-0.292-0.98,0.14-1.173"/>
		<path fill="#F8F2EF" d="M39.764,91.074c0.235-0.427,0.942-0.466,1.222-0.067c0.28,0.399,0.003,1.051-0.478,1.127
			c-0.481,0.076-0.945-0.46-0.801-0.926"/>
		<path fill="#F8F2EF" d="M32.692,88.478c0.238-0.39,0.905-0.39,1.144-0.001c0.238,0.39-0.066,0.984-0.521,1.018
			c-0.455,0.034-0.845-0.507-0.668-0.928"/>
		<path fill="#F8F2EF" d="M38.412,87.887c-0.356,0.228-0.206,0.886,0.209,0.969c0.415,0.083,0.808-0.406,0.671-0.806
			c-0.137-0.4-0.696-0.564-1.05-0.333"/>
		<path fill="#F8F2EF" d="M36.779,86.399c-0.301,0.014-0.556,0.332-0.487,0.626c0.069,0.294,0.458,0.464,0.713,0.302
			c0.254-0.162,0.253-0.605-0.01-0.753c-0.263-0.148-0.651,0.103-0.611,0.402"/>
	</g>
	<path fill="#F5D2B9" d="M62.966,98.405c-1.038-1.334-3.017-1.398-4.69-1.159s-3.476,0.64-4.979-0.134
		c0.408,2.027,2.284,3.306,4.338,3.074c0.78-0.088,1.169-0.111,1.938,0.045c0.769,0.155,1.593,0.295,2.317-0.007
		C62.615,99.921,63.448,99.024,62.966,98.405z"/>
	<path fill="#F5D2B9" d="M63.863,99.089c-1.497-0.295-3.007-0.592-4.534-0.569c-1.526,0.023-2.718,1.509-3.929,2.423
		c-1.212,0.913-5.169,4.339-2.473,5.414c1.64,1.043,3.625,1.163,5.265,2.206c1.268,0.806,2.5-0.66,3.705-1.556
		c1.175-0.874,2.374-1.026,3.19-2.232C65.903,103.569,64.465,100.412,63.863,99.089z"/>
	<path fill="#F5D2B9" d="M53.868,102.683c-2.502,1.303-3.991,4.312-3.509,7.092c1.822,0.342,3.504,0.212,5.359,0.209
		c1.854-0.004,3.75-0.376,5.316-1.37c1.117-0.708,2.104-1.922,1.897-3.229c-0.17-1.072-1.121-1.887-2.154-2.22
		c-1.033-0.334-2.146-0.278-3.229-0.218"/>
	<path fill="#F5D2B9" d="M56.455,112.092c-0.131-0.309,0.208-0.668,0.481-0.865c1.53-1.103,2.666-2.74,3.164-4.559
		c0.363-1.328,2.394-1.222,3.443-0.331C62.377,109.61,59.895,111.611,56.455,112.092z"/>
	<path fill="#744136" d="M6.951,249.723c2.02,0.034,3.895,0.694,5.658,1.68c0.819,0.458,1.678,1.572,1.579,2.505
		c1.318-0.177,2.246-0.548,3.342-1.3c0.472-1.253-0.411-2.77-1.464-3.597c-1.053-0.827-3.353-1.294-4.692-1.31
		C9.893,248.163,8.787,248.601,6.951,249.723z"/>
	<path fill="#CE4C9B" d="M19.876,251.02c-0.304,0.298-0.778,0.708-1.169,0.876c-0.047-1.441-1.002-2.735-2.207-3.528
		c-1.204-0.792-2.636-1.157-4.05-1.435c0.195-0.282,0.414-0.563,0.634-0.821c1.58-0.2,3.009,0.318,4.303,1.247
		C18.681,248.288,19.561,249.458,19.876,251.02z"/>
	<path fill="#744136" d="M21.083,250.112c-0.144-1.581-0.932-3.095-2.145-4.12c-1.213-1.025-2.836-1.176-4.42-1.054
		c0-0.366,0.325-0.668,0.533-0.892c0.669-0.717,3.573,0.144,4.83,1.4c1.256,1.255,1.889,2.307,1.929,4.082
		C21.644,250.112,21.358,250.184,21.083,250.112z"/>
	<path fill="#744136" d="M23.256,238.741c1.98,2.174,1.618,6.967,1.616,9.907c0.624-0.133,1.376-0.277,2-0.41
		c0.253-3.369-0.64-6.813-2.324-9.742c0.474-0.119,1.002-0.101,1.037-0.26c0.07-0.392,0.145-1.107,0.215-1.499
		c-2.502-0.346-4.918-0.065-7.443-0.153c-0.14,0.623-0.218,1.222-0.357,1.844C19.453,238.651,22.457,238.729,23.256,238.741z"/>
	<path fill="#744136" d="M66.42,259.038c2.428-2.339,9.117-1.429,11.274-0.855c0.114-0.545-0.17-3.288-0.772-3.998
		c-1.79-0.591-3.568-0.608-5.443-0.404c-0.937,0.102-1.883,0.206-2.775,0.511c-0.892,0.306-1.865,0.683-1.877,1.625
		C66.827,255.917,66.165,257.656,66.42,259.038z"/>
	<path fill="#CE4C9B" d="M66.974,253.909c3.115-1.664,6.644-2.024,10.004-0.935c0.155-0.665-0.247-1.391-0.549-1.92
		c-1.587-0.546-6.429-0.996-8.624,0.905C67.382,252.325,66.861,253.368,66.974,253.909z"/>
	<path fill="#744136" d="M67.519,250.836c3.115-1.664,5.591-1.603,8.951-0.514c0.226-0.564-0.484-1.278-0.787-1.805
		c-1.587-0.546-5.314-1.167-7.508,0.733C67.752,249.617,67.344,250.304,67.519,250.836z"/>
	<path fill="#744136" d="M67.519,240.206c2.273-0.846,4.097-1.392,6.776-0.618c0.082,0.566,0.154,1.179,0.236,1.746
		c-2.573-0.537-4.815-0.456-7.087,0.867C67.57,241.352,67.394,241.055,67.519,240.206z"/>
	<path fill="#A75B26" d="M68.265,103.36c-0.594-2.53-1.435-3.926-2.871-5.801l3.716-3.372c0,0,3.203,1.838,4.265,6.283
		L68.265,103.36z"/>
	<g>
		<g>
			<path fill="#FFE7B5" d="M50.039,38.31c0.193-1.809,0.168-3.649-0.069-5.468c-0.613,0.486-1.221,0.97-1.904,1.491
				c-0.72-0.807-1.44-1.614-2.16-2.421c-0.325,0.918-0.516,1.897-0.586,2.855c-0.055,0.743-0.051,1.486-0.024,2.23
				c0.79,0.846,1.579,1.693,2.369,2.539C48.414,39.169,49.235,38.731,50.039,38.31z"/>
			<path fill="#D1C8C2" d="M49.969,32.843c-0.208-1.596-0.573-3.174-1.086-4.695c-1.456,0.786-2.418,2.183-2.978,3.764
				c0.72,0.807,1.44,1.614,2.16,2.421C48.749,33.813,49.356,33.329,49.969,32.843z"/>
			<path fill="#F8F2EF" d="M47.664,39.536c-0.79-0.846-1.579-1.693-2.369-2.539c0.069,1.868,0.305,3.738,0.256,5.609
				c-0.006,0.244-0.021,0.489-0.04,0.735c0.351,0.691,0.702,1.381,1.054,2.072c0.572-0.319,1.169-0.562,1.767-0.805
				c0.917-1.985,1.474-4.116,1.706-6.297C49.235,38.731,48.414,39.169,47.664,39.536z"/>
			<path fill="#C3AECE" d="M45.511,43.34c-0.185,2.393-0.995,4.835-2.9,6.248c2.036,0.289,3.638-1.337,4.714-3.089
				c0.376-0.612,0.708-1.246,1.007-1.892c-0.598,0.243-1.195,0.486-1.767,0.805C46.214,44.721,45.862,44.031,45.511,43.34z"/>
		</g>
		<path fill="none" stroke="#A75B26" stroke-width="0.7341" stroke-linecap="round" stroke-miterlimit="10" d="M48.742,25.148
			c0.029,0.854-0.202,2.135-0.163,3.282"/>
		<circle fill="#CE4C9B" cx="48.579" cy="28.43" r="0.88"/>
	</g>
	<path fill="none" stroke="#A75B26" stroke-width="0.367" stroke-miterlimit="10" d="M37.053,42.695
		c-1.544,7.12-1.157,14.649,1.109,21.573c6.28-7.026,11.188-15.382,14.659-24.143"/>
	<path fill="#CE4C9B" d="M36.613,66.928c0.053-0.809,1.66-2.857,1.66-2.857s1.323,2.242,1.269,3.051
		c-0.053,0.809-0.752,1.421-1.561,1.368C37.172,68.436,36.559,67.737,36.613,66.928z"/>
	<path fill="none" stroke="#191918" stroke-width="2.9363" stroke-miterlimit="10" d="M56.725,41.088
		c-0.493,10.065,0.528,26.127,6.012,33.525"/>
	<path fill="#191918" d="M25.078,65.48c-0.981-9.521,2.573-15.563,7.937-21.896l4.143-0.684
		C28.404,51.808,25.078,65.48,25.078,65.48z"/>
</g>
</svg>
