<?xml version="1.0" encoding="utf-8"?>
<!-- Generator: Adobe Illustrator 17.0.0, SVG Export Plug-In . SVG Version: 6.00 Build 0)  -->
<!DOCTYPE svg PUBLIC "-//W3C//DTD SVG 1.1//EN" "http://www.w3.org/Graphics/SVG/1.1/DTD/svg11.dtd">
<svg version="1.1" id="Layer_1" xmlns="http://www.w3.org/2000/svg" xmlns:xlink="http://www.w3.org/1999/xlink" x="0px" y="0px"
	 width="221.032px" height="111px" viewBox="0 0 221.032 111" enable-background="new 0 0 221.032 111" xml:space="preserve">
<linearGradient id="SVGID_1_" gradientUnits="userSpaceOnUse" x1="110.5321" y1="111" x2="110.5321" y2="-2.485649e-009">
	<stop  offset="0" style="stop-color:#119266"/>
	<stop  offset="1" style="stop-color:#37AC53"/>
</linearGradient>
<path fill="url(#SVGID_1_)" d="M221.032,54.363c0,30.217-24.836,56.637-55.136,56.637H54.621c-30.3,0-54.589-26.42-54.589-56.637
	v-0.275C0.032,23.871,24.321,0,54.621,0h111.276c30.3,0,55.136,23.871,55.136,54.088V54.363z"/>
<g>
	<rect x="0" y="37.485" fill="none" width="220.943" height="60.513"/>
	<path fill="#FFFFFF" d="M129.359,36.334h0.31c1.282,0.928,3.075,2.782,5.377,5.565l0.206,0.739v0.223
		c-1.695,1.523-3.591,2.715-5.687,3.573c-1.66,1.077-5.731,2.309-12.214,3.693c-2.863,0.344-4.901,0.516-6.115,0.516h-1.581
		c-3.252-0.206-6.688-0.732-10.307-1.58l-6.425-2.629c-6.803-3.996-10.983-5.995-12.541-5.995c-0.916-0.218-1.62-0.326-2.112-0.326
		c-2.669,0.412-4.003,1.746-4.003,4.002c0.103,1.581,0.596,3.059,1.478,4.433c4.489,4.477,6.739,6.968,6.751,7.472
		c0.904,1.741,1.357,3.493,1.357,5.257c0,3.459-1.861,6.407-5.583,8.847c-1.627,0.848-3.099,1.271-4.415,1.271H71.64
		c-0.791,0-2.057-0.458-3.797-1.374c-1.936-1.168-3.264-2.817-3.985-4.947c-0.286-0.997-0.43-1.805-0.43-2.423
		c0-2.336,1.122-4.793,3.367-7.369c0.138,0,0.418-0.212,0.842-0.636h0.326c0.47,0,2.118,0.772,4.947,2.319
		c0.206,0.263,0.31,0.51,0.31,0.738c0,0.092-0.699,0.406-2.096,0.944c-1.695,1.501-2.543,2.903-2.543,4.209
		c0,1.638,0.773,2.766,2.319,3.385c0.572,0.344,1.065,0.515,1.478,0.515h0.738c1.638,0,2.973-0.595,4.003-1.786
		c0.894-0.974,1.488-2.165,1.786-3.573l0.104-0.532v-0.206c0-2.268-1.368-4.833-4.105-7.696c-2.451-3.081-3.677-5.783-3.677-8.108
		V43.91c0.458-2.53,0.945-3.796,1.461-3.796c1.614-1.959,3.55-2.938,5.806-2.938h0.31c2.13,0,5.921,1.226,11.372,3.676l5.274,2.319
		c2.29,0.848,4.958,1.443,8.005,1.786h3.779c2.543,0,5.881-0.526,10.016-1.58l5.256-2.199c2.635-1.396,4.283-2.45,4.948-3.16
		C127.636,38.018,128.271,37.457,129.359,36.334z M65.849,66.019v0.104c0.023,0.148,0.092,0.223,0.206,0.223v-0.326H65.849z
		 M67.001,63.923v0.944c0,0.104,0.108,0.207,0.326,0.31h0.31c-0.275-0.446-0.412-0.864-0.412-1.254H67.001z M68.066,59.49v0.224
		c0.171-0.068,0.452-0.424,0.842-1.065h-0.207C68.587,58.648,68.375,58.93,68.066,59.49z M69.32,58.134v0.103
		c0.354-0.183,0.532-0.326,0.532-0.429v-0.104C69.532,57.842,69.354,57.984,69.32,58.134z M69.956,68.768
		c0.561,0.698,1.265,1.048,2.112,1.048h0.206v-0.104C70.958,69.082,70.184,68.768,69.956,68.768z M70.162,67.29v0.103
		c0,0.115,0.143,0.258,0.429,0.43h0.31v-0.12C70.9,67.588,70.654,67.45,70.162,67.29z M72.584,44.443
		c0,0.229,0.144,0.893,0.43,1.992h0.206v-0.309c0-0.069-0.068-0.35-0.206-0.842v-1.169c0-1.362,0.698-2.834,2.096-4.414h-0.104
		C73.391,40.824,72.584,42.404,72.584,44.443z M72.687,69.918c0.114,0.286,0.223,0.43,0.326,0.43h1.048
		C74.061,70.13,73.603,69.987,72.687,69.918z M73.22,46.641v0.104c0.068,0.126,0.103,0.27,0.103,0.43h0.104v-0.43L73.22,46.641z
		 M73.546,47.38v0.326l0.206,0.104v-0.104c-0.068-0.138-0.103-0.246-0.103-0.326H73.546z M75.435,68.132v0.206
		c0.768-0.206,1.151-0.418,1.151-0.636h-0.206C75.876,67.988,75.561,68.132,75.435,68.132z M75.968,39.272h0.104
		c0.138,0,0.206-0.069,0.206-0.206h-0.103C76.037,39.088,75.968,39.158,75.968,39.272z M76.483,51.382v0.104
		c0.492,0.71,0.739,1.134,0.739,1.271h0.206l0.223-0.104C77.033,51.806,76.643,51.382,76.483,51.382z M77.223,66.654l0.206,0.103
		c0.091,0,0.337-0.28,0.738-0.842v-0.103C77.835,65.973,77.519,66.254,77.223,66.654z M79.112,66.86h0.12
		c0.263-0.092,0.681-0.688,1.254-1.786v-0.31C80.372,64.776,79.913,65.475,79.112,66.86z M79.232,54.131v0.104l0.618,1.254h0.532
		v-0.104C80.142,54.984,79.759,54.566,79.232,54.131z M80.383,60.332v0.327c0,0.137-0.068,0.486-0.206,1.048l0.206,0.103h0.104
		l0.206-0.738l-0.104-0.739H80.383z M82.066,60.436c0,0.046-0.034,0.504-0.103,1.374v0.206h0.103c0-0.103,0.069-0.24,0.206-0.412
		v-0.944C82.272,60.51,82.204,60.436,82.066,60.436z M85.863,40.956v0.103c0.148,0,1.482,0.739,4.003,2.217h0.206v-0.31
		c-0.023-0.184-1.392-0.854-4.106-2.01H85.863z M92.184,44.443c1.936,1.26,5.165,2.554,9.689,3.882
		c2.13,0.355,3.286,0.533,3.47,0.533h0.104v-0.104C101.473,47.953,97.052,46.515,92.184,44.443z M112.61,48.445
		c-0.436-0.079-0.962-0.12-1.58-0.12l-0.206,0.12c-0.138-0.079-0.247-0.12-0.327-0.12v0.12c0.069,0.115,0.104,0.253,0.104,0.413
		l-0.104,0.206l0.224,0.103h1.048c0.206,0,0.698-0.172,1.478-0.515c0.802-0.138,1.362-0.207,1.684-0.207l-0.104-0.223L112.61,48.445
		z M111.459,46.023v0.104h0.516c4.639-0.664,6.958-1.266,6.958-1.804c1.328-0.481,1.992-0.796,1.992-0.945h-0.103
		c-1.867,0.779-3.305,1.306-4.313,1.58c-0.722,0.355-1.987,0.602-3.796,0.739C112.714,45.799,112.295,45.909,111.459,46.023z
		 M123.674,43.068v0.104h0.412c0.984-0.424,1.512-0.773,1.58-1.048h-0.103C124.51,42.753,123.88,43.068,123.674,43.068z
		 M126.405,41.694h0.103c0.447-0.092,1.186-0.584,2.216-1.478h0.104V40.01C127.247,41.007,126.439,41.568,126.405,41.694z
		 M127.453,44.219l-0.104,0.224h0.104c0.137-0.08,0.246-0.12,0.326-0.12v-0.104H127.453z"/>
	<path fill="#FFFFFF" d="M87.719,50.782c0.24,0,1.78,1.146,4.621,3.435l0.086,0.206c-1.639,1.993-2.457,3.825-2.457,5.497v1.787
		c0,0.744,0.264,1.362,0.79,1.855h0.894c1.02-0.424,1.838-1.403,2.456-2.938c0.917-2.118,1.375-4.054,1.375-5.806v-0.602
		l-0.104-0.979c1.489-0.846,2.537-1.27,3.144-1.27c0.332,0.286,0.498,0.446,0.498,0.48v0.104c0,0.424,0.035,0.847,0.104,1.27
		c-0.458,3.677-1.18,6.763-2.164,9.26c-1.433,2.417-2.944,3.923-4.535,4.518c-0.367,0.195-0.985,0.327-1.855,0.396
		c-2.177,0-3.717-1.116-4.621-3.35c-0.596-1.146-0.894-2.783-0.894-4.913c0-3.138,0.624-5.893,1.872-8.263
		C87.271,51.011,87.535,50.782,87.719,50.782z M86.636,62.085v0.395h0.086v-0.395H86.636z M86.722,62.583v0.206
		c0.47,1.248,0.928,2.13,1.375,2.646v-0.104C87.421,63.625,86.963,62.709,86.722,62.583z M87.615,55.402
		c-0.08,0.71-0.148,1.14-0.206,1.288h0.206c0.126-0.584,0.189-0.979,0.189-1.186L87.615,55.402z M88.405,52.946
		c-0.458,0.801-0.687,1.523-0.687,2.165v0.103c0.194-0.011,0.486-0.767,0.876-2.267H88.405z M90.072,66.414
		c-0.493-0.195-0.854-0.292-1.083-0.292c0,0.08,0.229,0.246,0.688,0.498h0.104c1.007,0,1.992-0.166,2.954-0.498v-0.104h-0.309
		l-0.189,0.104c-0.114-0.069-0.246-0.104-0.396-0.104C91.211,66.282,90.621,66.414,90.072,66.414z M89.78,54.027
		c0,0.069-0.035,0.167-0.104,0.293h0.206c0.126-0.069,0.224-0.104,0.292-0.104v-0.189H89.78z M91.446,64.747v0.104h0.79
		c0.092,0,0.258-0.166,0.498-0.498h-0.103C92.15,64.616,91.755,64.747,91.446,64.747z M93.422,65.039
		c0.057,0.195,0.12,0.292,0.188,0.292c0.126,0,0.487-0.389,1.083-1.168v-0.206C94.452,63.957,94.028,64.318,93.422,65.039z"/>
	<path fill="#FFFFFF" d="M107.389,37.537c0.824,0.298,1.512,0.865,2.062,1.701c-0.733,1.042-1.421,2.742-2.062,5.102
		c-1.065,3.447-1.598,5.721-1.598,6.82c1.478-0.24,2.49-0.361,3.04-0.361c1.718,0,2.915,0.327,3.591,0.979
		c0.344,0.012,1.024,0.642,2.044,1.889c0.332,0.229,0.693,1.363,1.082,3.401l-0.086,0.532v0.275c0,0.184,0.029,0.274,0.086,0.274
		c0,2.601-1.402,5.194-4.208,7.782c-1.741,1.26-3.356,1.89-4.845,1.89c-0.355,0.092-0.532,0.178-0.532,0.258v0.103l0.274,1.787
		l-0.274,0.172h-0.086c-0.802-0.114-1.489-0.412-2.062-0.894c-0.699-0.744-2.223-1.85-4.569-3.315l-0.275-0.36v-1.254
		c0-0.241,0.028-0.476,0.086-0.705l-0.172-1.254c0.87-6.401,1.735-10.673,2.594-12.815c0.664-2.244,1.415-4.277,2.251-6.099
		c0.16-0.16,0.458-0.818,0.893-1.976C106.042,38.848,106.965,37.537,107.389,37.537z M100.31,60.745l-0.344,4.02
		c0,0.172,0.235,0.412,0.705,0.722h0.103c-0.184-1.409-0.274-2.273-0.274-2.595v-2.146H100.31z M101.392,54.371l-0.446,2.165v0.086
		h0.086c0.481-0.962,0.722-1.558,0.722-1.787v-0.188c0-0.08-0.092-0.172-0.275-0.275H101.392z M101.668,65.761
		c0.148,0.596,0.418,0.894,0.808,0.894v-0.086c-0.092-0.596-0.213-0.894-0.361-0.894L101.668,65.761z M101.84,61.191v1.7h0.086
		l0.103-0.893v-0.361l-0.103-0.446H101.84z M101.926,64.146v0.36h0.103v-0.36H101.926z M103.282,52.053
		c-0.606,2.015-0.996,3.687-1.168,5.015h0.172c0-0.24,0.361-1.884,1.082-4.93v-0.085H103.282z M103.18,49.906v0.086
		c0.126,0,0.188-0.058,0.188-0.172v-0.104C103.242,49.74,103.18,49.802,103.18,49.906z M103.282,49.63h0.172
		c0.241-0.778,0.567-1.288,0.979-1.528l0.36-2.405v-0.189C104.313,46.39,103.809,47.764,103.282,49.63z M104.073,54.027v0.172h0.274
		c0.148-0.114,0.269-0.172,0.36-0.172v-0.103h-0.171L104.073,54.027z M104.176,51.778v0.55h0.086l0.086-0.464L104.176,51.778z
		 M104.176,52.86v0.257c0.058,0,0.144,0.034,0.258,0.104v-0.275C104.376,52.946,104.29,52.917,104.176,52.86z M104.348,67.29
		c0,0.058-0.028,0.144-0.086,0.258c0.068,0.596,0.189,0.893,0.36,0.893l0.172-0.086l-0.086-0.172
		c0.115-0.389,0.172-0.658,0.172-0.807V67.29H104.348z M104.88,58.494v1.168c0,2.371,0.12,4.284,0.361,5.738h0.188
		c2.359-0.985,3.911-2.296,4.655-3.935c0.481-1.179,0.722-2.198,0.722-3.058c0-1.408-0.87-2.45-2.611-3.126
		c-0.848-0.184-1.563-0.275-2.146-0.275h-0.086c-0.653,0-0.979,0.361-0.979,1.082C104.915,56.811,104.88,57.612,104.88,58.494z
		 M105.963,52.671c0.057,0,0.086,0.034,0.086,0.103c0.091-0.068,0.274-0.103,0.549-0.103V52.5h-0.464
		C106.019,52.523,105.963,52.58,105.963,52.671z M106.941,53.479l0.189,0.103h1.426v-0.188c0-0.114-0.058-0.172-0.172-0.172h-0.894
		C107.125,53.255,106.941,53.341,106.941,53.479z M107.131,66.74v0.086c0.526-0.172,1.03-0.378,1.512-0.618v-0.086h-0.258
		C107.995,66.156,107.577,66.362,107.131,66.74z M107.217,38.876c0.045,0.836,0.137,1.254,0.274,1.254h0.086
		c0.298-0.24,0.447-0.509,0.447-0.807v-0.172c0-0.092-0.178-0.241-0.533-0.447L107.217,38.876z M109.45,54.199l-0.086,0.172
		c0.4,0.31,0.67,0.464,0.807,0.464v-0.188C110.102,54.646,109.862,54.497,109.45,54.199z M109.553,64.318h0.086
		c1.729-1.729,2.594-3.133,2.594-4.209l-0.172-0.086c-0.092,0.012-0.36,0.728-0.807,2.147
		C110.772,62.927,110.206,63.643,109.553,64.318z M109.999,52.053v0.085c0.836,0.218,1.523,0.579,2.062,1.083h0.086v-0.104
		c0-0.274-0.687-0.629-2.062-1.064H109.999z M109.999,53.221c0.768,0.893,1.214,1.34,1.341,1.34
		c0.114-0.058,0.206-0.086,0.274-0.086v-0.275c-0.206-0.343-0.624-0.67-1.254-0.979H109.999z M111.614,55.179
		c0.354,0.699,0.682,1.626,0.979,2.783h0.086c0-0.058,0.028-0.148,0.086-0.275C112.674,56.015,112.29,55.179,111.614,55.179z
		 M112.868,61.81l-0.36,0.808h0.086c0.114,0,0.292-0.234,0.532-0.704V61.81H112.868z M112.954,54.285v0.086
		c0,0.218,0.24,0.939,0.722,2.165c0.114-0.069,0.2-0.104,0.258-0.104c0,0.069,0.028,0.104,0.086,0.104v-0.104
		c0-0.16-0.298-0.876-0.894-2.147H112.954z"/>
	<path fill="#FFFFFF" d="M126.337,50.782c0.389,0.058,0.641,0.114,0.756,0.172l0.171-0.086c1.249,0.412,2.176,1.11,2.783,2.096
		c0.034,0.286,0.114,0.429,0.24,0.429c1.306-1.213,2.348-1.889,3.127-2.027c0.366-0.148,1.151-0.258,2.354-0.326
		c2.118,0.218,3.378,1.06,3.779,2.525c0.446,0.996,0.728,1.918,0.842,2.766c0,4.02-0.813,7.725-2.439,11.114l-0.412,0.412h-0.516
		c-1.076-0.801-2.084-1.5-3.023-2.096l-0.344-0.842c0.562-0.698,1.151-2.268,1.77-4.707c0.229-0.732,0.344-1.66,0.344-2.782
		c0-1.237-0.31-1.855-0.928-1.855c-0.664,0-1.506,0.618-2.525,1.855c-0.71,0.938-1.386,2.428-2.027,4.466l-0.996,4.707
		c0,0.286-0.144,0.51-0.43,0.67h-0.67c-0.126,0-0.24-0.028-0.343-0.086c-0.218,0.115-0.527,0.172-0.928,0.172
		c-0.447-0.103-0.67-0.218-0.67-0.344c0.229-1.42,0.732-3.716,1.512-6.889l0.343-2.611l-0.086-0.343l0.086-0.498
		c-0.137-1.352-0.584-2.027-1.34-2.027c-0.721,0.194-1.483,0.842-2.284,1.941c-1.02,1.42-1.775,3.83-2.268,7.231v2.354
		c0,0.252,0.057,0.481,0.172,0.688c0,0.08-0.115,0.218-0.344,0.412c0.114,0.184,0.172,0.35,0.172,0.498
		c0,0.092-0.109,0.206-0.327,0.344h-0.515c-2.68-1.912-4.191-2.869-4.535-2.869l-0.258-0.326v-0.258
		c0.229-2.026,0.79-4.128,1.684-6.305c1.042-2.404,2.388-4.397,4.037-5.977C123.548,51.314,124.893,50.782,126.337,50.782z
		 M118.606,61.123l-0.773,2.954c0.046,0.333,0.132,0.498,0.258,0.498c0.138,0,0.31-1.036,0.516-3.109
		c0.045,0,0.068-0.086,0.068-0.257v-0.086H118.606z M119.362,62.479c-0.229,1.317-0.344,2.188-0.344,2.611
		c0,0.126,0.223,0.321,0.67,0.584h0.086c-0.218-1.568-0.326-2.634-0.326-3.195H119.362z M119.774,60.624
		c-0.115,0.516-0.172,0.797-0.172,0.842c0.08,0,0.194-0.28,0.344-0.842H119.774z M120.702,57.842v0.172l0.086,0.429
		c-0.115,0-0.172,0.081-0.172,0.241v0.172h0.086c0.412-1.18,1.311-2.835,2.696-4.965v-0.086
		C122.322,55.076,121.424,56.422,120.702,57.842z M125.667,51.881c0.079,0.218,0.165,0.326,0.257,0.326h0.756v-0.24L125.667,51.881z
		 M127.521,53.719c0.367,0.068,0.756,0.298,1.169,0.687V54.32c-0.367-0.504-0.591-0.756-0.671-0.756h-0.326
		C127.579,53.575,127.521,53.627,127.521,53.719z M127.607,66.087v0.172h0.327c0.114,0,0.171-0.057,0.171-0.172v-0.24h-0.257
		C127.767,65.847,127.687,65.927,127.607,66.087z M129.961,55.402v0.258c1.97-1.798,3.481-2.749,4.535-2.851v-0.172
		c-2.072,0.549-3.109,0.996-3.109,1.339C130.814,54.641,130.339,55.116,129.961,55.402z M130.047,58.271v0.258
		c0.012,0.104,0.063,0.155,0.155,0.155L131.129,57h-0.086C130.974,57,130.642,57.424,130.047,58.271z M133.5,54.732
		c0.778-0.114,1.168-0.224,1.168-0.327c-0.332-0.251-0.498-0.395-0.498-0.429C133.723,54.125,133.5,54.377,133.5,54.732z
		 M135.51,53.719c0.218,0.172,0.526,0.344,0.928,0.516v-0.172c-0.31-0.504-0.504-0.756-0.584-0.756S135.658,53.443,135.51,53.719z
		 M135.682,65.177c0.092,0,0.2,0.052,0.326,0.154h0.172c0.962-2.05,1.443-3.252,1.443-3.607c0.046-0.676,0.154-1.322,0.326-1.941
		c-0.126,0.115-0.464,1.014-1.014,2.697L135.682,65.177z M136.523,60.624l-0.172,0.67c0.138,0,0.224-0.194,0.258-0.584v-0.086
		H136.523z M136.935,58.528l-0.24,1.512v0.086h0.086c0.16-0.676,0.24-1.156,0.24-1.442v-0.155H136.935z"/>
	<path fill="#FFFFFF" d="M145.284,50.764c1.065,0.161,1.598,0.424,1.598,0.79c-0.47,1.935-0.704,4.083-0.704,6.442l0.172,1.598
		c0,0.058-0.028,0.086-0.086,0.086l0.086,0.446v0.275c0,1.81,0.446,4.043,1.34,6.699c0,0.104,0.092,0.252,0.275,0.447v0.274
		c0,0.114-0.063,0.172-0.189,0.172c-1.1-0.286-2.674-1.18-4.724-2.68c-1.02-0.286-1.529-0.584-1.529-0.894
		c-0.058-0.218-0.086-0.486-0.086-0.808c0.436-4.466,0.79-6.699,1.065-6.699c0-1.054,0.629-3.018,1.89-5.892
		C144.632,50.85,144.93,50.764,145.284,50.764z M142.776,61.655c-0.114,0.48-0.172,0.779-0.172,0.894v0.172
		c0.126,0,0.212-0.327,0.258-0.979v-0.086H142.776z M142.604,63.167v0.36h0.086v-0.36H142.604z M143.944,56.296l-0.636,4.105v0.086
		h0.086c0.424-1.065,0.636-2.405,0.636-4.021v-0.171H143.944z M144.649,63.699c0,0.481-0.27,0.722-0.808,0.722v0.275
		c0.114,0,0.384,0.148,0.808,0.446h0.188c-0.068-0.47-0.104-0.95-0.104-1.443H144.649z M147.243,42.003
		c0.996,0,1.712,0.744,2.147,2.233c0,1.442-0.51,2.308-1.529,2.594c0,0.172-0.326,0.258-0.979,0.258h-0.086
		c-1.729-0.252-2.594-1.083-2.594-2.491c0-1.26,0.447-2.067,1.34-2.422C146.023,42.061,146.59,42.003,147.243,42.003z
		 M144.924,56.914v0.36h0.086v-0.36H144.924z M145.01,56.296v0.532h0.086v-0.532H145.01z M145.182,51.83v0.086
		c0.068,0.114,0.103,0.206,0.103,0.274h0.086c0.114,0,0.172-0.063,0.172-0.188V51.83H145.182z M145.542,43.429
		c-0.114,0.446-0.172,0.864-0.172,1.254h0.172v-0.808c0-0.138,0.028-0.258,0.086-0.36v-0.086H145.542z M146.521,44.151v0.807
		l0.103,0.447h0.086c0.115-0.744,0.264-1.46,0.447-2.147l-0.189-0.086h-0.086C146.733,43.171,146.613,43.498,146.521,44.151z"/>
	<path fill="#FFFFFF" d="M154.922,36.283h0.446c1.294,1.076,1.941,1.786,1.941,2.13v0.258c-0.768,2.371-1.415,5.36-1.941,8.968
		c0.252,0.114,0.722,0.172,1.408,0.172h0.533c0.137,0,0.258-0.029,0.36-0.086c0.264,0.126,0.647,0.188,1.151,0.188h0.979
		c0.08,0,0.166,0.086,0.258,0.258v0.172c0,0.092-0.114,0.212-0.344,0.36h-1.064c0,0.596-0.533,0.894-1.598,0.894h-1.598
		c-0.218,0-0.367,0.647-0.447,1.941v0.274c0,1.305-0.028,2.25-0.085,2.834c0.103,3.791,0.251,5.686,0.446,5.686
		c0,0.058-0.034,0.086-0.104,0.086c0.355,2.646,0.83,4.685,1.426,6.116l0.447,1.426l-0.189,0.086
		c-1.684-0.286-4.255-1.678-7.713-4.175c-0.264-0.298-0.412-0.532-0.446-0.704c0.183-3.837,0.566-7.267,1.15-10.29
		c0.424-1.706,0.636-2.743,0.636-3.109v-0.172c-1.146,0.058-1.89,0.086-2.233,0.086c-0.172-0.218-0.258-0.424-0.258-0.618
		c0-0.412,0.235-0.83,0.705-1.254h0.721c1.123,0,1.684-0.115,1.684-0.344c1.076-4.215,2.199-7.708,3.367-10.479
		C154.652,36.517,154.772,36.283,154.922,36.283z M150.129,59.611c0,0.274-0.029,0.452-0.086,0.532
		c0.057,0.114,0.086,0.206,0.086,0.274c-0.127,0.505-0.247,1.243-0.361,2.217c0.058,0.24,0.234,0.36,0.533,0.36
		c-0.058-1.065-0.086-2.193-0.086-3.384H150.129z M150.215,58.46v0.446h0.086V58.46H150.215z M151.193,58.82v0.791h0.086V58.82
		H151.193z M151.193,60.332v1.065c0,1.512,0.235,2.365,0.705,2.56h0.085v-1.941c-0.47,0-0.704-0.561-0.704-1.684H151.193z
		 M152.963,58.992v3.281c0,1.718,0.178,2.577,0.532,2.577h0.086c-0.171-0.848-0.349-2.801-0.532-5.858H152.963z M153.77,52.345
		c-0.126,0.675-0.189,1.144-0.189,1.408c0.058,0.114,0.086,0.206,0.086,0.274h0.189v-0.085c0-0.126-0.029-0.189-0.086-0.189
		l0.086-0.618v-0.79H153.77z M155.093,38.327v0.086c0.115,0,0.172-0.057,0.172-0.172v-0.103
		C155.15,38.161,155.093,38.224,155.093,38.327z M155.986,38.241l-0.086,0.43v0.532h0.086l0.258-0.876l-0.172-0.086H155.986z"/>
</g>
</svg>
